<?xml version="1.0" encoding="UTF-8" standalone="no"?>
<!--
  - Copyright (c) 2024. All rights reserved by Woliul Hasan. Fork me on https://github.com/woliul
  -->

<!DOCTYPE svg PUBLIC "-//W3C//DTD SVG 1.1//EN" "http://www.w3.org/Graphics/SVG/1.1/DTD/svg11.dtd">
<svg width="100%" height="100%" viewBox="0 0 293 80" version="1.1" xmlns="http://www.w3.org/2000/svg"
     xml:space="preserve"
     style="fill-rule:evenodd;clip-rule:evenodd;stroke-linejoin:round;stroke-miterlimit:2;">
    <g id="Layer_2">
        <g id="Layer_1-2">
            <g id="gypsy">
                <g id="text-gypsy">
                    <path id="Path_4" d="M134.54,11.81L128.61,11.81C130.616,13.451 131.772,15.918 131.75,18.51C131.747,19.892 131.443,21.257 130.86,22.51C130.256,23.845 129.373,25.035 128.27,26C127,27.052 125.555,27.871 124,28.42C122.15,29.083 120.213,29.467 118.25,29.56C115.47,29.68 114.08,30.42 114.08,31.8C114.04,32.253 114.242,32.694 114.61,32.96C115.124,33.262 115.697,33.449 116.29,33.51C117.05,33.63 118.35,33.77 120.17,33.93C122.112,34.088 124.038,34.402 125.93,34.87C127.81,35.351 129.534,36.312 130.93,37.66C132.539,39.266 133.378,41.491 133.23,43.76C133.271,45.758 132.671,47.717 131.52,49.35C130.109,51.161 128.169,52.49 125.97,53.15C122.692,54.164 119.269,54.627 115.84,54.52C109.84,54.52 105.407,53.71 102.54,52.09C99.673,50.47 98.257,48.303 98.29,45.59C98.321,44.721 98.508,43.864 98.84,43.06C99.343,41.938 100.15,40.978 101.17,40.29C102.721,39.272 104.501,38.657 106.35,38.5C105.501,38.171 104.779,37.579 104.29,36.81C103.733,36.053 103.428,35.14 103.42,34.2C103.452,32.935 103.879,31.711 104.64,30.7C105.6,29.458 107.021,28.653 108.58,28.47C106.089,27.831 103.815,26.532 102,24.71C100.133,22.807 99.133,20.214 99.24,17.55C99.19,15.532 99.629,13.531 100.52,11.72C101.342,10.087 102.564,8.687 104.07,7.65C105.671,6.571 107.452,5.788 109.33,5.34C111.477,4.821 113.681,4.569 115.89,4.59L134.51,4.59L134.54,11.81ZM123.68,44.81C123.732,43.392 122.702,42.146 121.3,41.93C119.696,41.495 118.042,41.276 116.38,41.28C114.341,41.162 112.299,41.461 110.38,42.16C109.235,42.63 108.493,43.763 108.52,45C108.52,47.53 111.08,48.79 116.18,48.79C118.055,48.865 119.923,48.524 121.65,47.79C122.876,47.32 123.688,46.133 123.68,44.82L123.68,44.81ZM121.28,17.53C121.34,15.968 120.698,14.459 119.53,13.42C118.47,12.428 117.072,11.873 115.62,11.87C113.963,11.793 112.359,12.479 111.27,13.73C110.283,14.804 109.721,16.202 109.69,17.66C109.682,18.594 109.917,19.514 110.37,20.33C110.824,21.156 111.491,21.847 112.3,22.33C113.211,22.853 114.25,23.112 115.3,23.08C116.892,23.129 118.44,22.542 119.6,21.45C120.691,20.449 121.309,19.031 121.3,17.55L121.28,17.53Z" style="fill:rgb(36,121,252);fill-rule:nonzero;"/>
                    <path id="Path_5" d="M176.14,4.58L153.14,53.91L141,53.91L150.32,34.06L136.87,4.58L149.76,4.58L156.66,21.44L164.48,4.58L176.14,4.58Z" style="fill:rgb(36,121,252);fill-rule:nonzero;"/>
                    <path id="Path_6" d="M216.81,21.3C216.804,23.527 216.467,25.742 215.81,27.87C215.188,29.937 214.192,31.873 212.87,33.58C211.508,35.296 209.761,36.667 207.77,37.58C205.495,38.612 203.017,39.118 200.52,39.06C198.743,39.128 196.967,38.892 195.27,38.36C193.942,37.866 192.666,37.243 191.46,36.5L191.46,53.91L179.46,53.91L179.46,4.58L191.46,4.58L191.46,7.65C192.668,6.598 194.014,5.717 195.46,5.03C197.338,4.257 199.362,3.906 201.39,4C203.923,4.02 206.413,4.652 208.65,5.84C211.11,7.142 213.145,9.124 214.51,11.55C216.139,14.534 216.933,17.903 216.81,21.3ZM204.19,21.57C204.244,19.849 203.902,18.138 203.19,16.57C202.66,15.415 201.787,14.451 200.69,13.81C199.729,13.256 198.639,12.963 197.53,12.96C196.327,12.913 195.128,13.146 194.03,13.64C193.107,14.103 192.247,14.681 191.47,15.36L191.47,28.33L192.81,29.08C193.275,29.35 193.755,29.59 194.25,29.8C194.746,30.007 195.258,30.174 195.78,30.3C196.354,30.432 196.941,30.499 197.53,30.5C199.399,30.507 201.162,29.612 202.26,28.1C203.611,26.2 204.28,23.898 204.16,21.57L204.19,21.57Z" style="fill:rgb(36,121,252);fill-rule:nonzero;"/>
                    <path id="Path_7" d="M249.55,28.6C249.631,31.515 248.369,34.311 246.13,36.18C243.863,38.12 240.483,39.09 235.99,39.09C233.741,39.119 231.497,38.891 229.3,38.41C227.13,37.886 224.993,37.235 222.9,36.46L222.9,27.93C224.597,28.922 226.357,29.8 228.17,30.56C229.727,31.172 231.387,31.477 233.06,31.46C236.06,31.46 237.56,30.637 237.56,28.99C237.551,28.43 237.316,27.896 236.91,27.51C236.229,26.914 235.465,26.422 234.64,26.05C233.573,25.503 232.137,24.853 230.33,24.1C228.199,23.187 226.274,21.854 224.67,20.18C223.132,18.567 222.294,16.408 222.34,14.18C222.355,12.438 222.895,10.74 223.89,9.31C225.073,7.637 226.692,6.319 228.57,5.5C230.948,4.446 233.53,3.934 236.13,4C236.84,4 237.75,4.05 238.85,4.15C240.254,4.309 241.645,4.573 243.01,4.94C244.668,5.353 246.272,5.957 247.79,6.74L247.79,15L246,13.94C245.386,13.565 244.748,13.231 244.09,12.94C243.179,12.53 242.236,12.196 241.27,11.94C240.189,11.66 239.077,11.519 237.96,11.52C236.946,11.408 235.927,11.695 235.12,12.32C234.667,12.733 234.394,13.308 234.36,13.92C234.383,14.53 234.676,15.098 235.16,15.47C236.25,16.24 237.45,16.84 238.72,17.25C240.963,18.066 243.109,19.125 245.12,20.41C246.536,21.306 247.708,22.54 248.53,24C249.241,25.427 249.591,27.006 249.55,28.6Z" style="fill:rgb(36,121,252);fill-rule:nonzero;"/>
                    <path id="Path_8" d="M292.38,4.58L269.38,53.91L257.22,53.91L266.54,34.06L253.12,4.58L266,4.58L272.89,21.44L280.72,4.58L292.38,4.58Z" style="fill:rgb(36,121,252);fill-rule:nonzero;"/>
                </g>
                <path d="M104.23,73.66C103.987,73.863 103.704,74.013 103.4,74.1C103.076,74.199 102.739,74.25 102.4,74.25C101.669,74.303 100.947,74.058 100.4,73.57C99.895,73.033 99.64,72.305 99.7,71.57L99.7,67L98.29,67L98.29,65.74L99.72,65.74L99.72,63.9L101.24,63.9L101.24,65.74L103.66,65.74L103.66,67L101.24,67L101.24,71.56C101.231,71.925 101.356,72.28 101.59,72.56C101.854,72.821 102.22,72.953 102.59,72.92C103.02,72.932 103.441,72.794 103.78,72.53L104.23,73.66Z" style="fill:rgb(36,121,252);fill-rule:nonzero;"/>
                <path d="M110.29,66C110.883,65.733 111.529,65.603 112.18,65.62L112.18,67.1L111.83,67.1C111.108,67.063 110.404,67.332 109.89,67.84C109.382,68.416 109.126,69.173 109.18,69.94L109.18,74.13L107.66,74.13L107.66,65.74L109.12,65.74L109.12,67.15C109.377,66.651 109.787,66.248 110.29,66Z" style="fill:rgb(36,121,252);fill-rule:nonzero;"/>
                <path d="M121.36,66.52C122.022,67.196 122.361,68.126 122.29,69.07L122.29,74.15L120.85,74.15L120.85,73C120.581,73.399 120.203,73.712 119.76,73.9C119.227,74.115 118.655,74.221 118.08,74.21C117.271,74.249 116.473,74.008 115.82,73.53C115.27,73.097 114.955,72.43 114.97,71.73C114.947,71.043 115.247,70.384 115.78,69.95C116.534,69.437 117.441,69.197 118.35,69.27L120.77,69.27L120.77,69C120.808,68.436 120.596,67.883 120.19,67.49C119.716,67.11 119.115,66.925 118.51,66.97C118.014,66.971 117.521,67.052 117.05,67.21C116.614,67.358 116.208,67.581 115.85,67.87L115.21,66.73C115.673,66.364 116.203,66.092 116.77,65.93C117.392,65.738 118.039,65.644 118.69,65.65C119.658,65.589 120.613,65.901 121.36,66.52ZM119.85,72.68C120.272,72.428 120.596,72.04 120.77,71.58L120.77,70.41L118.42,70.41C117.13,70.41 116.48,70.84 116.48,71.71C116.464,72.104 116.649,72.481 116.97,72.71C117.377,72.971 117.857,73.097 118.34,73.07C118.87,73.083 119.393,72.948 119.85,72.68Z" style="fill:rgb(36,121,252);fill-rule:nonzero;"/>
                <path d="M134,65.74L130.32,74.15L128.76,74.15L125.08,65.74L126.66,65.74L129.55,72.49L132.55,65.74L134,65.74Z" style="fill:rgb(36,121,252);fill-rule:nonzero;"/>
                <path d="M144.34,70.45L137.51,70.45C137.589,71.157 137.949,71.803 138.51,72.24C139.099,72.701 139.833,72.939 140.58,72.91C141.497,72.949 142.386,72.583 143.01,71.91L143.85,72.91C143.464,73.353 142.977,73.696 142.43,73.91C141.825,74.149 141.18,74.268 140.53,74.26C139.71,74.278 138.898,74.089 138.17,73.71C137.499,73.367 136.943,72.835 136.57,72.18C136.197,71.514 136,70.763 136,70C135.989,69.229 136.175,68.469 136.54,67.79C136.869,67.137 137.375,66.589 138,66.21C138.661,65.836 139.411,65.646 140.17,65.66C140.923,65.646 141.666,65.836 142.32,66.21C142.948,66.57 143.461,67.1 143.8,67.74C144.16,68.435 144.342,69.208 144.33,69.99C144.341,70.143 144.344,70.297 144.34,70.45ZM138.34,67.61C137.842,68.064 137.531,68.689 137.47,69.36L142.87,69.36C142.802,68.694 142.492,68.075 142,67.62C141.5,67.168 140.844,66.928 140.17,66.95C139.512,66.939 138.873,67.175 138.38,67.61L138.34,67.61Z" style="fill:rgb(36,121,252);fill-rule:nonzero;"/>
                <rect x="148.07" y="62.38" width="1.52" height="11.77" style="fill:rgb(36,121,252);"/>
                <path d="M173,66.58C173.666,67.326 174.002,68.312 173.93,69.31L173.93,74.15L172.4,74.15L172.4,69.49C172.449,68.828 172.25,68.172 171.84,67.65C171.425,67.211 170.832,66.983 170.23,67.03C169.542,66.995 168.871,67.257 168.39,67.75C167.898,68.323 167.65,69.066 167.7,69.82L167.7,74.15L166.18,74.15L166.18,69.49C166.229,68.828 166.03,68.172 165.62,67.65C165.203,67.204 164.609,66.966 164,67C163.309,66.966 162.636,67.228 162.15,67.72C161.665,68.296 161.421,69.038 161.47,69.79L161.47,74.12L159.95,74.12L159.95,65.74L161.41,65.74L161.41,67C161.716,66.568 162.13,66.223 162.61,66C163.147,65.769 163.726,65.654 164.31,65.66C164.917,65.646 165.519,65.784 166.06,66.06C166.562,66.314 166.972,66.72 167.23,67.22C167.56,66.722 168.02,66.324 168.56,66.07C169.157,65.791 169.811,65.65 170.47,65.66C171.403,65.61 172.317,65.943 173,66.58Z" style="fill:rgb(36,121,252);fill-rule:nonzero;"/>
                <path d="M184,66.52C184.662,67.196 185.001,68.126 184.93,69.07L184.93,74.15L183.48,74.15L183.48,73C183.217,73.401 182.841,73.714 182.4,73.9C181.867,74.115 181.295,74.221 180.72,74.21C179.911,74.249 179.113,74.008 178.46,73.53C177.935,73.084 177.633,72.429 177.633,71.74C177.633,71.051 177.935,70.396 178.46,69.95C179.214,69.437 180.121,69.197 181.03,69.27L183.44,69.27L183.44,69C183.471,68.439 183.263,67.891 182.87,67.49C182.396,67.11 181.795,66.925 181.19,66.97C180.694,66.97 180.2,67.051 179.73,67.21C179.292,67.358 178.882,67.582 178.52,67.87L177.89,66.73C178.352,66.362 178.882,66.09 179.45,65.93C180.072,65.738 180.719,65.644 181.37,65.65C182.324,65.6 183.264,65.91 184,66.52ZM182.48,72.68C182.904,72.431 183.23,72.042 183.4,71.58L183.4,70.41L181.1,70.41C179.8,70.41 179.16,70.84 179.16,71.71C179.144,72.104 179.329,72.481 179.65,72.71C180.057,72.972 180.537,73.098 181.02,73.07C181.547,73.084 182.067,72.949 182.52,72.68L182.48,72.68Z" style="fill:rgb(36,121,252);fill-rule:nonzero;"/>
                <path d="M197.36,62.38L197.36,74.15L195.9,74.15L195.9,72.82C195.576,73.282 195.134,73.648 194.62,73.88C194.082,74.133 193.494,74.259 192.9,74.25C192.136,74.262 191.381,74.075 190.71,73.71C190.074,73.356 189.55,72.829 189.2,72.19C188.823,71.505 188.633,70.732 188.65,69.95C188.631,69.168 188.821,68.394 189.2,67.71C189.551,67.074 190.074,66.551 190.71,66.2C191.381,65.835 192.136,65.648 192.9,65.66C193.474,65.657 194.043,65.772 194.57,66C195.07,66.223 195.506,66.567 195.84,67L195.84,62.38L197.36,62.38ZM194.48,72.54C194.905,72.291 195.252,71.927 195.48,71.49C195.73,71.016 195.857,70.486 195.85,69.95C195.857,69.411 195.73,68.878 195.48,68.4C195.249,67.978 194.902,67.631 194.48,67.4C194.03,67.141 193.52,67.003 193,67C192.493,66.995 191.993,67.123 191.55,67.37C191.131,67.605 190.785,67.951 190.55,68.37C190.295,68.846 190.168,69.38 190.18,69.92C190.168,70.457 190.296,70.987 190.55,71.46C190.782,71.894 191.128,72.257 191.55,72.51C191.991,72.762 192.492,72.889 193,72.88C193.515,72.902 194.026,72.784 194.48,72.54Z" style="fill:rgb(36,121,252);fill-rule:nonzero;"/>
                <path d="M209.41,70.45L202.59,70.45C202.667,71.157 203.028,71.803 203.59,72.24C204.18,72.698 204.913,72.935 205.66,72.91C206.578,72.953 207.469,72.587 208.09,71.91L208.93,72.91C208.546,73.355 208.058,73.699 207.51,73.91C206.124,74.438 204.58,74.365 203.25,73.71C202.58,73.369 202.026,72.836 201.66,72.18C201.276,71.504 201.079,70.737 201.09,69.96C201.077,69.188 201.267,68.426 201.64,67.75C201.99,67.109 202.513,66.578 203.15,66.22C203.808,65.847 204.554,65.657 205.31,65.67C206.066,65.654 206.813,65.845 207.47,66.22C208.095,66.58 208.605,67.111 208.94,67.75C209.304,68.443 209.487,69.217 209.47,70C209.458,70.151 209.437,70.301 209.41,70.45ZM203.41,67.61C202.915,68.065 202.608,68.69 202.55,69.36L208,69.36C207.94,68.693 207.633,68.073 207.14,67.62C206.082,66.735 204.528,66.735 203.47,67.62L203.41,67.61Z" style="fill:rgb(36,121,252);fill-rule:nonzero;"/>
                <path d="M226.57,70.45L219.74,70.45C219.819,71.157 220.179,71.803 220.74,72.24C221.33,72.698 222.063,72.935 222.81,72.91C223.728,72.953 224.619,72.587 225.24,71.91L226.08,72.91C225.696,73.355 225.208,73.699 224.66,73.91C224.055,74.149 223.41,74.268 222.76,74.26C221.94,74.278 221.128,74.088 220.4,73.71C219.729,73.367 219.173,72.835 218.8,72.18C218.061,70.797 218.061,69.133 218.8,67.75C219.147,67.106 219.671,66.575 220.31,66.22C220.968,65.847 221.714,65.657 222.47,65.67C223.223,65.655 223.967,65.845 224.62,66.22C225.248,66.58 225.761,67.11 226.1,67.75C226.45,68.447 226.621,69.22 226.6,70C226.597,70.15 226.587,70.301 226.57,70.45ZM220.57,67.61C220.076,68.067 219.766,68.69 219.7,69.36L225.1,69.36C225.04,68.693 224.733,68.073 224.24,67.62C223.182,66.735 221.628,66.735 220.57,67.62L220.57,67.61Z" style="fill:rgb(36,121,252);fill-rule:nonzero;"/>
                <path d="M235.8,66.52C236.462,67.196 236.801,68.126 236.73,69.07L236.73,74.15L235.28,74.15L235.28,73C235.017,73.401 234.641,73.714 234.2,73.9C233.666,74.115 233.095,74.22 232.52,74.21C231.711,74.25 230.912,74.01 230.26,73.53C229.735,73.084 229.433,72.429 229.433,71.74C229.433,71.051 229.735,70.396 230.26,69.95C231.014,69.437 231.921,69.197 232.83,69.27L235.24,69.27L235.24,69C235.271,68.439 235.063,67.891 234.67,67.49C234.194,67.124 233.598,66.949 233,67C232.504,67 232.01,67.081 231.54,67.24C231.102,67.388 230.692,67.612 230.33,67.9L229.7,66.76C230.159,66.394 230.686,66.122 231.25,65.96C231.872,65.77 232.52,65.676 233.17,65.68C234.12,65.622 235.059,65.922 235.8,66.52ZM234.28,72.68C234.704,72.431 235.03,72.042 235.2,71.58L235.2,70.41L232.85,70.41C231.56,70.41 230.92,70.84 230.92,71.71C230.904,72.104 231.089,72.481 231.41,72.71C231.813,72.972 232.29,73.098 232.77,73.07C233.3,73.086 233.824,72.95 234.28,72.68Z" style="fill:rgb(36,121,252);fill-rule:nonzero;"/>
                <path d="M241.57,74C241.031,73.866 240.524,73.624 240.08,73.29L240.71,72.09C241.124,72.371 241.579,72.583 242.06,72.72C242.579,72.879 243.118,72.959 243.66,72.96C245,72.96 245.66,72.58 245.66,71.82C245.672,71.588 245.571,71.365 245.39,71.22C245.194,71.061 244.965,70.948 244.72,70.89C244.45,70.82 244.06,70.74 243.57,70.66C243.008,70.578 242.453,70.454 241.91,70.29C241.489,70.161 241.109,69.923 240.81,69.6C240.483,69.218 240.317,68.722 240.35,68.22C240.34,67.475 240.72,66.777 241.35,66.38C242.105,65.884 242.998,65.643 243.9,65.69C244.47,65.691 245.037,65.761 245.59,65.9C246.076,66.009 246.542,66.194 246.97,66.45L246.32,67.66C245.592,67.206 244.748,66.973 243.89,66.99C243.377,66.96 242.865,67.071 242.41,67.31C242.105,67.481 241.911,67.8 241.9,68.15C241.89,68.4 241.997,68.641 242.19,68.8C242.396,68.971 242.639,69.091 242.9,69.15C243.18,69.23 243.57,69.31 244.08,69.41C244.634,69.496 245.182,69.62 245.72,69.78C246.129,69.906 246.498,70.137 246.79,70.45C247.108,70.822 247.269,71.302 247.24,71.79C247.247,72.526 246.867,73.214 246.24,73.6C245.443,74.092 244.515,74.329 243.58,74.28C242.9,74.287 242.222,74.193 241.57,74Z" style="fill:rgb(36,121,252);fill-rule:nonzero;"/>
                <path d="M258,65.74L253.88,75C253.63,75.705 253.195,76.331 252.62,76.81C252.113,77.17 251.502,77.356 250.88,77.34C250.475,77.339 250.073,77.272 249.69,77.14C249.315,77.03 248.972,76.831 248.69,76.56L249.34,75.42C249.737,75.818 250.278,76.042 250.84,76.04C251.176,76.053 251.505,75.947 251.77,75.74C252.077,75.469 252.311,75.125 252.45,74.74L252.72,74.16L249,65.74L250.59,65.74L253.53,72.47L256.43,65.74L258,65.74Z" style="fill:rgb(36,121,252);fill-rule:nonzero;"/>
            </g>
            <path d="M32,29C34.28,28.914 36.11,27.015 36.11,24.733C36.11,22.391 34.182,20.463 31.84,20.463C29.502,20.463 27.577,22.382 27.57,24.72C27.585,27.074 29.526,29.002 31.88,29.002C31.92,29.002 31.96,29.001 32,29Z" style="fill:rgb(36,121,252);fill-rule:nonzero;"/>
            <path d="M72.33,0L7.58,0C3.422,0 -0,3.422 0,7.58L0,72.33C0,76.488 3.422,79.91 7.58,79.91L72.33,79.91C76.488,79.91 79.91,76.488 79.91,72.33L79.91,7.58C79.91,3.422 76.488,0 72.33,0ZM19.16,22.4C20.045,22.275 20.941,22.255 21.83,22.34C22.654,22.476 23.456,21.957 23.67,21.15C24.1,20.22 23.67,19.75 23.13,19.2C22.454,18.617 21.825,17.982 21.25,17.3C20.842,16.885 20.614,16.326 20.614,15.744C20.614,15.064 20.926,14.421 21.46,14C21.873,13.585 22.435,13.351 23.02,13.351C23.605,13.351 24.167,13.585 24.58,14C25.27,14.57 25.909,15.199 26.49,15.88C26.909,16.558 27.809,16.774 28.49,16.36C29.245,16.166 29.745,15.434 29.65,14.66C29.605,13.897 29.605,13.133 29.65,12.37C29.643,12.299 29.639,12.228 29.639,12.157C29.639,10.966 30.619,9.987 31.809,9.987C31.89,9.987 31.97,9.991 32.05,10C32.071,9.999 32.093,9.999 32.114,9.999C33.326,9.999 34.324,10.997 34.324,12.209C34.324,12.253 34.323,12.296 34.32,12.34C34.365,13.103 34.365,13.867 34.32,14.63C34.19,15.397 34.669,16.146 35.42,16.35C36.1,16.754 36.991,16.545 37.42,15.88C37.888,15.359 38.382,14.861 38.9,14.39C40.19,13.18 41.69,13.04 42.6,14.13C43.033,14.573 43.276,15.168 43.276,15.788C43.276,16.537 42.921,17.243 42.32,17.69C41.82,18.18 41.32,18.69 40.82,19.17C40.134,19.579 39.894,20.471 40.28,21.17C40.482,21.986 41.293,22.511 42.12,22.36C43.013,22.31 43.907,22.31 44.8,22.36C44.863,22.354 44.927,22.352 44.991,22.352C46.198,22.352 47.191,23.345 47.191,24.552C47.191,24.625 47.187,24.697 47.18,24.77C47.181,24.796 47.181,24.821 47.181,24.847C47.181,26.032 46.206,27.007 45.021,27.007C44.964,27.007 44.907,27.005 44.85,27C43.96,27 43.07,27.05 42.17,27C42.099,26.992 42.028,26.987 41.956,26.987C40.969,26.987 40.156,27.8 40.156,28.787C40.156,29.355 40.425,29.891 40.88,30.23C41.505,30.777 42.09,31.368 42.63,32C43.044,32.421 43.276,32.988 43.276,33.578C43.276,34.226 42.997,34.843 42.51,35.27C42.092,35.717 41.507,35.971 40.895,35.971C40.332,35.971 39.79,35.756 39.38,35.37C38.699,34.794 38.057,34.173 37.46,33.51C36.91,32.93 36.46,32.51 35.46,32.94C34.647,33.163 34.132,33.98 34.28,34.81C34.355,35.765 34.355,36.725 34.28,37.68L34.28,37.681C34.28,38.882 33.291,39.871 32.09,39.871C32.017,39.871 31.943,39.867 31.87,39.86C31.837,39.862 31.803,39.862 31.77,39.862C30.591,39.862 29.62,38.892 29.62,37.712L29.62,37.71C29.555,36.754 29.555,35.796 29.62,34.84C29.732,34.02 29.224,33.234 28.43,33C28.206,32.868 27.95,32.798 27.69,32.798C27.172,32.798 26.692,33.074 26.43,33.52C25.829,34.179 25.195,34.806 24.53,35.4C23.792,36.06 22.708,36.173 21.85,35.68C21.108,35.29 20.64,34.518 20.64,33.68C20.64,32.16 21.87,31.5 22.69,30.56C23.27,29.89 24.14,29.5 23.69,28.2C23.24,26.9 22.21,27.07 21.24,27C20.539,27.032 19.837,27.009 19.14,26.93C18.007,26.785 17.172,25.77 17.25,24.63C17.196,23.505 18.04,22.52 19.16,22.4ZM30.47,50.8C30.96,51.19 31.47,51.6 31.92,52C32.19,52.22 32.32,52.49 32.08,52.79C31.84,53.09 31.55,52.99 31.28,52.79C31.01,52.59 30.65,52.27 30.28,51.95L30.28,54.17C30.28,54.52 30.19,54.8 29.8,54.81C29.41,54.82 29.29,54.53 29.28,54.19L29.28,52.11C28.96,52.305 28.662,52.533 28.39,52.79C28.13,53 27.86,53.07 27.62,52.79C27.542,52.699 27.499,52.583 27.499,52.464C27.499,52.285 27.595,52.119 27.75,52.03C28.18,51.67 28.61,51.3 29.05,50.95C29.267,50.817 29.345,50.536 29.23,50.31L28.38,51.02C28.12,51.22 27.84,51.28 27.61,51.02C27.38,50.76 27.5,50.48 27.75,50.27C28.15,49.93 28.54,49.58 28.96,49.27C29.252,49.083 29.368,48.708 29.23,48.39L28.5,49C28.25,49.23 27.98,49.29 27.74,49C27.5,48.71 27.59,48.47 27.84,48.24L29.41,46.78C29.514,46.653 29.671,46.579 29.835,46.579C29.999,46.579 30.156,46.653 30.26,46.78L31.86,48.27C32.004,48.359 32.091,48.517 32.091,48.686C32.091,48.82 32.037,48.948 31.94,49.04C31.7,49.3 31.42,49.22 31.18,48.99L30.32,48.21C30.172,48.531 30.289,48.916 30.59,49.1C31.06,49.45 31.49,49.84 31.93,50.21C32.19,50.42 32.31,50.68 32.1,50.96C31.89,51.24 31.57,51.2 31.3,50.96L30.3,50.16C30.245,50.233 30.215,50.322 30.215,50.414C30.215,50.582 30.316,50.734 30.47,50.8ZM8,58.62C7.542,58.907 7.116,59.242 6.73,59.62C6.36,59.92 5.98,60.01 5.65,59.62C5.32,59.23 5.46,58.85 5.82,58.54C6.43,58 7,57.48 7.67,57C7.977,56.815 8.088,56.417 7.92,56.1L6.72,57.1C6.35,57.39 5.95,57.48 5.63,57.1C5.31,56.72 5.47,56.33 5.83,56.03C6.4,55.56 6.94,55.03 7.53,54.63C7.954,54.373 8.126,53.836 7.93,53.38L6.93,54.31C6.799,54.474 6.6,54.57 6.39,54.57C6.18,54.57 5.981,54.474 5.85,54.31C5.49,53.93 5.64,53.56 5.98,53.24C6.73,52.55 7.48,51.86 8.21,51.16C8.356,50.978 8.577,50.873 8.81,50.873C9.043,50.873 9.264,50.978 9.41,51.16L11.69,53.28C11.89,53.406 12.011,53.627 12.011,53.863C12.011,54.051 11.935,54.23 11.8,54.36C11.45,54.73 11.07,54.62 10.72,54.3C10.37,53.98 9.93,53.58 9.5,53.19C9.296,53.646 9.464,54.189 9.89,54.45C10.55,54.94 11.15,55.45 11.79,56.02C12.16,56.32 12.32,56.69 12.02,57.09C11.72,57.49 11.27,57.43 10.89,57.09L9.51,55.92C9.443,56.019 9.408,56.136 9.408,56.255C9.408,56.466 9.519,56.662 9.7,56.77C10.4,57.32 11.06,57.9 11.75,58.47C12.13,58.78 12.32,59.16 11.98,59.58C11.64,60 11.22,59.87 10.84,59.58C10.46,59.29 9.96,58.85 9.41,58.4L9.41,61.55C9.41,62.05 9.28,62.44 8.73,62.45C8.18,62.46 8,62 8,61.54L8,58.62ZM25.88,59.08C25.34,58.42 24.8,57.74 24.26,57.08L24.09,57.16C24.25,58.16 24.39,59.1 24.59,60.06C24.757,60.687 24.522,61.356 24,61.74C23.08,62.56 22.21,63.45 21.28,64.26C20.843,64.547 20.677,65.113 20.89,65.59C21.073,66.102 21.217,66.627 21.32,67.16C21.351,67.265 21.367,67.374 21.367,67.483C21.367,68.001 21.012,68.455 20.51,68.58C20.372,68.638 20.225,68.668 20.076,68.668C19.579,68.668 19.139,68.337 19,67.86C18.66,66.86 18.39,65.78 18.14,64.73C18.012,64.219 18.202,63.679 18.62,63.36C19.62,62.47 20.55,61.54 21.54,60.65C21.899,60.375 22.058,59.907 21.94,59.47C21.73,58.41 21.56,57.34 21.37,56.27C21.03,56.27 20.96,56.53 20.81,56.7L10.9,68.46C10.73,68.67 10.55,68.88 10.37,69.07C10.136,69.401 9.755,69.598 9.349,69.598C8.664,69.598 8.099,69.034 8.099,68.348C8.099,68.02 8.229,67.704 8.46,67.47C9.56,66.12 10.7,64.79 11.83,63.47L21.16,52.4C22.16,51.23 22.81,51.24 23.77,52.4C25.13,54.1 26.49,55.79 27.84,57.49C28.47,58.3 28.47,59.08 27.84,59.55C27.21,60.02 26.5,59.84 25.88,59.08ZM52.88,65.55C52.314,65.828 51.62,65.628 51.29,65.09L47.29,60.09L46.37,58.95C45.69,60.11 45.1,61.16 44.47,62.19C44.281,62.678 43.809,63.001 43.286,63.001C42.842,63.001 42.43,62.769 42.2,62.39C41.34,61.41 40.5,60.41 39.68,59.39C39.41,59.07 39.2,58.97 38.9,59.32L38.83,59.38C36.54,61.38 36.83,61.15 34.44,59.54C33.75,59.07 33.44,59.16 32.97,59.79C31.67,61.53 30.29,63.21 28.97,64.91C28.3,65.75 27.61,65.91 26.97,65.41C26.33,64.91 26.37,64.15 27.02,63.33C30.853,58.443 34.707,53.543 38.58,48.63C39.69,47.22 40.3,47.21 41.39,48.63L53,63.28C53.282,63.547 53.471,63.898 53.54,64.28C53.623,64.814 53.329,65.341 52.83,65.55L52.88,65.55ZM71.41,69.34C70.81,69.83 70.11,69.68 69.41,68.92C66.077,64.92 62.713,60.92 59.32,56.92C59.13,56.7 59.02,56.39 58.61,56.33C58.41,57.46 58.22,58.57 58.01,59.69C57.96,60.02 58.104,60.352 58.38,60.54C59.38,61.41 60.26,62.33 61.24,63.18C61.828,63.639 62.048,64.434 61.78,65.13C61.53,65.96 61.33,66.82 61.08,67.65C60.969,68.215 60.469,68.626 59.893,68.626C59.748,68.626 59.605,68.6 59.47,68.55C58.96,68.414 58.602,67.948 58.602,67.42C58.602,67.276 58.629,67.134 58.68,67C58.676,66.97 58.676,66.94 58.68,66.91C59.54,65.3 58.78,64.29 57.56,63.21C54.7,60.63 55.2,61.69 55.78,58C55.848,57.667 55.827,57.322 55.72,57L54,59.08C53.39,59.84 52.65,60.02 52.05,59.58C51.45,59.14 51.42,58.32 52.05,57.51C53.43,55.763 54.823,54.02 56.23,52.28C57.05,51.28 57.75,51.28 58.6,52.28C62.867,57.3 67.123,62.323 71.37,67.35C71.661,67.597 71.828,67.959 71.828,68.341C71.828,68.727 71.657,69.093 71.36,69.34L71.41,69.34ZM69.28,44.63C70.52,45.63 71.7,46.63 72.93,47.63C73.62,48.19 73.93,48.87 73.33,49.63C72.73,50.39 71.99,50.16 71.33,49.63C70.67,49.1 69.75,48.33 68.77,47.52L68.77,53.14C68.77,54.03 68.53,54.73 67.55,54.75C66.57,54.77 66.26,54.05 66.26,53.18L66.26,47.97C65.452,48.46 64.695,49.03 64,49.67C63.35,50.2 62.66,50.37 62.07,49.67C61.868,49.442 61.756,49.147 61.756,48.842C61.756,48.396 61.994,47.983 62.38,47.76C63.47,46.84 64.56,45.91 65.67,45.02C66.217,44.692 66.416,43.985 66.12,43.42C65.39,44.03 64.69,44.62 63.98,45.19C63.27,45.76 62.61,45.86 62.05,45.13C61.49,44.4 61.75,43.76 62.4,43.22C63.4,42.38 64.4,41.49 65.4,40.72C66.145,40.255 66.44,39.305 66.09,38.5L64.3,40.14C63.67,40.72 62.99,40.87 62.37,40.14C61.75,39.41 62,38.8 62.61,38.23C63.94,36.99 65.27,35.77 66.61,34.52C66.87,34.199 67.262,34.012 67.675,34.012C68.088,34.012 68.48,34.199 68.74,34.52C70.1,35.79 71.46,37.04 72.81,38.31C73.43,38.89 73.64,39.57 73.01,40.23C72.38,40.89 71.7,40.7 71.08,40.12C70.46,39.54 69.67,38.84 68.9,38.12C68.533,38.938 68.835,39.912 69.6,40.38C70.77,41.26 71.85,42.25 72.99,43.18C73.64,43.71 73.99,44.37 73.4,45.08C72.81,45.79 72.06,45.68 71.4,45.08L68.97,43.08C68.832,43.264 68.758,43.487 68.758,43.716C68.758,44.092 68.957,44.44 69.28,44.63Z" style="fill:rgb(36,121,252);fill-rule:nonzero;"/>
            <path d="M40.58,51.58C40.15,51.01 39.92,50.91 39.44,51.58C38.29,53.13 37.06,54.58 35.87,56.13C35.09,57.13 35.11,57.13 36.13,57.74C36.238,57.831 36.375,57.881 36.517,57.881C36.702,57.881 36.876,57.796 36.99,57.65C37.37,57.3 37.77,56.98 38.16,56.65C39.31,55.65 39.77,55.71 40.77,56.88C41.52,57.74 42.26,58.61 43.06,59.55C43.5,58.8 43.85,58.11 44.29,57.47C44.614,57.11 44.587,56.548 44.23,56.22C42.983,54.693 41.767,53.147 40.58,51.58Z" style="fill:rgb(36,121,252);fill-rule:nonzero;"/>
        </g>
    </g>
</svg>
