<?xml version="1.0" encoding="UTF-8" standalone="no"?><!DOCTYPE svg PUBLIC "-//W3C//DTD SVG 1.1//EN" "http://www.w3.org/Graphics/SVG/1.1/DTD/svg11.dtd"><svg width="100%" height="100%" viewBox="0 0 417 424" version="1.1" xmlns="http://www.w3.org/2000/svg" xmlns:xlink="http://www.w3.org/1999/xlink" xml:space="preserve" xmlns:serif="http://www.serif.com/" style="fill-rule:evenodd;clip-rule:evenodd;stroke-linejoin:round;stroke-miterlimit:2;"><rect id="Artboard1" x="0" y="0" width="416.667" height="423.51" style="fill:#fff;"/><g id="Artboard11" serif:id="Artboard1"><g><path id="path20" d="M96.739,79.277l-2.655,-3.359c4.515,-3.573 9.248,-6.959 14.054,-10.111l2.356,3.588c-4.709,3.073 -9.336,6.409 -13.755,9.882Z" style="fill:#2479fc;fill-rule:nonzero;"/><path id="path22" d="M172.679,43.168c-5.476,1.208 -10.96,2.71 -16.356,4.459l-1.301,-4.09c5.511,-1.782 11.131,-3.307 16.707,-4.55l0.95,4.181Z" style="fill:#2479fc;fill-rule:nonzero;"/><path id="path24" d="M125.117,60.793l-2.009,-3.786c5.111,-2.709 10.416,-5.212 15.66,-7.435l1.688,3.949c-5.217,2.202 -10.357,4.627 -15.339,7.272Z" style="fill:#2479fc;fill-rule:nonzero;"/><path id="path26" d="M106.373,388.36c4.802,3.21 9.784,6.226 14.822,8.976l2.052,-3.773c-4.919,-2.676 -9.793,-5.613 -14.503,-8.761l-2.371,3.558Z" style="fill:#2479fc;fill-rule:nonzero;"/><path id="path28" d="M79.405,366.614c4.167,4.034 8.533,7.902 12.987,11.477l2.683,-3.333c-4.344,-3.501 -8.619,-7.283 -12.693,-11.209l-2.977,3.065Z" style="fill:#2479fc;fill-rule:nonzero;"/><path id="path30" d="M56.789,340.374c3.367,4.692 6.968,9.286 10.713,13.623l3.251,-2.796c-3.667,-4.252 -7.188,-8.737 -10.481,-13.326l-3.483,2.499Z" style="fill:#2479fc;fill-rule:nonzero;"/><path id="path32" d="M43.112,308.688l-3.875,1.828c2.464,5.202 5.192,10.355 8.113,15.328l3.693,-2.17c-2.864,-4.87 -5.529,-9.906 -7.931,-14.986Z" style="fill:#2479fc;fill-rule:nonzero;"/><path id="path34" d="M31.374,276.917l-4.14,1.115c1.511,5.547 3.277,11.094 5.281,16.522l4.013,-1.491c-1.954,-5.305 -3.696,-10.738 -5.154,-16.146Z" style="fill:#2479fc;fill-rule:nonzero;"/><path id="path36" d="M25.48,243.554l-4.267,0.366c0.494,5.783 1.24,11.557 2.229,17.181l4.225,-0.74c-0.962,-5.495 -1.693,-11.15 -2.187,-16.807Z" style="fill:#2479fc;fill-rule:nonzero;"/><path id="path38" d="M25.693,209.691l-4.266,-0.406c-0.555,5.72 -0.85,11.544 -0.885,17.317l4.279,0.015c0.042,-5.625 0.328,-11.337 0.872,-16.926Z" style="fill:#2479fc;fill-rule:nonzero;"/><path id="path40" d="M23.877,192.121l4.208,0.79c1.042,-5.531 2.347,-11.082 3.877,-16.503l-4.127,-1.168c-1.575,5.539 -2.899,11.229 -3.958,16.881Z" style="fill:#2479fc;fill-rule:nonzero;"/><path id="path42" d="M40.173,142.896c-2.517,5.141 -4.841,10.498 -6.902,15.876l4.01,1.55c2.013,-5.285 4.282,-10.535 6.74,-15.544l-3.848,-1.882Z" style="fill:#2479fc;fill-rule:nonzero;"/><path id="path44" d="M274.403,44.108c-5.441,-1.801 -11.05,-3.372 -16.671,-4.703l-0.988,4.189c5.517,1.279 10.996,2.824 16.328,4.58l1.331,-4.066Z" style="fill:#2479fc;fill-rule:nonzero;"/><path id="path46" d="M61.521,115.759l-3.452,-2.517c-3.383,4.594 -6.615,9.447 -9.615,14.418l3.668,2.194c2.931,-4.851 6.099,-9.582 9.399,-14.095Z" style="fill:#2479fc;fill-rule:nonzero;"/><path id="path48" d="M240.675,36.222c-5.686,-0.801 -11.479,-1.359 -17.273,-1.644l-0.198,4.273c5.625,0.281 11.312,0.826 16.881,1.603l0.59,-4.232Z" style="fill:#2479fc;fill-rule:nonzero;"/><path id="path50" d="M83.915,90.359l-2.949,-3.103c-4.217,3.99 -8.267,8.194 -12.026,12.471l3.209,2.838c3.683,-4.191 7.657,-8.288 11.766,-12.206Z" style="fill:#2479fc;fill-rule:nonzero;"/><path id="path52" d="M206.086,34.489c-5.721,0.243 -11.538,0.728 -17.281,1.476l0.56,4.251c5.615,-0.742 11.295,-1.216 16.893,-1.435l-0.172,-4.292Z" style="fill:#2479fc;fill-rule:nonzero;"/><path id="path54" d="M339.829,66.767l-13.7,-4.901l-11.116,-33.482l-6.246,-2.21l0.589,29.653l-9.331,-3.336c-0.816,-0.299 -1.764,-0.371 -2.672,-0.253l-2.849,-11.581l-5.008,-1.8l0.532,14.242l-9.463,10.645l5,1.808l9.576,-7.134c0.628,0.663 1.404,1.207 2.228,1.506l9.337,3.35l-19.318,22.536l6.208,2.253l29.902,-18.772l13.67,4.916c2.534,0.93 5.304,0.918 7.825,-0.057c0.425,-0.201 0.789,-0.524 0.962,-0.974c0.144,-0.441 0.132,-0.947 -0.1,-1.358c-1.338,-2.374 -3.472,-4.143 -6.026,-5.051Z" style="fill:#2479fc;fill-rule:nonzero;"/><g><path id="path56" d="M212.33,74c-83.199,0 -150.878,67.679 -150.878,150.878c0,83.19 67.679,150.877 150.878,150.877c83.19,0 150.877,-67.687 150.877,-150.877c0,-83.199 -67.687,-150.878 -150.877,-150.878Zm122.991,175.473c2.739,2.767 3.965,5.32 4.517,8.086c-14.572,56.817 -66.216,98.938 -127.508,98.938c-22.695,0 -44.059,-5.775 -62.715,-15.926c0.187,-0.816 0.369,-1.645 0.551,-2.529c1.113,-5.365 9.404,-7.941 12.964,-11.491c3.468,-3.474 10.369,-5.575 12.512,-10.115c1.404,-2.976 -0.584,-6.791 0.61,-9.567c0.907,-2.088 4.367,-4.362 5.99,-5.99c4.075,-4.074 7.129,-14.677 7.129,-20.247l-18.287,0c-5.776,0 -4.654,-6.828 -4.677,-11.071c-0.005,-2.279 0.141,-5.064 -0.966,-7.147c-1.263,-2.371 -5.352,-1.678 -7.544,-2.79c-3.815,-1.937 -6.979,-5.729 -7.726,-9.991c-0.492,-2.794 -0.392,-4.841 -3.906,-4.704c-3.455,0.146 -6.664,2.912 -9.878,2.912l-38.853,0c0,1.445 -0.82,6.149 0.497,6.81c3.295,1.641 6.586,3.291 9.877,4.937c4.914,2.461 6.354,8.61 8.756,13.405c2.361,4.722 5.037,9.362 7.106,14.203c2.562,5.989 4.422,12.658 9.085,17.471c1.964,2.029 5.775,1.614 6.609,4.408c1.057,3.51 -0.032,7.794 -0.839,11.249c-0.893,3.825 -2.014,7.603 -3.003,11.405c-27.194,-19.582 -46.625,-49.26 -52.788,-83.5c1.833,-0.141 3.669,-0.388 4.736,-0.388c3.555,0 3.665,-0.264 6.24,-2.83c2.256,-2.256 3.724,-2.926 3.724,-6.035l0,-10.812c4.376,2.183 8.742,4.376 13.118,6.555c0.192,-5.301 3.979,-5.981 8.346,-6.714c5.187,-0.857 8.601,-6.405 13.406,-6.405c3.96,0 5.606,0.757 9.325,1.96c1.951,0.643 4.399,1.386 6.436,0.753c2.74,-0.857 2.093,-5.748 3.041,-7.945c1.363,-3.177 3.436,-7.671 7.11,-7.977c3.993,-0.319 9.171,-2.119 4.814,-6.468c-4.782,-4.781 -8.355,-10.88 -11.587,-16.774c-1.381,-2.529 -1.728,-6.518 -4.057,-8.263c-5.087,-3.82 -12.726,1.358 -16.546,4.786c-2.147,1.937 1.222,6.39 -1.727,7.634c-4.795,2.033 -11.054,3.665 -16.004,1.299c-2.698,-1.29 -4.366,-4.453 -7.429,-5.018c-2.115,-0.383 -1.687,-0.975 -1.687,-3.346l0,-11.992c0,-1.659 0.461,-1.007 1.969,-1.44c5.939,-1.705 2.434,-9.436 8.319,-9.531c6.823,-0.114 0.086,-11.742 -1.76,-14.112c-1.034,-1.331 -2.064,-1.928 -3.19,-2.197c24.135,-30.257 61.279,-49.697 102.903,-49.697c37.883,-0 72.059,16.108 96.094,41.811c-7.074,7.685 -14.677,16.432 -19.846,20.311c-3.546,2.658 -8.141,4.271 -12.102,6.249c-3.951,1.983 -9.312,0.921 -13.642,0.921c-1.126,0 -14.426,-0.182 -14.426,0.164c-0,3.943 1.973,11.965 -1.833,13.875c-4.544,2.27 -9.645,4.002 -13.259,7.607c-1.026,1.026 -5.224,3.952 -4.016,5.165c0.005,0.004 0.009,0.009 0.018,0.013c-0.661,-0.355 -1.34,-0.583 -2.046,-0.56c-5.146,0.173 -11.532,0.392 -16.017,3.227c-2.845,1.796 -2.074,4.512 -2.453,7.498c-0.428,3.355 -1.481,6.906 -3.892,9.39c-2.881,2.972 -2.421,3.459 -2.421,8.282c5.101,-0.565 10.211,-1.135 15.325,-1.696c0.601,-0.082 4.353,-0.1 4.353,-0.77c-0,-1.267 -0.716,-5.561 0.155,-6.432c1.932,-1.932 3.888,-3.888 5.834,-5.834c1.181,-1.181 3.327,2.188 4.294,3.159c1.777,1.773 3.514,2.151 1.627,4.02c-1.782,1.796 -3.574,3.587 -5.356,5.369c0.793,0 6.55,0.215 6.564,-0.15c0.232,-4.895 3.195,-9.608 6.554,-12.968c3.629,-3.628 8.602,-3.669 12.512,-0.533c1.582,1.276 0.611,5.374 0.611,7.092c0,1.153 -0.319,13.118 0.283,13.118c2.885,0 5.401,0.666 7.612,-1.207c7.598,-6.395 17.539,-4.864 24.905,-11.911c2.184,4.372 4.376,8.743 6.559,13.118c-5.21,1.742 -10.424,3.474 -15.634,5.21c-0.41,0.133 -3.929,1.578 -4.111,1.227c-1.19,-2.339 -2.457,-4.736 -4.075,-6.815c-2.152,-2.767 -2.69,-0.364 -2.266,2.179c0.689,4.203 3.355,8.136 6.25,11.172c3.035,3.181 4.735,9.312 6.714,13.273c-0.411,-8.063 11.326,4.763 13.122,6.555c2.772,-2.772 5.561,-5.561 8.328,-8.324c1.386,-1.385 2.753,-2.753 4.125,-4.125c1.112,-1.116 -0.128,-1.435 -0.984,-2.639c-4.632,-6.472 7.261,-4.59 10.875,-4.59c6.828,0 12.02,1.782 17.011,6.559c-6.34,-0.328 0.182,6.724 1.641,8.191Z" style="fill:#2479fc;fill-rule:nonzero;"/><path id="path58" d="M217.795,175.678c-1.45,1.458 -2.917,2.912 -4.367,4.375c-1.495,0.547 -3.965,0.652 -4.056,2.375c-0.11,2.129 -0.206,4.244 -0.32,6.372c2.858,-1.426 5.716,-2.857 8.57,-4.28c0.911,-0.46 0.173,-7.575 0.173,-8.842Z" style="fill:#2479fc;fill-rule:nonzero;"/><path id="path60" d="M230.804,169.119c1.627,-0 4.485,0.911 4.485,-1.026l-0,-0.123c0.314,0.624 0.88,1.016 1.759,1.098c-0.524,2.207 -1.098,4.413 -1.759,6.614c1.996,-1.996 3.984,-3.988 5.985,-5.989c1.34,-1.34 0.569,-4.695 0.569,-6.473l0,-13.779c-0.123,0.251 -0.341,0.657 -0.601,1.131c-0.082,-0.926 -0.123,-1.833 -0.219,-2.767c-0.255,1.536 -0.506,3.058 -0.761,4.585c-1.678,3.136 -4.089,7.9 -4.978,11.551l0,-14.495c-1.322,2.644 -11.459,19.673 -4.48,19.673Z" style="fill:#2479fc;fill-rule:nonzero;"/><path id="path62" d="M289.562,273.923c4.285,-0.716 8.228,-3.446 11.327,-6.404c-4.863,-1.618 -9.713,-3.241 -14.581,-4.859c-5.443,-1.814 -5.456,-2.402 -8.091,-7.685c-2.065,-4.143 -3.491,-7.061 -6.705,-10.274c-2.347,-2.347 -9.982,-7.567 -9.982,-11.008c-0,-5.237 1.016,-5.533 -3.888,-5.533l-48.59,-0c-3.965,4.02 -7.812,8.391 -10.725,13.245c-5.182,8.638 1.299,12.955 6.974,19.167c6.072,6.641 3.72,17.918 15.078,19.91c4.052,0.702 8.633,0.15 12.736,0.15c0.487,0 9.481,-1.267 8.614,-2.844c0.953,1.709 0.429,6.459 0.766,8.533c0.771,4.654 1.778,9.276 2.808,13.875c1.217,5.483 3.113,10.894 3.113,16.518c0,5.785 6.021,9.299 9.978,13.26c1.504,1.504 2.366,3.136 4.503,3.136l11.113,-0c1.841,-0 -1.595,-22.754 4.234,-25.63c1.664,-0.821 4.955,0.095 5.94,-1.805c0.679,-1.29 -0.064,-2.877 0.615,-4.162c1.632,-3.145 5.483,-0.073 5.857,-5.251c0.292,-4.202 -0.451,-12.876 -3.414,-16.204c-3.605,-4.047 -2.484,-5.328 2.32,-6.135Z" style="fill:#2479fc;fill-rule:nonzero;"/><path id="path64" d="M189.289,136.241c-3.337,-3.295 -6.933,-6.418 -10.789,-9.098c-5.21,-3.619 -9.135,-3.943 -15.37,-3.943c-2.981,0 -6.022,-0.205 -8.993,0.037c-1.281,0.105 -0.784,1.536 -1.154,2.484c-2.238,5.725 -11.541,12.603 -16.094,17.157c6.299,-0 9.813,13.068 12.202,17.845c1.435,2.867 0.92,5.848 0.92,9.052c0,4.69 -0.405,5.502 2.836,8.742c3.218,3.218 2.944,4.508 6.121,1.331c3.195,-3.195 6.386,-6.386 9.577,-9.576c2.096,-2.106 1.144,-5.516 1.144,-8.369c-0,-4.212 -1.495,-5.903 2.767,-5.903c3.272,0 6.344,0.292 8.979,-1.969c1.996,-1.723 3.551,-3.892 6.295,-4.435c3.044,-0.601 9.481,-1.691 8.195,-6.718c-0.519,-2.038 -5.078,-5.096 -6.636,-6.637Z" style="fill:#2479fc;fill-rule:nonzero;"/></g></g></g></svg>