<?xml version="1.0" encoding="UTF-8" standalone="no"?>
<!DOCTYPE svg PUBLIC "-//W3C//DTD SVG 1.1//EN" "http://www.w3.org/Graphics/SVG/1.1/DTD/svg11.dtd">
<svg width="100%" height="100%" viewBox="0 0 236 49" version="1.1" xmlns="http://www.w3.org/2000/svg"
     xml:space="preserve"
     style="fill-rule:evenodd;clip-rule:evenodd;stroke-linejoin:round;stroke-miterlimit:2;">
    <g id="Artboard2" transform="matrix(0.957461,0,0,0.612468,0,0)">
        <rect x="0" y="0" width="246" height="80" style="fill:none;"/>
        <g transform="matrix(0.874581,0,0,1.63274,-5.12561,-25.3093)">
            <g id="Artboard1">
                <g>
                    <g transform="matrix(0.592416,0,0,0.496076,145.75,19.8378)">
                        <path d="M32,29C34.28,28.914 36.11,27.015 36.11,24.733C36.11,22.391 34.182,20.463 31.84,20.463C29.502,20.463 27.577,22.382 27.57,24.72C27.585,27.074 29.526,29.002 31.88,29.002C31.92,29.002 31.96,29.001 32,29Z" style="fill:white;fill-rule:nonzero;"/>
                    </g>
                    <g transform="matrix(0.592416,0,0,0.496076,145.75,19.8378)">
                        <path d="M72.33,0L7.58,0C3.422,0 -0,3.422 0,7.58L0,72.33C0,76.488 3.422,79.91 7.58,79.91L72.33,79.91C76.488,79.91 79.91,76.488 79.91,72.33L79.91,7.58C79.91,3.422 76.488,0 72.33,0ZM19.16,22.4C20.045,22.275 20.941,22.255 21.83,22.34C22.654,22.476 23.456,21.957 23.67,21.15C24.1,20.22 23.67,19.75 23.13,19.2C22.454,18.617 21.825,17.982 21.25,17.3C20.842,16.885 20.614,16.326 20.614,15.744C20.614,15.064 20.926,14.421 21.46,14C21.873,13.585 22.435,13.351 23.02,13.351C23.605,13.351 24.167,13.585 24.58,14C25.27,14.57 25.909,15.199 26.49,15.88C26.909,16.558 27.809,16.774 28.49,16.36C29.245,16.166 29.745,15.434 29.65,14.66C29.605,13.897 29.605,13.133 29.65,12.37C29.643,12.299 29.639,12.228 29.639,12.157C29.639,10.966 30.619,9.987 31.809,9.987C31.89,9.987 31.97,9.991 32.05,10C32.071,9.999 32.093,9.999 32.114,9.999C33.326,9.999 34.324,10.997 34.324,12.209C34.324,12.253 34.323,12.296 34.32,12.34C34.365,13.103 34.365,13.867 34.32,14.63C34.19,15.397 34.669,16.146 35.42,16.35C36.1,16.754 36.991,16.545 37.42,15.88C37.888,15.359 38.382,14.861 38.9,14.39C40.19,13.18 41.69,13.04 42.6,14.13C43.033,14.573 43.276,15.168 43.276,15.788C43.276,16.537 42.921,17.243 42.32,17.69C41.82,18.18 41.32,18.69 40.82,19.17C40.134,19.579 39.894,20.471 40.28,21.17C40.482,21.986 41.293,22.511 42.12,22.36C43.013,22.31 43.907,22.31 44.8,22.36C44.863,22.354 44.927,22.352 44.991,22.352C46.198,22.352 47.191,23.345 47.191,24.552C47.191,24.625 47.187,24.697 47.18,24.77C47.181,24.796 47.181,24.821 47.181,24.847C47.181,26.032 46.206,27.007 45.021,27.007C44.964,27.007 44.907,27.005 44.85,27C43.96,27 43.07,27.05 42.17,27C42.099,26.992 42.028,26.987 41.956,26.987C40.969,26.987 40.156,27.8 40.156,28.787C40.156,29.355 40.425,29.891 40.88,30.23C41.505,30.777 42.09,31.368 42.63,32C43.044,32.421 43.276,32.988 43.276,33.578C43.276,34.226 42.997,34.843 42.51,35.27C42.092,35.717 41.507,35.971 40.895,35.971C40.332,35.971 39.79,35.756 39.38,35.37C38.699,34.794 38.057,34.173 37.46,33.51C36.91,32.93 36.46,32.51 35.46,32.94C34.647,33.163 34.132,33.98 34.28,34.81C34.355,35.765 34.355,36.725 34.28,37.68L34.28,37.681C34.28,38.882 33.291,39.871 32.09,39.871C32.017,39.871 31.943,39.867 31.87,39.86C31.837,39.862 31.803,39.862 31.77,39.862C30.591,39.862 29.62,38.892 29.62,37.712L29.62,37.71C29.555,36.754 29.555,35.796 29.62,34.84C29.732,34.02 29.224,33.234 28.43,33C28.206,32.868 27.95,32.798 27.69,32.798C27.172,32.798 26.692,33.074 26.43,33.52C25.829,34.179 25.195,34.806 24.53,35.4C23.792,36.06 22.708,36.173 21.85,35.68C21.108,35.29 20.64,34.518 20.64,33.68C20.64,32.16 21.87,31.5 22.69,30.56C23.27,29.89 24.14,29.5 23.69,28.2C23.24,26.9 22.21,27.07 21.24,27C20.539,27.032 19.837,27.009 19.14,26.93C18.007,26.785 17.172,25.77 17.25,24.63C17.196,23.505 18.04,22.52 19.16,22.4ZM30.47,50.8C30.96,51.19 31.47,51.6 31.92,52C32.19,52.22 32.32,52.49 32.08,52.79C31.84,53.09 31.55,52.99 31.28,52.79C31.01,52.59 30.65,52.27 30.28,51.95L30.28,54.17C30.28,54.52 30.19,54.8 29.8,54.81C29.41,54.82 29.29,54.53 29.28,54.19L29.28,52.11C28.96,52.305 28.662,52.533 28.39,52.79C28.13,53 27.86,53.07 27.62,52.79C27.542,52.699 27.499,52.583 27.499,52.464C27.499,52.285 27.595,52.119 27.75,52.03C28.18,51.67 28.61,51.3 29.05,50.95C29.267,50.817 29.345,50.536 29.23,50.31L28.38,51.02C28.12,51.22 27.84,51.28 27.61,51.02C27.38,50.76 27.5,50.48 27.75,50.27C28.15,49.93 28.54,49.58 28.96,49.27C29.252,49.083 29.368,48.708 29.23,48.39L28.5,49C28.25,49.23 27.98,49.29 27.74,49C27.5,48.71 27.59,48.47 27.84,48.24L29.41,46.78C29.514,46.653 29.671,46.579 29.835,46.579C29.999,46.579 30.156,46.653 30.26,46.78L31.86,48.27C32.004,48.359 32.091,48.517 32.091,48.686C32.091,48.82 32.037,48.948 31.94,49.04C31.7,49.3 31.42,49.22 31.18,48.99L30.32,48.21C30.172,48.531 30.289,48.916 30.59,49.1C31.06,49.45 31.49,49.84 31.93,50.21C32.19,50.42 32.31,50.68 32.1,50.96C31.89,51.24 31.57,51.2 31.3,50.96L30.3,50.16C30.245,50.233 30.215,50.322 30.215,50.414C30.215,50.582 30.316,50.734 30.47,50.8ZM8,58.62C7.542,58.907 7.116,59.242 6.73,59.62C6.36,59.92 5.98,60.01 5.65,59.62C5.32,59.23 5.46,58.85 5.82,58.54C6.43,58 7,57.48 7.67,57C7.977,56.815 8.088,56.417 7.92,56.1L6.72,57.1C6.35,57.39 5.95,57.48 5.63,57.1C5.31,56.72 5.47,56.33 5.83,56.03C6.4,55.56 6.94,55.03 7.53,54.63C7.954,54.373 8.126,53.836 7.93,53.38L6.93,54.31C6.799,54.474 6.6,54.57 6.39,54.57C6.18,54.57 5.981,54.474 5.85,54.31C5.49,53.93 5.64,53.56 5.98,53.24C6.73,52.55 7.48,51.86 8.21,51.16C8.356,50.978 8.577,50.873 8.81,50.873C9.043,50.873 9.264,50.978 9.41,51.16L11.69,53.28C11.89,53.406 12.011,53.627 12.011,53.863C12.011,54.051 11.935,54.23 11.8,54.36C11.45,54.73 11.07,54.62 10.72,54.3C10.37,53.98 9.93,53.58 9.5,53.19C9.296,53.646 9.464,54.189 9.89,54.45C10.55,54.94 11.15,55.45 11.79,56.02C12.16,56.32 12.32,56.69 12.02,57.09C11.72,57.49 11.27,57.43 10.89,57.09L9.51,55.92C9.443,56.019 9.408,56.136 9.408,56.255C9.408,56.466 9.519,56.662 9.7,56.77C10.4,57.32 11.06,57.9 11.75,58.47C12.13,58.78 12.32,59.16 11.98,59.58C11.64,60 11.22,59.87 10.84,59.58C10.46,59.29 9.96,58.85 9.41,58.4L9.41,61.55C9.41,62.05 9.28,62.44 8.73,62.45C8.18,62.46 8,62 8,61.54L8,58.62ZM25.88,59.08C25.34,58.42 24.8,57.74 24.26,57.08L24.09,57.16C24.25,58.16 24.39,59.1 24.59,60.06C24.757,60.687 24.522,61.356 24,61.74C23.08,62.56 22.21,63.45 21.28,64.26C20.843,64.547 20.677,65.113 20.89,65.59C21.073,66.102 21.217,66.627 21.32,67.16C21.351,67.265 21.367,67.374 21.367,67.483C21.367,68.001 21.012,68.455 20.51,68.58C20.372,68.638 20.225,68.668 20.076,68.668C19.579,68.668 19.139,68.337 19,67.86C18.66,66.86 18.39,65.78 18.14,64.73C18.012,64.219 18.202,63.679 18.62,63.36C19.62,62.47 20.55,61.54 21.54,60.65C21.899,60.375 22.058,59.907 21.94,59.47C21.73,58.41 21.56,57.34 21.37,56.27C21.03,56.27 20.96,56.53 20.81,56.7L10.9,68.46C10.73,68.67 10.55,68.88 10.37,69.07C10.136,69.401 9.755,69.598 9.349,69.598C8.664,69.598 8.099,69.034 8.099,68.348C8.099,68.02 8.229,67.704 8.46,67.47C9.56,66.12 10.7,64.79 11.83,63.47L21.16,52.4C22.16,51.23 22.81,51.24 23.77,52.4C25.13,54.1 26.49,55.79 27.84,57.49C28.47,58.3 28.47,59.08 27.84,59.55C27.21,60.02 26.5,59.84 25.88,59.08ZM52.88,65.55C52.314,65.828 51.62,65.628 51.29,65.09L47.29,60.09L46.37,58.95C45.69,60.11 45.1,61.16 44.47,62.19C44.281,62.678 43.809,63.001 43.286,63.001C42.842,63.001 42.43,62.769 42.2,62.39C41.34,61.41 40.5,60.41 39.68,59.39C39.41,59.07 39.2,58.97 38.9,59.32L38.83,59.38C36.54,61.38 36.83,61.15 34.44,59.54C33.75,59.07 33.44,59.16 32.97,59.79C31.67,61.53 30.29,63.21 28.97,64.91C28.3,65.75 27.61,65.91 26.97,65.41C26.33,64.91 26.37,64.15 27.02,63.33C30.853,58.443 34.707,53.543 38.58,48.63C39.69,47.22 40.3,47.21 41.39,48.63L53,63.28C53.282,63.547 53.471,63.898 53.54,64.28C53.623,64.814 53.329,65.341 52.83,65.55L52.88,65.55ZM71.41,69.34C70.81,69.83 70.11,69.68 69.41,68.92C66.077,64.92 62.713,60.92 59.32,56.92C59.13,56.7 59.02,56.39 58.61,56.33C58.41,57.46 58.22,58.57 58.01,59.69C57.96,60.02 58.104,60.352 58.38,60.54C59.38,61.41 60.26,62.33 61.24,63.18C61.828,63.639 62.048,64.434 61.78,65.13C61.53,65.96 61.33,66.82 61.08,67.65C60.969,68.215 60.469,68.626 59.893,68.626C59.748,68.626 59.605,68.6 59.47,68.55C58.96,68.414 58.602,67.948 58.602,67.42C58.602,67.276 58.629,67.134 58.68,67C58.676,66.97 58.676,66.94 58.68,66.91C59.54,65.3 58.78,64.29 57.56,63.21C54.7,60.63 55.2,61.69 55.78,58C55.848,57.667 55.827,57.322 55.72,57L54,59.08C53.39,59.84 52.65,60.02 52.05,59.58C51.45,59.14 51.42,58.32 52.05,57.51C53.43,55.763 54.823,54.02 56.23,52.28C57.05,51.28 57.75,51.28 58.6,52.28C62.867,57.3 67.123,62.323 71.37,67.35C71.661,67.597 71.828,67.959 71.828,68.341C71.828,68.727 71.657,69.093 71.36,69.34L71.41,69.34ZM69.28,44.63C70.52,45.63 71.7,46.63 72.93,47.63C73.62,48.19 73.93,48.87 73.33,49.63C72.73,50.39 71.99,50.16 71.33,49.63C70.67,49.1 69.75,48.33 68.77,47.52L68.77,53.14C68.77,54.03 68.53,54.73 67.55,54.75C66.57,54.77 66.26,54.05 66.26,53.18L66.26,47.97C65.452,48.46 64.695,49.03 64,49.67C63.35,50.2 62.66,50.37 62.07,49.67C61.868,49.442 61.756,49.147 61.756,48.842C61.756,48.396 61.994,47.983 62.38,47.76C63.47,46.84 64.56,45.91 65.67,45.02C66.217,44.692 66.416,43.985 66.12,43.42C65.39,44.03 64.69,44.62 63.98,45.19C63.27,45.76 62.61,45.86 62.05,45.13C61.49,44.4 61.75,43.76 62.4,43.22C63.4,42.38 64.4,41.49 65.4,40.72C66.145,40.255 66.44,39.305 66.09,38.5L64.3,40.14C63.67,40.72 62.99,40.87 62.37,40.14C61.75,39.41 62,38.8 62.61,38.23C63.94,36.99 65.27,35.77 66.61,34.52C66.87,34.199 67.262,34.012 67.675,34.012C68.088,34.012 68.48,34.199 68.74,34.52C70.1,35.79 71.46,37.04 72.81,38.31C73.43,38.89 73.64,39.57 73.01,40.23C72.38,40.89 71.7,40.7 71.08,40.12C70.46,39.54 69.67,38.84 68.9,38.12C68.533,38.938 68.835,39.912 69.6,40.38C70.77,41.26 71.85,42.25 72.99,43.18C73.64,43.71 73.99,44.37 73.4,45.08C72.81,45.79 72.06,45.68 71.4,45.08L68.97,43.08C68.832,43.264 68.758,43.487 68.758,43.716C68.758,44.092 68.957,44.44 69.28,44.63Z" style="fill:white;fill-rule:nonzero;"/>
                    </g>
                    <g transform="matrix(0.592416,0,0,0.496076,145.75,19.8378)">
                        <path d="M40.58,51.58C40.15,51.01 39.92,50.91 39.44,51.58C38.29,53.13 37.06,54.58 35.87,56.13C35.09,57.13 35.11,57.13 36.13,57.74C36.238,57.831 36.375,57.881 36.517,57.881C36.702,57.881 36.876,57.796 36.99,57.65C37.37,57.3 37.77,56.98 38.16,56.65C39.31,55.65 39.77,55.71 40.77,56.88C41.52,57.74 42.26,58.61 43.06,59.55C43.5,58.8 43.85,58.11 44.29,57.47C44.614,57.11 44.587,56.548 44.23,56.22C42.983,54.693 41.767,53.147 40.58,51.58Z" style="fill:white;fill-rule:nonzero;"/>
                    </g>
                    <g transform="matrix(5.08826,0,0,4.2608,-269.223,-60.1511)">
                        <path d="M94.542,19.348L94.542,22.071L94.064,22.071L94.064,19.348L93.334,19.348L93.334,18.898L95.27,18.898L95.27,19.348L94.542,19.348Z" style="fill:white;fill-rule:nonzero;"/>
                    </g>
                    <g transform="matrix(5.08826,0,0,4.2608,-269.223,-60.1511)">
                        <path d="M96.982,20.719L97.964,22.071L97.379,22.071L96.473,20.772L96.386,20.772L96.386,22.071L95.908,22.071L95.908,18.898L96.469,18.898C96.888,18.898 97.19,18.977 97.377,19.135C97.582,19.31 97.685,19.541 97.685,19.829C97.685,20.054 97.621,20.247 97.492,20.408C97.363,20.57 97.193,20.674 96.982,20.719ZM96.386,20.355L96.538,20.355C96.992,20.355 97.219,20.182 97.219,19.835C97.219,19.511 96.998,19.348 96.557,19.348L96.386,19.348L96.386,20.355Z" style="fill:white;fill-rule:nonzero;"/>
                    </g>
                    <g transform="matrix(5.08826,0,0,4.2608,-269.223,-60.1511)">
                        <path d="M100.515,21.3L99.157,21.3L98.804,22.071L98.288,22.071L99.858,18.699L101.372,22.071L100.848,22.071L100.515,21.3ZM100.32,20.85L99.85,19.772L99.356,20.85L100.32,20.85Z" style="fill:white;fill-rule:nonzero;"/>
                    </g>
                    <g transform="matrix(5.08826,0,0,4.2608,-269.223,-60.1511)">
                        <path d="M101.891,18.898L102.768,21.097L103.658,18.898L104.182,18.898L102.758,22.309L101.367,18.898L101.891,18.898Z" style="fill:white;fill-rule:nonzero;"/>
                    </g>
                    <g transform="matrix(5.08826,0,0,4.2608,-269.223,-60.1511)">
                        <path d="M106.537,19.348L105.266,19.348L105.266,20.111L106.5,20.111L106.5,20.561L105.266,20.561L105.266,21.621L106.537,21.621L106.537,22.071L104.787,22.071L104.787,18.898L106.537,18.898L106.537,19.348Z" style="fill:white;fill-rule:nonzero;"/>
                    </g>
                    <g transform="matrix(5.08826,0,0,4.2608,-269.223,-60.1511)">
                        <path d="M107.855,18.898L107.855,21.621L108.788,21.621L108.788,22.071L107.377,22.071L107.377,18.898L107.855,18.898Z" style="fill:white;fill-rule:nonzero;"/>
                    </g>
                    <g transform="matrix(2.36685,0,0,1.98195,-15.7472,-8.72694)">
                        <path d="M93.556,26.404L94.224,22.993L95.313,25.459L96.441,22.993L97.041,26.404L96.55,26.404L96.244,24.489L95.305,26.55L94.392,24.487L94.051,26.404L93.556,26.404Z" style="fill:white;fill-rule:nonzero;"/>
                    </g>
                    <g transform="matrix(2.36685,0,0,1.98195,-15.7472,-8.72694)">
                        <path d="M99.787,25.634L98.429,25.634L98.075,26.404L97.56,26.404L99.13,23.032L100.644,26.404L100.12,26.404L99.787,25.634ZM99.592,25.184L99.121,24.105L98.628,25.184L99.592,25.184Z" style="fill:white;fill-rule:nonzero;"/>
                    </g>
                    <g transform="matrix(2.36685,0,0,1.98195,-15.7472,-8.72694)">
                        <path d="M101.251,26.404L101.251,23.016L103.565,25.437L103.565,23.232L104.043,23.232L104.043,26.598L101.73,24.183L101.73,26.404L101.251,26.404Z" style="fill:white;fill-rule:nonzero;"/>
                    </g>
                    <g transform="matrix(2.36685,0,0,1.98195,-15.7472,-8.72694)">
                        <path d="M106.902,25.634L105.544,25.634L105.191,26.404L104.675,26.404L106.245,23.032L107.759,26.404L107.235,26.404L106.902,25.634ZM106.707,25.184L106.237,24.105L105.743,25.184L106.707,25.184Z" style="fill:white;fill-rule:nonzero;"/>
                    </g>
                    <g transform="matrix(2.36685,0,0,1.98195,-15.7472,-8.72694)">
                        <path d="M109.854,24.752L111.165,24.752L111.165,24.857C111.165,25.095 111.137,25.306 111.081,25.49C111.026,25.66 110.933,25.819 110.803,25.967C110.509,26.298 110.134,26.464 109.679,26.464C109.235,26.464 108.855,26.304 108.539,25.983C108.222,25.661 108.064,25.275 108.064,24.824C108.064,24.364 108.225,23.974 108.547,23.653C108.869,23.331 109.261,23.17 109.722,23.17C109.97,23.17 110.202,23.221 110.417,23.322C110.622,23.424 110.824,23.588 111.023,23.815L110.682,24.142C110.422,23.795 110.105,23.622 109.731,23.622C109.395,23.622 109.113,23.738 108.886,23.969C108.659,24.197 108.545,24.482 108.545,24.824C108.545,25.178 108.672,25.469 108.925,25.698C109.162,25.91 109.419,26.016 109.696,26.016C109.931,26.016 110.143,25.937 110.331,25.778C110.518,25.617 110.623,25.426 110.645,25.202L109.854,25.202L109.854,24.752Z" style="fill:white;fill-rule:nonzero;"/>
                    </g>
                    <g transform="matrix(2.36685,0,0,1.98195,-15.7472,-8.72694)">
                        <path d="M113.728,23.682L112.456,23.682L112.456,24.444L113.691,24.444L113.691,24.894L112.456,24.894L112.456,25.954L113.728,25.954L113.728,26.404L111.977,26.404L111.977,23.232L113.728,23.232L113.728,23.682Z" style="fill:white;fill-rule:nonzero;"/>
                    </g>
                    <g transform="matrix(2.36685,0,0,1.98195,-15.7472,-8.72694)">
                        <path d="M114.456,26.404L115.124,22.993L116.213,25.459L117.341,22.993L117.941,26.404L117.45,26.404L117.144,24.489L116.205,26.55L115.293,24.487L114.951,26.404L114.456,26.404Z" style="fill:white;fill-rule:nonzero;"/>
                    </g>
                    <g transform="matrix(2.36685,0,0,1.98195,-15.7472,-8.72694)">
                        <path d="M120.574,23.682L119.302,23.682L119.302,24.444L120.537,24.444L120.537,24.894L119.302,24.894L119.302,25.954L120.574,25.954L120.574,26.404L118.823,26.404L118.823,23.232L120.574,23.232L120.574,23.682Z" style="fill:white;fill-rule:nonzero;"/>
                    </g>
                    <g transform="matrix(2.36685,0,0,1.98195,-15.7472,-8.72694)">
                        <path d="M121.413,26.404L121.413,23.016L123.727,25.437L123.727,23.232L124.206,23.232L124.206,26.598L121.892,24.183L121.892,26.404L121.413,26.404Z" style="fill:white;fill-rule:nonzero;"/>
                    </g>
                    <g transform="matrix(2.36685,0,0,1.98195,-15.7472,-8.72694)">
                        <path d="M126.052,23.682L126.052,26.404L125.573,26.404L125.573,23.682L124.844,23.682L124.844,23.232L126.779,23.232L126.779,23.682L126.052,23.682Z" style="fill:white;fill-rule:nonzero;"/>
                    </g>
                    <g transform="matrix(4.80644,0,0,4.0248,-243.758,-63.8224)">
                        <path d="M95.461,28.038L95.073,28.268C95,28.142 94.931,28.06 94.865,28.022C94.796,27.978 94.708,27.956 94.6,27.956C94.467,27.956 94.357,27.993 94.269,28.069C94.181,28.143 94.138,28.236 94.138,28.348C94.138,28.503 94.253,28.628 94.483,28.722L94.799,28.852C95.057,28.956 95.245,29.083 95.364,29.233C95.483,29.383 95.543,29.567 95.543,29.785C95.543,30.076 95.446,30.317 95.251,30.508C95.055,30.7 94.812,30.795 94.522,30.795C94.246,30.795 94.019,30.714 93.84,30.551C93.663,30.388 93.553,30.158 93.509,29.863L93.994,29.756C94.016,29.942 94.054,30.071 94.109,30.142C94.207,30.279 94.351,30.348 94.54,30.348C94.69,30.348 94.814,30.298 94.912,30.198C95.011,30.098 95.06,29.971 95.06,29.817C95.06,29.756 95.052,29.699 95.035,29.648C95.017,29.597 94.991,29.549 94.954,29.506C94.918,29.463 94.871,29.423 94.814,29.385C94.756,29.347 94.688,29.311 94.608,29.277L94.302,29.15C93.868,28.966 93.651,28.698 93.651,28.344C93.651,28.106 93.742,27.906 93.924,27.746C94.106,27.585 94.333,27.504 94.604,27.504C94.97,27.504 95.255,27.682 95.461,28.038Z" style="fill:white;fill-rule:nonzero;"/>
                    </g>
                    <g transform="matrix(4.80644,0,0,4.0248,-243.758,-63.8224)">
                        <path d="M96.943,29.367L95.908,27.565L96.458,27.565L97.184,28.833L97.911,27.565L98.462,27.565L97.422,29.367L97.422,30.738L96.943,30.738L96.943,29.367Z" style="fill:white;fill-rule:nonzero;"/>
                    </g>
                    <g transform="matrix(4.80644,0,0,4.0248,-243.758,-63.8224)">
                        <path d="M100.735,28.038L100.347,28.268C100.274,28.142 100.205,28.06 100.139,28.022C100.071,27.978 99.982,27.956 99.874,27.956C99.741,27.956 99.631,27.993 99.543,28.069C99.456,28.143 99.412,28.236 99.412,28.348C99.412,28.503 99.527,28.628 99.757,28.722L100.073,28.852C100.331,28.956 100.519,29.083 100.639,29.233C100.758,29.383 100.817,29.567 100.817,29.785C100.817,30.076 100.72,30.317 100.526,30.508C100.33,30.7 100.086,30.795 99.796,30.795C99.521,30.795 99.293,30.714 99.114,30.551C98.937,30.388 98.827,30.158 98.783,29.863L99.268,29.756C99.29,29.942 99.328,30.071 99.383,30.142C99.482,30.279 99.626,30.348 99.815,30.348C99.964,30.348 100.088,30.298 100.186,30.198C100.285,30.098 100.334,29.971 100.334,29.817C100.334,29.756 100.326,29.699 100.309,29.648C100.292,29.597 100.265,29.549 100.229,29.506C100.192,29.463 100.145,29.423 100.088,29.385C100.03,29.347 99.962,29.311 99.882,29.277L99.576,29.15C99.142,28.966 98.925,28.698 98.925,28.344C98.925,28.106 99.016,27.906 99.198,27.746C99.38,27.585 99.607,27.504 99.878,27.504C100.244,27.504 100.53,27.682 100.735,28.038Z" style="fill:white;fill-rule:nonzero;"/>
                    </g>
                    <g transform="matrix(4.80644,0,0,4.0248,-243.758,-63.8224)">
                        <path d="M102.54,28.015L102.54,30.738L102.061,30.738L102.061,28.015L101.332,28.015L101.332,27.565L103.267,27.565L103.267,28.015L102.54,28.015Z" style="fill:white;fill-rule:nonzero;"/>
                    </g>
                    <g transform="matrix(4.80644,0,0,4.0248,-243.758,-63.8224)">
                        <path d="M105.656,28.015L104.384,28.015L104.384,28.778L105.619,28.778L105.619,29.228L104.384,29.228L104.384,30.288L105.656,30.288L105.656,30.738L103.905,30.738L103.905,27.565L105.656,27.565L105.656,28.015Z" style="fill:white;fill-rule:nonzero;"/>
                    </g>
                    <g transform="matrix(4.80644,0,0,4.0248,-243.758,-63.8224)">
                        <path d="M106.384,30.738L107.052,27.327L108.141,29.793L109.269,27.327L109.869,30.738L109.378,30.738L109.072,28.823L108.133,30.884L107.22,28.821L106.879,30.738L106.384,30.738Z" style="fill:white;fill-rule:nonzero;"/>
                    </g>
                    <g transform="matrix(1.19421,0,0,1,0.746378,2.58208e-05)">
                        <path d="M24.161,27.7L31.952,27.7C32.643,27.7 33.202,27.141 33.202,26.45L33.202,20.857C33.202,20.166 32.643,19.607 31.952,19.607L7.892,19.607C7.202,19.607 6.642,20.166 6.642,20.857L6.642,26.45C6.642,27.141 7.202,27.7 7.892,27.7L15.71,27.7L15.71,60.293C15.71,60.983 16.269,61.543 16.96,61.543L22.911,61.543C23.601,61.543 24.161,60.983 24.161,60.293L24.161,27.7Z" style="fill:white;fill-rule:nonzero;"/>
                    </g>
                    <g transform="matrix(1.19421,0,0,1,0.746378,2.58208e-05)">
                        <path d="M34.659,60.052C34.587,60.419 34.683,60.799 34.921,61.087C35.158,61.376 35.512,61.543 35.886,61.543L42.041,61.543C42.647,61.543 43.166,61.108 43.272,60.512L46.794,40.714L56.478,62.612C56.678,63.062 57.122,63.353 57.615,63.356C58.107,63.359 58.555,63.072 58.759,62.624L68.714,40.776L71.865,60.49C71.962,61.096 72.486,61.543 73.1,61.543L79.204,61.543C79.574,61.543 79.924,61.379 80.161,61.096C80.399,60.813 80.499,60.44 80.435,60.076L72.977,17.677C72.882,17.138 72.448,16.724 71.905,16.654C71.362,16.584 70.837,16.876 70.609,17.374L57.744,45.495L45.33,17.389C45.11,16.889 44.591,16.591 44.048,16.652C43.505,16.712 43.065,17.118 42.96,17.654L34.659,60.052Z" style="fill:white;fill-rule:nonzero;"/>
                    </g>
                    <g transform="matrix(1.19421,0,0,1,0.746378,2.58208e-05)">
                        <path d="M110.491,27.807C111.08,27.458 111.279,26.7 110.937,26.107C108.128,21.239 104.202,18.84 99.203,18.84C95.499,18.84 92.409,19.961 89.921,22.168C87.372,24.411 86.102,27.202 86.102,30.537C86.102,35.399 88.987,39.175 94.962,41.7L98.766,43.283C99.677,43.676 100.463,44.087 101.124,44.519C101.726,44.914 102.221,45.333 102.601,45.785C102.948,46.197 103.205,46.648 103.368,47.138C103.541,47.657 103.623,48.228 103.623,48.85C103.623,50.4 103.141,51.687 102.144,52.697C101.156,53.7 99.908,54.19 98.411,54.19C96.512,54.19 95.053,53.532 94.062,52.155C94.054,52.145 94.046,52.134 94.038,52.124C93.447,51.355 93.095,49.948 92.859,47.938C92.817,47.587 92.63,47.27 92.342,47.065C92.054,46.861 91.693,46.787 91.348,46.863L85.32,48.191C84.679,48.333 84.257,48.946 84.353,49.595C84.946,53.595 86.465,56.683 88.854,58.887C88.856,58.889 88.859,58.891 88.861,58.894C91.315,61.123 94.417,62.258 98.181,62.258C102.141,62.258 105.452,60.94 108.123,58.325C110.783,55.722 112.125,52.431 112.125,48.441C112.125,45.425 111.283,42.883 109.632,40.806C108.04,38.802 105.541,37.079 102.102,35.688L98.171,34.08C95.93,33.16 94.655,32.095 94.655,30.588C94.655,29.575 95.055,28.737 95.846,28.07C95.849,28.067 95.852,28.065 95.854,28.062C96.726,27.313 97.83,26.96 99.152,26.96C100.219,26.96 101.097,27.147 101.773,27.58C101.787,27.589 101.802,27.598 101.817,27.607C102.504,28.007 103.185,28.9 103.943,30.216C104.11,30.505 104.386,30.716 104.709,30.801C105.032,30.886 105.376,30.838 105.664,30.667L110.491,27.807Z" style="fill:white;fill-rule:nonzero;"/>
                    </g>
                </g>
            </g>
        </g>
    </g>
</svg>
