<svg xmlns="http://www.w3.org/2000/svg" viewBox="0 0 189 57.72"><defs><style>.cls-1{fill:#1a1a1a;}.cls-2{fill:#ffb600;}.cls-3{fill:#333;}</style></defs><g id="Layer_2" data-name="Layer 2"><g id="Layer_1-2" data-name="Layer 1"><rect class="cls-1" width="54" height="54" rx="7.59"/><path class="cls-2" d="M48.32,10.36V39.72A33.41,33.41,0,0,1,48,44.45a20.93,20.93,0,0,1-.86,3.69,11.54,11.54,0,0,1-2.3,3.77,15.63,15.63,0,0,1-3.78,3,20,20,0,0,1-5,2,23.71,23.71,0,0,1-6.05.74,23.61,23.61,0,0,1-6.76-.92,18.8,18.8,0,0,1-5.37-2.55,15,15,0,0,1-3.78-3.81,12.59,12.59,0,0,1-2-4.76H24.67q1.17,3.14,5.28,3.13a7.09,7.09,0,0,0,5.38-2,7.67,7.67,0,0,0,1.87-5.47v-3a18.14,18.14,0,0,1-2.37,1.93,12.11,12.11,0,0,1-2.3,1.26,10.71,10.71,0,0,1-2.46.71,17.6,17.6,0,0,1-2.82.21A16.31,16.31,0,0,1,21,41.32a14.67,14.67,0,0,1-4.88-3.26,14.48,14.48,0,0,1-3.19-5,17.71,17.71,0,0,1-1.14-6.48,18.1,18.1,0,0,1,1.23-6.73,17.25,17.25,0,0,1,3.35-5.41,15.45,15.45,0,0,1,5-3.62A15.28,15.28,0,0,1,27.8,9.5a12.2,12.2,0,0,1,9.4,4.18V10.36ZM23.38,26a7.32,7.32,0,0,0,.55,2.86,7.24,7.24,0,0,0,1.51,2.3,6.66,6.66,0,0,0,2.27,1.54,7.46,7.46,0,0,0,2.85.55,7.32,7.32,0,0,0,2.8-.55,6.66,6.66,0,0,0,2.27-1.54,7.67,7.67,0,0,0,1.54-2.3,6.82,6.82,0,0,0,.58-2.8,6.74,6.74,0,0,0-.58-2.82,7.67,7.67,0,0,0-1.57-2.28,7.12,7.12,0,0,0-2.3-1.53,7,7,0,0,0-2.74-.55,6.6,6.6,0,0,0-2.76.58A8,8,0,0,0,25.53,21,7.29,7.29,0,0,0,24,23.2,6.6,6.6,0,0,0,23.38,26Z"/><path class="cls-1" d="M87.62,9.62H83.81a5.49,5.49,0,0,1,2,4.3,6.1,6.1,0,0,1-.57,2.58,6.32,6.32,0,0,1-1.67,2.21,8.9,8.9,0,0,1-2.71,1.57,12.71,12.71,0,0,1-3.69.74c-1.79.07-2.68.55-2.68,1.43a.85.85,0,0,0,.35.75,2.47,2.47,0,0,0,1.08.35q.73.12,2.49.27a25.09,25.09,0,0,1,3.7.6,7.29,7.29,0,0,1,3.19,1.8,5.07,5.07,0,0,1,1.47,3.91,6,6,0,0,1-1.1,3.6,7.13,7.13,0,0,1-3.56,2.44,20,20,0,0,1-6.5.87q-5.82,0-8.55-1.56a4.69,4.69,0,0,1-2.73-4.17,4.79,4.79,0,0,1,.35-1.63,4.29,4.29,0,0,1,1.5-1.77,7.17,7.17,0,0,1,3.33-1.16,2.68,2.68,0,0,1-1.33-1.08A2.88,2.88,0,0,1,67.64,24a3.88,3.88,0,0,1,.78-2.24A3.74,3.74,0,0,1,71,20.31a9.1,9.1,0,0,1-4.21-2.41A6.22,6.22,0,0,1,65,13.3a8.1,8.1,0,0,1,.83-3.75,6.9,6.9,0,0,1,2.27-2.61,10.27,10.27,0,0,1,3.38-1.48A17,17,0,0,1,75.66,5h12Zm-7,21.2A1.8,1.8,0,0,0,79.11,29,11.85,11.85,0,0,0,76,28.55a9.51,9.51,0,0,0-3.86.57,1.87,1.87,0,0,0-1.19,1.8q0,2.44,4.92,2.44a8.16,8.16,0,0,0,3.51-.63A2,2,0,0,0,80.64,30.82ZM79.1,13.3A3.37,3.37,0,0,0,78,10.65a3.71,3.71,0,0,0-2.51-1,3.48,3.48,0,0,0-2.8,1.2,3.88,3.88,0,0,0-1,2.52,3.47,3.47,0,0,0,1.68,3,3.64,3.64,0,0,0,1.91.48A3.83,3.83,0,0,0,78,15.8,3.34,3.34,0,0,0,79.1,13.3Z"/><path class="cls-1" d="M114.34,5,99.53,36.66H91.75l6-12.75L89.11,5h8.28l4.43,10.83,5-10.83Z"/><path class="cls-1" d="M140.46,15.71a14.51,14.51,0,0,1-.62,4.22,11.45,11.45,0,0,1-1.9,3.67,9,9,0,0,1-3.27,2.59,10.75,10.75,0,0,1-4.65.95,10.11,10.11,0,0,1-3.37-.45,13.51,13.51,0,0,1-2.45-1.2V36.66h-7.7V5h7.7v2a11.33,11.33,0,0,1,2.56-1.68,8.85,8.85,0,0,1,3.79-.67,10,10,0,0,1,4.67,1.18A9.29,9.29,0,0,1,139,9.43,12.14,12.14,0,0,1,140.46,15.71Zm-8.11.17a7.13,7.13,0,0,0-.62-3.19,4,4,0,0,0-1.6-1.78,4.22,4.22,0,0,0-2-.55,5,5,0,0,0-2.24.44,7.83,7.83,0,0,0-1.65,1.11v8.32l.87.48a7.18,7.18,0,0,0,.92.46,6.62,6.62,0,0,0,1,.32,5,5,0,0,0,1.12.13,3.74,3.74,0,0,0,3-1.54A6.62,6.62,0,0,0,132.35,15.88Z"/><path class="cls-1" d="M161.49,20.4a6.1,6.1,0,0,1-2.19,4.87c-1.47,1.24-3.64,1.87-6.52,1.87a19.22,19.22,0,0,1-4.3-.44,36.26,36.26,0,0,1-4.11-1.25V20a28.54,28.54,0,0,0,3.38,1.69,8.29,8.29,0,0,0,3.15.58c1.92,0,2.89-.53,2.89-1.58a1.32,1.32,0,0,0-.42-1,6.23,6.23,0,0,0-1.45-.94c-.7-.35-1.62-.76-2.78-1.25A11.24,11.24,0,0,1,145.51,15a5.44,5.44,0,0,1-1.5-3.88A5.59,5.59,0,0,1,145,8a7.26,7.26,0,0,1,3-2.45,11.35,11.35,0,0,1,4.86-1q.67,0,1.74.09a18.91,18.91,0,0,1,2.67.51,14.15,14.15,0,0,1,3.07,1.15v5.33L159.21,11a11.34,11.34,0,0,0-1.23-.63,11.62,11.62,0,0,0-1.81-.6A8.4,8.4,0,0,0,154,9.49a2.48,2.48,0,0,0-1.81.51,1.52,1.52,0,0,0-.5,1,1.31,1.31,0,0,0,.52,1,8.38,8.38,0,0,0,2.29,1.15,20.3,20.3,0,0,1,4.1,2,6.48,6.48,0,0,1,2.2,2.28A6.24,6.24,0,0,1,161.49,20.4Z"/><path class="cls-1" d="M189,5,174.2,36.66h-7.79l6-12.75L163.78,5h8.28l4.42,10.83,5-10.83Z"/><path class="cls-3" d="M66.43,43.19V45h1.51v.47H66.43v3.2a2.73,2.73,0,0,0,.12,1c.09.16.31.24.68.24a2.51,2.51,0,0,0,1-.26v.55a2.59,2.59,0,0,1-1.12.27,1.35,1.35,0,0,1-.89-.3,1,1,0,0,1-.36-.84V45.45H64.4V45h1.45V43.7l.4-.51Z"/><path class="cls-3" d="M72.73,45.51l-.34.54a1.88,1.88,0,0,0-1.08-.61c-.54,0-1.12.51-1.73,1.54v3.39H69V45h.57V46.4h0q1-1.53,1.89-1.53A2.07,2.07,0,0,1,72.73,45.51Z"/><path class="cls-3" d="M77.6,49.43v.48a2.23,2.23,0,0,1-1.09.56.29.29,0,0,1-.28-.13,1.36,1.36,0,0,1-.11-.53,2.76,2.76,0,0,1-1.69.66,1.47,1.47,0,0,1-1-.39,1.3,1.3,0,0,1-.42-1,1.57,1.57,0,0,1,.81-1.39,5,5,0,0,1,2.33-.58v-.68q0-1.11-1.2-1.11a2.75,2.75,0,0,0-1.64.69v-.59A3.24,3.24,0,0,1,75,44.87a2,2,0,0,1,1.21.36,1.25,1.25,0,0,1,.47,1.05v3.36c0,.18,0,.27.13.27A2.16,2.16,0,0,0,77.6,49.43Zm-1.48-.13V47.62a3.28,3.28,0,0,0-1.84.39,1.28,1.28,0,0,0-.73,1.1.78.78,0,0,0,.31.63,1.13,1.13,0,0,0,.76.26A2.25,2.25,0,0,0,76.12,49.3Z"/><path class="cls-3" d="M82.49,45l-2.32,5.49h-.34L77.37,45H78l2,4.54,2-4.54Z"/><path class="cls-3" d="M87.65,47.47H83.4a2.83,2.83,0,0,0,0,.29A2.05,2.05,0,0,0,84,49.29a2.15,2.15,0,0,0,1.53.62,3.16,3.16,0,0,0,2-.8v.65a3.29,3.29,0,0,1-2.07.71,2.53,2.53,0,0,1-1.93-.8,2.88,2.88,0,0,1-.76-2.06,2.8,2.8,0,0,1,.7-2A2.39,2.39,0,0,1,87,45.57,2.6,2.6,0,0,1,87.65,47.47ZM83.47,47H87a1.66,1.66,0,0,0-1.71-1.57,1.71,1.71,0,0,0-1.15.41A2,2,0,0,0,83.47,47Z"/><path class="cls-3" d="M89.47,42.18v8.19h-.58V42.18Z"/><path class="cls-3" d="M94.94,45v1h0a2,2,0,0,1,1.72-1.06,1.78,1.78,0,0,1,1.74,1.3,2.19,2.19,0,0,1,1.88-1.3,1.7,1.7,0,0,1,1.35.6,2.37,2.37,0,0,1,.51,1.59v3.31h-.57V47.31a2.23,2.23,0,0,0-.37-1.37,1.19,1.19,0,0,0-1-.5,1.35,1.35,0,0,0-.86.29,3.43,3.43,0,0,0-.76,1v3.67H98V47.3a2.14,2.14,0,0,0-.39-1.38,1.24,1.24,0,0,0-1-.48,1.94,1.94,0,0,0-1.62,1.15v3.78h-.57V45Z"/><path class="cls-3" d="M108,49.43v.48a2.23,2.23,0,0,1-1.09.56.3.3,0,0,1-.28-.13,1.36,1.36,0,0,1-.11-.53,2.76,2.76,0,0,1-1.69.66,1.47,1.47,0,0,1-1-.39,1.3,1.3,0,0,1-.42-1,1.56,1.56,0,0,1,.82-1.39,4.94,4.94,0,0,1,2.32-.58v-.68c0-.74-.4-1.11-1.19-1.11a2.75,2.75,0,0,0-1.65.69v-.59a3.24,3.24,0,0,1,1.74-.58,2,2,0,0,1,1.21.36,1.25,1.25,0,0,1,.47,1.05v3.36c0,.18,0,.27.13.27A2.08,2.08,0,0,0,108,49.43Zm-1.48-.13V47.62a3.28,3.28,0,0,0-1.84.39,1.28,1.28,0,0,0-.73,1.1.81.81,0,0,0,.31.63A1.15,1.15,0,0,0,105,50,2.25,2.25,0,0,0,106.47,49.3Z"/><path class="cls-3" d="M113.41,42.18v8.19h-.58V50a2.68,2.68,0,0,1-1.6.52,2.58,2.58,0,0,1-1.93-.81,2.93,2.93,0,0,1,0-4,2.59,2.59,0,0,1,1.94-.8,3.55,3.55,0,0,1,1.6.44V42.18Zm-.58,7.24V45.94a2.82,2.82,0,0,0-1.57-.5,2.08,2.08,0,0,0-1.54.61,2.39,2.39,0,0,0,0,3.21,2.16,2.16,0,0,0,1.62.65A2.48,2.48,0,0,0,112.83,49.42Z"/><path class="cls-3" d="M119.47,47.47h-4.24a1.42,1.42,0,0,0,0,.29,2.05,2.05,0,0,0,.64,1.53,2.15,2.15,0,0,0,1.53.62,3.16,3.16,0,0,0,2-.8v.65a3.29,3.29,0,0,1-2.07.71,2.53,2.53,0,0,1-1.93-.8,2.88,2.88,0,0,1-.76-2.06,2.8,2.8,0,0,1,.7-2,2.39,2.39,0,0,1,3.46-.08A2.59,2.59,0,0,1,119.47,47.47ZM115.3,47h3.49a1.64,1.64,0,0,0-1.7-1.57,1.71,1.71,0,0,0-1.15.41A2,2,0,0,0,115.3,47Z"/><path class="cls-3" d="M128.56,47.47h-4.25a2.83,2.83,0,0,0,0,.29,2.05,2.05,0,0,0,.64,1.53,2.15,2.15,0,0,0,1.53.62,3.16,3.16,0,0,0,2-.8v.65a3.29,3.29,0,0,1-2.07.71,2.53,2.53,0,0,1-1.93-.8,2.88,2.88,0,0,1-.76-2.06,2.8,2.8,0,0,1,.7-2,2.39,2.39,0,0,1,3.46-.08A2.6,2.6,0,0,1,128.56,47.47ZM124.38,47h3.5a1.66,1.66,0,0,0-1.71-1.57,1.71,1.71,0,0,0-1.15.41A2,2,0,0,0,124.38,47Z"/><path class="cls-3" d="M134,49.43v.48a2.23,2.23,0,0,1-1.09.56.29.29,0,0,1-.28-.13,1.36,1.36,0,0,1-.11-.53,2.76,2.76,0,0,1-1.69.66,1.47,1.47,0,0,1-1-.39,1.3,1.3,0,0,1-.42-1,1.57,1.57,0,0,1,.81-1.39,5,5,0,0,1,2.33-.58v-.68q0-1.11-1.2-1.11a2.75,2.75,0,0,0-1.64.69v-.59a3.24,3.24,0,0,1,1.74-.58,2,2,0,0,1,1.21.36,1.25,1.25,0,0,1,.47,1.05v3.36c0,.18,0,.27.13.27A2.16,2.16,0,0,0,134,49.43Zm-1.48-.13V47.62a3.28,3.28,0,0,0-1.84.39,1.28,1.28,0,0,0-.73,1.1.78.78,0,0,0,.31.63A1.13,1.13,0,0,0,131,50,2.25,2.25,0,0,0,132.54,49.3Z"/><path class="cls-3" d="M137.8,45.33V46a2.72,2.72,0,0,0-1.48-.55,1.3,1.3,0,0,0-.82.26.82.82,0,0,0-.34.65.75.75,0,0,0,.21.51,3.31,3.31,0,0,0,1.12.58,2.63,2.63,0,0,1,1.19.74A1.37,1.37,0,0,1,138,49a1.32,1.32,0,0,1-.51,1,1.87,1.87,0,0,1-1.26.43,3,3,0,0,1-1.62-.49v-.56a3.77,3.77,0,0,0,1.69.49,1.28,1.28,0,0,0,.82-.26.85.85,0,0,0,.32-.67.77.77,0,0,0-.21-.52,3.33,3.33,0,0,0-1.12-.6,3,3,0,0,1-1.19-.72,1.23,1.23,0,0,1-.28-.79,1.33,1.33,0,0,1,.51-1.05,1.88,1.88,0,0,1,1.23-.43A3,3,0,0,1,137.8,45.33Z"/><path class="cls-3" d="M143.41,45l-4,8.15h-.59l1.89-3.81L138.4,45H139l2,3.76L142.83,45Z"/></g></g></svg>