<?xml version="1.0" encoding="UTF-8"?>
<!--
  - Copyright (c) 2024. All rights reserved by Woliul Hasan. Fork me on https://github.com/woliul
  -->

<svg id="Layer_1" data-name="Layer 1" xmlns="http://www.w3.org/2000/svg" viewBox="0 0 1682.12 875.97">
  <defs>
    <style>
      .cls-1 {
        stroke-width: .05px;
      }

      .cls-1, .cls-2 {
        fill: #333;
      }

      .cls-1, .cls-2, .cls-3 {
        stroke: #333;
      }

      .cls-3 {
        fill: none;
      }

      .cls-4 {
        fill: #d7e9ff;
        stroke: #4397ff;
      }

      .cls-4, .cls-5 {
        stroke-width: 2px;
      }

      .cls-5 {
        fill: #a5ceff;
        stroke: #3278ca;
      }
    </style>
  </defs>
  <path class="cls-5" d="M991.06,681.42c0,88.18-71.48,159.66-159.66,159.66s-159.66-71.48-159.66-159.66,71.48-159.66,159.65-159.66,159.65,71.48,159.65,159.66h.02Z"/>
  <path class="cls-4" d="M1460.31,529.76c0-4.42,3.58-8,8-8h165.5c4.42,0,8,3.58,8,8v303.32c0,4.42-3.58,8-8,8h-165.5c-4.42,0-8-3.58-8-8v-303.32Z"/>
  <path class="cls-4" d="M40.31,529.76c0-4.42,3.58-8,8-8H212.31c4.42,0,8,3.58,8,8v303.32c0,4.42-3.58,8-8,8H48.31c-4.42,0-8-3.58-8-8v-303.32Z"/>
  <path class="cls-1" d="M221.81,599.54h-.5v-1h.5v1Z"/>
  <g>
    <path class="cls-3" d="M221.81,599.04h455.28"/>
    <path class="cls-2" d="M691.84,599.04l-14.26,4.64v-9.26l14.26,4.62Z"/>
  </g>
  <g>
    <path class="cls-3" d="M237.69,681.42h432.56"/>
    <path class="cls-2" d="M222.93,681.42l14.26-4.63v9.26l-14.26-4.63Z"/>
  </g>
  <path class="cls-1" d="M670.75,681.42v.5h-.52v-1h.53v.5Z"/>
  <path class="cls-1" d="M221.81,761.4h-.5v-1h.5v1Z"/>
  <g>
    <path class="cls-3" d="M221.81,760.9h453.58"/>
    <path class="cls-2" d="M690.15,760.9l-14.26,4.64v-9.27l14.26,4.63Z"/>
  </g>
  <path class="cls-3" d="M1442.93,681.42h-450.37"/>
  <path class="cls-2" d="M1457.69,681.42l-14.26,4.63v-9.26l14.26,4.63Z"/>
  <path class="cls-1" d="M992.57,681.92h-.52v-1h.52v1Z"/>
  <path class="cls-3" d="M1458.81,597.52h-474.03"/>
  <path class="cls-1" d="M1459.31,598.02h-.5v-1h.5v1Z"/>
  <path class="cls-2" d="M970.01,597.52l14.27-4.64v9.27l-14.27-4.63Z"/>
  <path class="cls-3" d="M1442.93,759.37h-470.52"/>
  <path class="cls-2" d="M1457.69,759.37l-14.26,4.64v-9.28l14.26,4.64Z"/>
  <path class="cls-1" d="M972.41,759.87h-.8l.58-1h.22v1Z"/>
  <g>
    <path d="M780.96,636.42v18.61h-6.2v-18.61h-5.1v-5.25h16.4v5.25h-5.1Z"/>
    <path d="M808.66,655.04h-7.72l-5.92-9.18v9.18h-6.2v-23.87h9.65c1.33,0,2.49,.2,3.48,.59,.99,.39,1.81,.92,2.45,1.6,.64,.68,1.13,1.46,1.46,2.34,.33,.89,.49,1.83,.49,2.85,0,1.81-.44,3.29-1.31,4.42-.88,1.13-2.17,1.89-3.88,2.29l7.5,9.78Zm-13.64-13.2h1.17c1.22,0,2.16-.25,2.82-.76,.65-.51,.98-1.23,.98-2.18s-.33-1.68-.98-2.18c-.65-.51-1.59-.76-2.82-.76h-1.17v5.89Z"/>
    <path d="M825.88,650.89h-8.86l-1.42,4.15h-6.62l9.08-23.87h6.77l9.08,23.87h-6.62l-1.42-4.15Zm-1.65-4.72l-2.79-7.94-2.79,7.94h5.57Z"/>
    <path d="M839.04,631.17l5.76,14.53,5.79-14.53h6.74l-10.07,23.87h-4.94l-10.03-23.87h6.74Z"/>
    <path d="M873.42,636.42h-7.38v3.99h6.96v5.25h-6.96v4.11h7.38v5.25h-13.58v-23.87h13.58v5.25Z"/>
    <path d="M884.09,631.17v18.61h7.44v5.25h-13.64v-23.87h6.2Z"/>
    <path d="M705.18,693.02l4.05-23.87h6.14l4.78,12.73,4.75-12.73h6.14l4.05,23.87h-6.17l-2.06-13.74-5.63,13.74h-2.47l-5.35-13.74-2.06,13.74h-6.17Z"/>
    <path d="M753.64,688.87h-8.86l-1.42,4.15h-6.62l9.08-23.87h6.77l9.08,23.87h-6.62l-1.42-4.15Zm-1.65-4.72l-2.79-7.94-2.79,7.94h5.57Z"/>
    <path d="M764.4,693.02v-23.87h6.2l11.46,14.59v-14.59h6.17v23.87h-6.17l-11.46-14.59v14.59h-6.2Z"/>
    <path d="M807.93,688.87h-8.86l-1.42,4.15h-6.62l9.08-23.87h6.77l9.08,23.87h-6.62l-1.42-4.15Zm-1.65-4.72l-2.79-7.94-2.79,7.94h5.57Z"/>
    <path d="M829.55,679.66h12.31c0,1.27-.05,2.42-.16,3.45s-.32,1.99-.63,2.88c-.44,1.25-1.04,2.35-1.8,3.31-.76,.96-1.65,1.76-2.67,2.41s-2.15,1.13-3.37,1.47-2.51,.51-3.86,.51c-1.86,0-3.55-.31-5.08-.92-1.53-.61-2.84-1.47-3.94-2.58s-1.95-2.44-2.56-3.99c-.61-1.55-.92-3.27-.92-5.14s.3-3.56,.9-5.11c.6-1.55,1.46-2.88,2.56-3.97,1.11-1.1,2.44-1.95,4-2.56s3.3-.92,5.22-.92c2.49,0,4.67,.54,6.55,1.61s3.37,2.74,4.46,5l-5.89,2.44c-.55-1.31-1.26-2.25-2.14-2.82-.88-.57-1.87-.85-2.99-.85-.93,0-1.77,.17-2.53,.52-.76,.35-1.41,.84-1.95,1.49-.54,.64-.96,1.42-1.27,2.33-.31,.91-.46,1.92-.46,3.04,0,1.01,.13,1.95,.4,2.82,.26,.87,.66,1.61,1.19,2.25,.53,.63,1.18,1.12,1.96,1.47,.78,.35,1.69,.52,2.72,.52,.61,0,1.2-.07,1.77-.21,.57-.14,1.08-.36,1.54-.67,.45-.31,.83-.7,1.12-1.19s.5-1.08,.6-1.77h-5.1v-4.81Z"/>
    <path d="M859.37,674.41h-7.38v3.99h6.96v5.25h-6.96v4.11h7.38v5.25h-13.58v-23.87h13.58v5.25Z"/>
    <path d="M862.75,693.02l4.05-23.87h6.14l4.78,12.73,4.75-12.73h6.14l4.05,23.87h-6.17l-2.06-13.74-5.63,13.74h-2.47l-5.35-13.74-2.06,13.74h-6.17Z"/>
    <path d="M910.17,674.41h-7.38v3.99h6.96v5.25h-6.96v4.11h7.38v5.25h-13.58v-23.87h13.58v5.25Z"/>
    <path d="M914.63,693.02v-23.87h6.2l11.46,14.59v-14.59h6.17v23.87h-6.17l-11.46-14.59v14.59h-6.2Z"/>
    <path d="M952.52,674.41v18.61h-6.2v-18.61h-5.1v-5.25h16.4v5.25h-5.1Z"/>
    <path d="M781.13,713.25c-.68-.55-1.35-.95-2.03-1.22-.68-.26-1.33-.4-1.96-.4-.8,0-1.46,.19-1.96,.57-.51,.38-.76,.88-.76,1.49,0,.42,.13,.77,.38,1.04,.25,.27,.59,.51,1,.71,.41,.2,.88,.38,1.39,.52,.52,.15,1.03,.31,1.54,.47,2.03,.68,3.51,1.58,4.45,2.71,.94,1.13,1.41,2.6,1.41,4.42,0,1.22-.21,2.33-.62,3.32-.41,.99-1.01,1.84-1.8,2.55-.79,.71-1.76,1.25-2.91,1.65s-2.45,.59-3.91,.59c-3.02,0-5.81-.9-8.39-2.69l2.66-5c.93,.82,1.85,1.44,2.75,1.84,.91,.4,1.8,.6,2.69,.6,1.01,0,1.77-.23,2.26-.7,.5-.46,.74-.99,.74-1.58,0-.36-.06-.67-.19-.93-.13-.26-.34-.51-.63-.73s-.68-.43-1.16-.62c-.47-.19-1.05-.4-1.72-.63-.8-.25-1.59-.53-2.36-.84-.77-.31-1.46-.71-2.06-1.22-.6-.51-1.09-1.14-1.46-1.92-.37-.77-.55-1.75-.55-2.93s.19-2.25,.58-3.21c.39-.96,.94-1.78,1.65-2.47,.71-.69,1.57-1.22,2.6-1.6,1.02-.38,2.17-.57,3.43-.57,1.18,0,2.42,.16,3.7,.49s2.52,.81,3.7,1.44l-2.47,4.84Z"/>
    <path d="M794.27,719.55l-8.71-12.41h7.41l4.43,6.52,4.4-6.52h7.41l-8.74,12.41v11.46h-6.2v-11.46Z"/>
    <path d="M823.39,713.25c-.67-.55-1.35-.95-2.03-1.22-.68-.26-1.33-.4-1.96-.4-.8,0-1.46,.19-1.96,.57-.51,.38-.76,.88-.76,1.49,0,.42,.13,.77,.38,1.04s.58,.51,1,.71c.41,.2,.88,.38,1.39,.52,.52,.15,1.03,.31,1.54,.47,2.03,.68,3.51,1.58,4.45,2.71,.94,1.13,1.41,2.6,1.41,4.42,0,1.22-.21,2.33-.62,3.32-.41,.99-1.01,1.84-1.8,2.55s-1.76,1.25-2.91,1.65c-1.15,.39-2.45,.59-3.91,.59-3.02,0-5.81-.9-8.39-2.69l2.66-5c.93,.82,1.85,1.44,2.75,1.84,.91,.4,1.8,.6,2.69,.6,1.01,0,1.77-.23,2.26-.7,.5-.46,.74-.99,.74-1.58,0-.36-.06-.67-.19-.93-.13-.26-.34-.51-.63-.73-.3-.22-.68-.43-1.16-.62-.48-.19-1.05-.4-1.73-.63-.8-.25-1.59-.53-2.36-.84-.77-.31-1.46-.71-2.06-1.22-.6-.51-1.09-1.14-1.46-1.92-.37-.77-.55-1.75-.55-2.93s.2-2.25,.59-3.21c.39-.96,.94-1.78,1.65-2.47,.71-.69,1.57-1.22,2.6-1.6s2.17-.57,3.43-.57c1.18,0,2.42,.16,3.7,.49s2.52,.81,3.7,1.44l-2.47,4.84Z"/>
    <path d="M839.95,712.39v18.61h-6.2v-18.61h-5.1v-5.25h16.4v5.25h-5.1Z"/>
    <path d="M861.38,712.39h-7.38v3.99h6.96v5.25h-6.96v4.11h7.38v5.25h-13.58v-23.87h13.58v5.25Z"/>
    <path d="M864.76,731l4.05-23.87h6.14l4.78,12.73,4.75-12.73h6.14l4.05,23.87h-6.17l-2.06-13.74-5.63,13.74h-2.47l-5.35-13.74-2.06,13.74h-6.17Z"/>
  </g>
  <g>
    <path d="M334.6,578.61h-4.72v2.52h4.3v3.32h-4.3v5.92h-3.92v-15.08h8.64v3.32Z"/>
    <path d="M340.86,575.29v15.08h-3.92v-15.08h3.92Z"/>
    <path d="M347.94,575.29v11.76h4.7v3.32h-8.62v-15.08h3.92Z"/>
    <path d="M358.58,575.29v11.76h4.7v3.32h-8.62v-15.08h3.92Z"/>
    <path d="M384.64,590.37h-4.88l-3.74-5.8v5.8h-3.92v-15.08h6.1c.84,0,1.57,.12,2.2,.37s1.14,.58,1.55,1.01c.41,.43,.71,.92,.92,1.48,.21,.56,.31,1.16,.31,1.8,0,1.15-.28,2.08-.83,2.79s-1.37,1.2-2.45,1.45l4.74,6.18Zm-8.62-8.34h.74c.77,0,1.37-.16,1.78-.48,.41-.32,.62-.78,.62-1.38s-.21-1.06-.62-1.38c-.41-.32-1.01-.48-1.78-.48h-.74v3.72Z"/>
    <path d="M394.86,578.61h-4.66v2.52h4.4v3.32h-4.4v2.6h4.66v3.32h-8.58v-15.08h8.58v3.32Z"/>
    <path d="M405.96,579.15c-.43-.35-.85-.6-1.28-.77-.43-.17-.84-.25-1.24-.25-.51,0-.92,.12-1.24,.36s-.48,.55-.48,.94c0,.27,.08,.49,.24,.66,.16,.17,.37,.32,.63,.45,.26,.13,.55,.24,.88,.33,.33,.09,.65,.19,.97,.3,1.28,.43,2.22,1,2.81,1.71,.59,.71,.89,1.64,.89,2.79,0,.77-.13,1.47-.39,2.1-.26,.63-.64,1.16-1.14,1.61-.5,.45-1.11,.79-1.84,1.04-.73,.25-1.55,.37-2.47,.37-1.91,0-3.67-.57-5.3-1.7l1.68-3.16c.59,.52,1.17,.91,1.74,1.16,.57,.25,1.14,.38,1.7,.38,.64,0,1.12-.15,1.43-.44,.31-.29,.47-.63,.47-1,0-.23-.04-.42-.12-.59s-.21-.32-.4-.46c-.19-.14-.43-.27-.73-.39s-.66-.25-1.09-.4c-.51-.16-1-.34-1.49-.53-.49-.19-.92-.45-1.3-.77-.38-.32-.69-.72-.92-1.21-.23-.49-.35-1.1-.35-1.85s.12-1.42,.37-2.03c.25-.61,.59-1.13,1.04-1.56,.45-.43,.99-.77,1.64-1.01,.65-.24,1.37-.36,2.17-.36,.75,0,1.53,.1,2.34,.31,.81,.21,1.59,.51,2.34,.91l-1.56,3.06Z"/>
    <path d="M419.18,578.61h-4.66v2.52h4.4v3.32h-4.4v2.6h4.66v3.32h-8.58v-15.08h8.58v3.32Z"/>
    <path d="M434.54,590.37h-4.88l-3.74-5.8v5.8h-3.92v-15.08h6.1c.84,0,1.57,.12,2.2,.37,.63,.25,1.14,.58,1.55,1.01,.41,.43,.71,.92,.92,1.48,.21,.56,.31,1.16,.31,1.8,0,1.15-.28,2.08-.83,2.79-.55,.71-1.37,1.2-2.45,1.45l4.74,6.18Zm-8.62-8.34h.74c.77,0,1.37-.16,1.78-.48,.41-.32,.62-.78,.62-1.38s-.21-1.06-.62-1.38-1.01-.48-1.78-.48h-.74v3.72Z"/>
    <path d="M438.28,575.29l3.64,9.18,3.66-9.18h4.26l-6.36,15.08h-3.12l-6.34-15.08h4.26Z"/>
    <path d="M459.46,587.75h-5.6l-.9,2.62h-4.18l5.74-15.08h4.28l5.74,15.08h-4.18l-.9-2.62Zm-1.04-2.98l-1.76-5.02-1.76,5.02h3.52Z"/>
    <path d="M471.32,578.61v11.76h-3.92v-11.76h-3.22v-3.32h10.36v3.32h-3.22Z"/>
    <path d="M480.2,575.29v15.08h-3.92v-15.08h3.92Z"/>
    <path d="M482.68,582.83c0-1.12,.21-2.16,.62-3.13,.41-.97,.99-1.81,1.72-2.53s1.61-1.28,2.63-1.69c1.02-.41,2.14-.61,3.37-.61s2.33,.2,3.36,.61c1.03,.41,1.91,.97,2.65,1.69s1.32,1.56,1.73,2.53c.41,.97,.62,2.01,.62,3.13s-.21,2.16-.62,3.13c-.41,.97-.99,1.81-1.73,2.53s-1.62,1.28-2.65,1.69c-1.03,.41-2.15,.61-3.36,.61s-2.35-.2-3.37-.61c-1.02-.41-1.9-.97-2.63-1.69s-1.31-1.56-1.72-2.53c-.41-.97-.62-2.01-.62-3.13Zm4.1,0c0,.6,.11,1.15,.34,1.66s.53,.95,.92,1.32c.39,.37,.84,.66,1.35,.87,.51,.21,1.06,.31,1.63,.31s1.12-.1,1.63-.31c.51-.21,.97-.5,1.36-.87,.39-.37,.7-.81,.93-1.32s.34-1.06,.34-1.66-.11-1.15-.34-1.66-.54-.95-.93-1.32c-.39-.37-.85-.66-1.36-.87-.51-.21-1.06-.31-1.63-.31s-1.12,.1-1.63,.31c-.51,.21-.96,.5-1.35,.87-.39,.37-.69,.81-.92,1.32s-.34,1.06-.34,1.66Z"/>
    <path d="M501.86,590.37v-15.08h3.92l7.24,9.22v-9.22h3.9v15.08h-3.9l-7.24-9.22v9.22h-3.92Z"/>
    <path d="M535.52,578.61h-4.72v2.52h4.3v3.32h-4.3v5.92h-3.92v-15.08h8.64v3.32Z"/>
    <path d="M537.16,582.83c0-1.12,.21-2.16,.62-3.13s.99-1.81,1.72-2.53c.73-.72,1.61-1.28,2.63-1.69,1.02-.41,2.14-.61,3.37-.61s2.33,.2,3.36,.61c1.03,.41,1.91,.97,2.65,1.69s1.32,1.56,1.73,2.53,.62,2.01,.62,3.13-.21,2.16-.62,3.13-.99,1.81-1.73,2.53-1.62,1.28-2.65,1.69c-1.03,.41-2.15,.61-3.36,.61s-2.35-.2-3.37-.61c-1.02-.41-1.9-.97-2.63-1.69-.73-.72-1.31-1.56-1.72-2.53s-.62-2.01-.62-3.13Zm4.1,0c0,.6,.11,1.15,.34,1.66s.53,.95,.92,1.32c.39,.37,.84,.66,1.35,.87,.51,.21,1.06,.31,1.63,.31s1.12-.1,1.63-.31c.51-.21,.97-.5,1.36-.87,.39-.37,.7-.81,.93-1.32,.23-.51,.34-1.06,.34-1.66s-.11-1.15-.34-1.66c-.23-.51-.54-.95-.93-1.32-.39-.37-.85-.66-1.36-.87-.51-.21-1.06-.31-1.63-.31s-1.12,.1-1.63,.31c-.51,.21-.96,.5-1.35,.87-.39,.37-.69,.81-.92,1.32s-.34,1.06-.34,1.66Z"/>
    <path d="M568.88,590.37h-4.88l-3.74-5.8v5.8h-3.92v-15.08h6.1c.84,0,1.57,.12,2.2,.37,.63,.25,1.14,.58,1.55,1.01,.41,.43,.71,.92,.92,1.48,.21,.56,.31,1.16,.31,1.8,0,1.15-.28,2.08-.83,2.79-.55,.71-1.37,1.2-2.45,1.45l4.74,6.18Zm-8.62-8.34h.74c.77,0,1.37-.16,1.78-.48,.41-.32,.62-.78,.62-1.38s-.21-1.06-.62-1.38-1.01-.48-1.78-.48h-.74v3.72Z"/>
    <path d="M569.84,590.37l2.56-15.08h3.88l3.02,8.04,3-8.04h3.88l2.56,15.08h-3.9l-1.3-8.68-3.56,8.68h-1.56l-3.38-8.68-1.3,8.68h-3.9Z"/>
  </g>
  <g>
    <path d="M1095.18,578.61h-4.72v2.52h4.3v3.32h-4.3v5.92h-3.92v-15.08h8.64v3.32Z"/>
    <path d="M1101.44,575.29v15.08h-3.92v-15.08h3.92Z"/>
    <path d="M1108.52,575.29v11.76h4.7v3.32h-8.62v-15.08h3.92Z"/>
    <path d="M1119.16,575.29v11.76h4.7v3.32h-8.62v-15.08h3.92Z"/>
    <path d="M1145.22,590.37h-4.88l-3.74-5.8v5.8h-3.92v-15.08h6.1c.84,0,1.57,.12,2.2,.37s1.14,.58,1.55,1.01c.41,.43,.71,.92,.92,1.48,.21,.56,.31,1.16,.31,1.8,0,1.15-.28,2.08-.83,2.79-.55,.71-1.37,1.2-2.45,1.45l4.74,6.18Zm-8.62-8.34h.74c.77,0,1.37-.16,1.78-.48,.41-.32,.62-.78,.62-1.38s-.21-1.06-.62-1.38c-.41-.32-1.01-.48-1.78-.48h-.74v3.72Z"/>
    <path d="M1155.44,578.61h-4.66v2.52h4.4v3.32h-4.4v2.6h4.66v3.32h-8.58v-15.08h8.58v3.32Z"/>
    <path d="M1166.54,579.15c-.43-.35-.85-.6-1.28-.77-.43-.17-.84-.25-1.24-.25-.51,0-.92,.12-1.24,.36-.32,.24-.48,.55-.48,.94,0,.27,.08,.49,.24,.66,.16,.17,.37,.32,.63,.45,.26,.13,.55,.24,.88,.33,.33,.09,.65,.19,.97,.3,1.28,.43,2.22,1,2.81,1.71,.59,.71,.89,1.64,.89,2.79,0,.77-.13,1.47-.39,2.1-.26,.63-.64,1.16-1.14,1.61-.5,.45-1.11,.79-1.84,1.04-.73,.25-1.55,.37-2.47,.37-1.91,0-3.67-.57-5.3-1.7l1.68-3.16c.59,.52,1.17,.91,1.74,1.16,.57,.25,1.14,.38,1.7,.38,.64,0,1.12-.15,1.43-.44,.31-.29,.47-.63,.47-1,0-.23-.04-.42-.12-.59s-.21-.32-.4-.46c-.19-.14-.43-.27-.73-.39s-.66-.25-1.09-.4c-.51-.16-1-.34-1.49-.53s-.92-.45-1.3-.77c-.38-.32-.69-.72-.92-1.21-.23-.49-.35-1.1-.35-1.85s.12-1.42,.37-2.03c.25-.61,.59-1.13,1.04-1.56,.45-.43,.99-.77,1.64-1.01,.65-.24,1.37-.36,2.17-.36,.75,0,1.53,.1,2.34,.31,.81,.21,1.59,.51,2.34,.91l-1.56,3.06Z"/>
    <path d="M1179.76,578.61h-4.66v2.52h4.4v3.32h-4.4v2.6h4.66v3.32h-8.58v-15.08h8.58v3.32Z"/>
    <path d="M1195.12,590.37h-4.88l-3.74-5.8v5.8h-3.92v-15.08h6.1c.84,0,1.57,.12,2.2,.37s1.14,.58,1.55,1.01c.41,.43,.71,.92,.92,1.48,.21,.56,.31,1.16,.31,1.8,0,1.15-.28,2.08-.83,2.79s-1.37,1.2-2.45,1.45l4.74,6.18Zm-8.62-8.34h.74c.77,0,1.37-.16,1.78-.48,.41-.32,.62-.78,.62-1.38s-.21-1.06-.62-1.38c-.41-.32-1.01-.48-1.78-.48h-.74v3.72Z"/>
    <path d="M1198.86,575.29l3.64,9.18,3.66-9.18h4.26l-6.36,15.08h-3.12l-6.34-15.08h4.26Z"/>
    <path d="M1220.04,587.75h-5.6l-.9,2.62h-4.18l5.74-15.08h4.28l5.74,15.08h-4.18l-.9-2.62Zm-1.04-2.98l-1.76-5.02-1.76,5.02h3.52Z"/>
    <path d="M1231.9,578.61v11.76h-3.92v-11.76h-3.22v-3.32h10.36v3.32h-3.22Z"/>
    <path d="M1240.78,575.29v15.08h-3.92v-15.08h3.92Z"/>
    <path d="M1243.26,582.83c0-1.12,.21-2.16,.62-3.13,.41-.97,.99-1.81,1.72-2.53,.73-.72,1.61-1.28,2.63-1.69,1.02-.41,2.14-.61,3.37-.61s2.33,.2,3.36,.61c1.03,.41,1.91,.97,2.65,1.69s1.32,1.56,1.73,2.53,.62,2.01,.62,3.13-.21,2.16-.62,3.13-.99,1.81-1.73,2.53-1.62,1.28-2.65,1.69c-1.03,.41-2.15,.61-3.36,.61s-2.35-.2-3.37-.61c-1.02-.41-1.9-.97-2.63-1.69-.73-.72-1.31-1.56-1.72-2.53-.41-.97-.62-2.01-.62-3.13Zm4.1,0c0,.6,.11,1.15,.34,1.66s.53,.95,.92,1.32c.39,.37,.84,.66,1.35,.87,.51,.21,1.06,.31,1.63,.31s1.12-.1,1.63-.31c.51-.21,.97-.5,1.36-.87,.39-.37,.7-.81,.93-1.32,.23-.51,.34-1.06,.34-1.66s-.11-1.15-.34-1.66c-.23-.51-.54-.95-.93-1.32-.39-.37-.85-.66-1.36-.87-.51-.21-1.06-.31-1.63-.31s-1.12,.1-1.63,.31c-.51,.21-.96,.5-1.35,.87-.39,.37-.69,.81-.92,1.32s-.34,1.06-.34,1.66Z"/>
    <path d="M1262.44,590.37v-15.08h3.92l7.24,9.22v-9.22h3.9v15.08h-3.9l-7.24-9.22v9.22h-3.92Z"/>
    <path d="M1296.1,578.61h-4.72v2.52h4.3v3.32h-4.3v5.92h-3.92v-15.08h8.64v3.32Z"/>
    <path d="M1297.74,582.83c0-1.12,.21-2.16,.62-3.13,.41-.97,.99-1.81,1.72-2.53s1.61-1.28,2.63-1.69c1.02-.41,2.14-.61,3.37-.61s2.33,.2,3.36,.61c1.03,.41,1.91,.97,2.65,1.69s1.32,1.56,1.73,2.53c.41,.97,.62,2.01,.62,3.13s-.21,2.16-.62,3.13c-.41,.97-.99,1.81-1.73,2.53s-1.62,1.28-2.65,1.69c-1.03,.41-2.15,.61-3.36,.61s-2.35-.2-3.37-.61c-1.02-.41-1.9-.97-2.63-1.69s-1.31-1.56-1.72-2.53c-.41-.97-.62-2.01-.62-3.13Zm4.1,0c0,.6,.11,1.15,.34,1.66s.53,.95,.92,1.32c.39,.37,.84,.66,1.35,.87,.51,.21,1.06,.31,1.63,.31s1.12-.1,1.63-.31c.51-.21,.97-.5,1.36-.87,.39-.37,.7-.81,.93-1.32,.23-.51,.34-1.06,.34-1.66s-.11-1.15-.34-1.66c-.23-.51-.54-.95-.93-1.32-.39-.37-.85-.66-1.36-.87-.51-.21-1.06-.31-1.63-.31s-1.12,.1-1.63,.31c-.51,.21-.96,.5-1.35,.87-.39,.37-.69,.81-.92,1.32s-.34,1.06-.34,1.66Z"/>
    <path d="M1329.46,590.37h-4.88l-3.74-5.8v5.8h-3.92v-15.08h6.1c.84,0,1.57,.12,2.2,.37s1.14,.58,1.55,1.01c.41,.43,.71,.92,.92,1.48,.21,.56,.31,1.16,.31,1.8,0,1.15-.28,2.08-.83,2.79s-1.37,1.2-2.45,1.45l4.74,6.18Zm-8.62-8.34h.74c.77,0,1.37-.16,1.78-.48,.41-.32,.62-.78,.62-1.38s-.21-1.06-.62-1.38c-.41-.32-1.01-.48-1.78-.48h-.74v3.72Z"/>
    <path d="M1330.42,590.37l2.56-15.08h3.88l3.02,8.04,3-8.04h3.88l2.56,15.08h-3.9l-1.3-8.68-3.56,8.68h-1.56l-3.38-8.68-1.3,8.68h-3.9Z"/>
  </g>
  <g>
    <path d="M1164.91,735.49v8.2c0,.44,.02,.89,.05,1.35s.13,.88,.3,1.25c.17,.37,.43,.68,.79,.91,.36,.23,.87,.35,1.52,.35s1.16-.12,1.51-.35c.35-.23,.62-.54,.79-.91,.17-.37,.28-.79,.31-1.25,.03-.46,.05-.91,.05-1.35v-8.2h3.9v8.74c0,2.35-.54,4.06-1.61,5.14-1.07,1.08-2.72,1.62-4.95,1.62s-3.88-.54-4.96-1.62-1.62-2.79-1.62-5.14v-8.74h3.92Z"/>
    <path d="M1185.57,739.35c-.43-.35-.85-.6-1.28-.77-.43-.17-.84-.25-1.24-.25-.51,0-.92,.12-1.24,.36s-.48,.55-.48,.94c0,.27,.08,.49,.24,.66,.16,.17,.37,.32,.63,.45s.55,.24,.88,.33c.33,.09,.65,.19,.97,.3,1.28,.43,2.22,1,2.81,1.71,.59,.71,.89,1.64,.89,2.79,0,.77-.13,1.47-.39,2.1s-.64,1.16-1.14,1.61c-.5,.45-1.11,.79-1.84,1.04-.73,.25-1.55,.37-2.47,.37-1.91,0-3.67-.57-5.3-1.7l1.68-3.16c.59,.52,1.17,.91,1.74,1.16,.57,.25,1.14,.38,1.7,.38,.64,0,1.12-.15,1.43-.44s.47-.63,.47-1c0-.23-.04-.42-.12-.59-.08-.17-.21-.32-.4-.46-.19-.14-.43-.27-.73-.39-.3-.12-.66-.25-1.09-.4-.51-.16-1-.34-1.49-.53s-.92-.45-1.3-.77c-.38-.32-.69-.72-.92-1.21-.23-.49-.35-1.1-.35-1.85s.12-1.42,.37-2.03c.25-.61,.59-1.13,1.04-1.56s.99-.77,1.64-1.01c.65-.24,1.37-.36,2.17-.36,.75,0,1.53,.1,2.34,.31,.81,.21,1.59,.51,2.34,.91l-1.56,3.06Z"/>
    <path d="M1198.79,738.81h-4.66v2.52h4.4v3.32h-4.4v2.6h4.66v3.32h-8.58v-15.08h8.58v3.32Z"/>
    <path d="M1214.15,750.57h-4.88l-3.74-5.8v5.8h-3.92v-15.08h6.1c.84,0,1.57,.12,2.2,.37,.63,.25,1.14,.58,1.55,1.01s.71,.92,.92,1.48c.21,.56,.31,1.16,.31,1.8,0,1.15-.28,2.08-.83,2.79-.55,.71-1.37,1.2-2.45,1.45l4.74,6.18Zm-8.62-8.34h.74c.77,0,1.37-.16,1.78-.48,.41-.32,.62-.78,.62-1.38s-.21-1.06-.62-1.38c-.41-.32-1.01-.48-1.78-.48h-.74v3.72Z"/>
    <path d="M1226.51,735.49v15.08h-3.92v-15.08h3.92Z"/>
    <path d="M1229.67,750.57v-15.08h3.92l7.24,9.22v-9.22h3.9v15.08h-3.9l-7.24-9.22v9.22h-3.92Z"/>
    <path d="M1256.53,738.81h-4.72v2.52h4.3v3.32h-4.3v5.92h-3.92v-15.08h8.64v3.32Z"/>
    <path d="M1258.17,743.03c0-1.12,.21-2.16,.62-3.13,.41-.97,.99-1.81,1.72-2.53,.73-.72,1.61-1.28,2.63-1.69,1.02-.41,2.14-.61,3.37-.61s2.33,.2,3.36,.61c1.03,.41,1.91,.97,2.65,1.69s1.32,1.56,1.73,2.53,.62,2.01,.62,3.13-.21,2.16-.62,3.13-.99,1.81-1.73,2.53-1.62,1.28-2.65,1.69c-1.03,.41-2.15,.61-3.36,.61s-2.35-.2-3.37-.61c-1.02-.41-1.9-.97-2.63-1.69-.73-.72-1.31-1.56-1.72-2.53-.41-.97-.62-2.01-.62-3.13Zm4.1,0c0,.6,.11,1.15,.34,1.66s.53,.95,.92,1.32c.39,.37,.84,.66,1.35,.87,.51,.21,1.06,.31,1.63,.31s1.12-.1,1.63-.31c.51-.21,.97-.5,1.36-.87,.39-.37,.7-.81,.93-1.32,.23-.51,.34-1.06,.34-1.66s-.11-1.15-.34-1.66c-.23-.51-.54-.95-.93-1.32-.39-.37-.85-.66-1.36-.87-.51-.21-1.06-.31-1.63-.31s-1.12,.1-1.63,.31c-.51,.21-.96,.5-1.35,.87-.39,.37-.69,.81-.92,1.32s-.34,1.06-.34,1.66Z"/>
  </g>
  <g>
    <path d="M1072.33,668.25h-4.88l-3.74-5.8v5.8h-3.92v-15.08h6.1c.84,0,1.57,.12,2.2,.37,.63,.25,1.14,.58,1.55,1.01,.41,.43,.71,.92,.92,1.48,.21,.56,.31,1.16,.31,1.8,0,1.15-.28,2.08-.83,2.79-.55,.71-1.37,1.2-2.45,1.45l4.74,6.18Zm-8.62-8.34h.74c.77,0,1.37-.16,1.78-.48,.41-.32,.62-.78,.62-1.38s-.21-1.06-.62-1.38-1.01-.48-1.78-.48h-.74v3.72Z"/>
    <path d="M1082.55,656.49h-4.66v2.52h4.4v3.32h-4.4v2.6h4.66v3.32h-8.58v-15.08h8.58v3.32Z"/>
    <path d="M1093.65,657.03c-.43-.35-.85-.6-1.28-.77-.43-.17-.84-.25-1.24-.25-.51,0-.92,.12-1.24,.36-.32,.24-.48,.55-.48,.94,0,.27,.08,.49,.24,.66,.16,.17,.37,.32,.63,.45s.55,.24,.88,.33c.33,.09,.65,.19,.97,.3,1.28,.43,2.22,1,2.81,1.71,.59,.71,.89,1.64,.89,2.79,0,.77-.13,1.47-.39,2.1s-.64,1.16-1.14,1.61c-.5,.45-1.11,.79-1.84,1.04-.73,.25-1.55,.37-2.47,.37-1.91,0-3.67-.57-5.3-1.7l1.68-3.16c.59,.52,1.17,.91,1.74,1.16,.57,.25,1.14,.38,1.7,.38,.64,0,1.12-.15,1.43-.44,.31-.29,.47-.63,.47-1,0-.23-.04-.42-.12-.59s-.21-.32-.4-.46c-.19-.14-.43-.27-.73-.39-.3-.12-.66-.25-1.09-.4-.51-.16-1-.34-1.49-.53-.49-.19-.92-.45-1.3-.77-.38-.32-.69-.72-.92-1.21-.23-.49-.35-1.1-.35-1.85s.12-1.42,.37-2.03c.25-.61,.59-1.13,1.04-1.56,.45-.43,.99-.77,1.64-1.01,.65-.24,1.37-.36,2.17-.36,.75,0,1.53,.1,2.34,.31,.81,.21,1.59,.51,2.34,.91l-1.56,3.06Z"/>
    <path d="M1106.87,656.49h-4.66v2.52h4.4v3.32h-4.4v2.6h4.66v3.32h-8.58v-15.08h8.58v3.32Z"/>
    <path d="M1122.23,668.25h-4.88l-3.74-5.8v5.8h-3.92v-15.08h6.1c.84,0,1.57,.12,2.2,.37,.63,.25,1.14,.58,1.55,1.01s.71,.92,.92,1.48c.21,.56,.31,1.16,.31,1.8,0,1.15-.28,2.08-.83,2.79-.55,.71-1.37,1.2-2.45,1.45l4.74,6.18Zm-8.62-8.34h.74c.77,0,1.37-.16,1.78-.48,.41-.32,.62-.78,.62-1.38s-.21-1.06-.62-1.38c-.41-.32-1.01-.48-1.78-.48h-.74v3.72Z"/>
    <path d="M1125.97,653.17l3.64,9.18,3.66-9.18h4.26l-6.36,15.08h-3.12l-6.34-15.08h4.26Z"/>
    <path d="M1147.15,665.63h-5.6l-.9,2.62h-4.18l5.74-15.08h4.28l5.74,15.08h-4.18l-.9-2.62Zm-1.04-2.98l-1.76-5.02-1.76,5.02h3.52Z"/>
    <path d="M1159.01,656.49v11.76h-3.92v-11.76h-3.22v-3.32h10.36v3.32h-3.22Z"/>
    <path d="M1167.89,653.17v15.08h-3.92v-15.08h3.92Z"/>
    <path d="M1170.37,660.71c0-1.12,.21-2.16,.62-3.13s.99-1.81,1.72-2.53,1.61-1.28,2.63-1.69c1.02-.41,2.14-.61,3.37-.61s2.33,.2,3.36,.61c1.03,.41,1.91,.97,2.65,1.69s1.32,1.56,1.73,2.53c.41,.97,.62,2.01,.62,3.13s-.21,2.16-.62,3.13c-.41,.97-.99,1.81-1.73,2.53s-1.62,1.28-2.65,1.69c-1.03,.41-2.15,.61-3.36,.61s-2.35-.2-3.37-.61c-1.02-.41-1.9-.97-2.63-1.69s-1.31-1.56-1.72-2.53-.62-2.01-.62-3.13Zm4.1,0c0,.6,.11,1.15,.34,1.66s.53,.95,.92,1.32c.39,.37,.84,.66,1.35,.87,.51,.21,1.06,.31,1.63,.31s1.12-.1,1.63-.31c.51-.21,.97-.5,1.36-.87,.39-.37,.7-.81,.93-1.32s.34-1.06,.34-1.66-.11-1.15-.34-1.66-.54-.95-.93-1.32c-.39-.37-.85-.66-1.36-.87-.51-.21-1.06-.31-1.63-.31s-1.12,.1-1.63,.31c-.51,.21-.96,.5-1.35,.87-.39,.37-.69,.81-.92,1.32s-.34,1.06-.34,1.66Z"/>
    <path d="M1189.55,668.25v-15.08h3.92l7.24,9.22v-9.22h3.9v15.08h-3.9l-7.24-9.22v9.22h-3.92Z"/>
    <path d="M1225.43,658.21c-.91-1.11-2.03-1.66-3.36-1.66-.59,0-1.13,.11-1.63,.32s-.93,.5-1.29,.87c-.36,.37-.64,.8-.85,1.31s-.31,1.05-.31,1.64,.1,1.15,.31,1.66c.21,.51,.49,.95,.86,1.32s.8,.67,1.29,.88c.49,.21,1.03,.32,1.6,.32,1.25,0,2.38-.53,3.38-1.6v4.64l-.4,.14c-.6,.21-1.16,.37-1.68,.47-.52,.1-1.03,.15-1.54,.15-1.04,0-2.04-.2-2.99-.59-.95-.39-1.79-.95-2.52-1.66-.73-.71-1.31-1.56-1.75-2.54-.44-.98-.66-2.05-.66-3.21s.22-2.22,.65-3.19,1.01-1.8,1.74-2.5c.73-.7,1.57-1.25,2.53-1.64,.96-.39,1.97-.59,3.02-.59,.6,0,1.19,.06,1.77,.19,.58,.13,1.19,.32,1.83,.59v4.68Z"/>
    <path d="M1237.51,665.63h-5.6l-.9,2.62h-4.18l5.74-15.08h4.28l5.74,15.08h-4.18l-.9-2.62Zm-1.04-2.98l-1.76-5.02-1.76,5.02h3.52Z"/>
    <path d="M1244.31,668.25v-15.08h3.92l7.24,9.22v-9.22h3.9v15.08h-3.9l-7.24-9.22v9.22h-3.92Z"/>
    <path d="M1273.59,658.21c-.91-1.11-2.03-1.66-3.36-1.66-.59,0-1.13,.11-1.63,.32s-.93,.5-1.29,.87c-.36,.37-.64,.8-.85,1.31s-.31,1.05-.31,1.64,.1,1.15,.31,1.66c.21,.51,.49,.95,.86,1.32s.8,.67,1.29,.88c.49,.21,1.03,.32,1.6,.32,1.25,0,2.38-.53,3.38-1.6v4.64l-.4,.14c-.6,.21-1.16,.37-1.68,.47-.52,.1-1.03,.15-1.54,.15-1.04,0-2.04-.2-2.99-.59-.95-.39-1.79-.95-2.52-1.66-.73-.71-1.31-1.56-1.75-2.54-.44-.98-.66-2.05-.66-3.21s.22-2.22,.65-3.19,1.01-1.8,1.74-2.5c.73-.7,1.57-1.25,2.53-1.64,.96-.39,1.97-.59,3.02-.59,.6,0,1.19,.06,1.77,.19,.58,.13,1.19,.32,1.83,.59v4.68Z"/>
    <path d="M1284.65,656.49h-4.66v2.52h4.4v3.32h-4.4v2.6h4.66v3.32h-8.58v-15.08h8.58v3.32Z"/>
    <path d="M1291.39,653.17v11.76h4.7v3.32h-8.62v-15.08h3.92Z"/>
    <path d="M1302.03,653.17v11.76h4.7v3.32h-8.62v-15.08h3.92Z"/>
    <path d="M1318.61,665.63h-5.6l-.9,2.62h-4.18l5.74-15.08h4.28l5.74,15.08h-4.18l-.9-2.62Zm-1.04-2.98l-1.76-5.02-1.76,5.02h3.52Z"/>
    <path d="M1330.47,656.49v11.76h-3.92v-11.76h-3.22v-3.32h10.36v3.32h-3.22Z"/>
    <path d="M1339.35,653.17v15.08h-3.92v-15.08h3.92Z"/>
    <path d="M1341.83,660.71c0-1.12,.21-2.16,.62-3.13,.41-.97,.99-1.81,1.72-2.53,.73-.72,1.61-1.28,2.63-1.69,1.02-.41,2.14-.61,3.37-.61s2.33,.2,3.36,.61c1.03,.41,1.91,.97,2.65,1.69s1.32,1.56,1.73,2.53,.62,2.01,.62,3.13-.21,2.16-.62,3.13-.99,1.81-1.73,2.53-1.62,1.28-2.65,1.69c-1.03,.41-2.15,.61-3.36,.61s-2.35-.2-3.37-.61c-1.02-.41-1.9-.97-2.63-1.69-.73-.72-1.31-1.56-1.72-2.53-.41-.97-.62-2.01-.62-3.13Zm4.1,0c0,.6,.11,1.15,.34,1.66s.53,.95,.92,1.32c.39,.37,.84,.66,1.35,.87,.51,.21,1.06,.31,1.63,.31s1.12-.1,1.63-.31c.51-.21,.97-.5,1.36-.87,.39-.37,.7-.81,.93-1.32,.23-.51,.34-1.06,.34-1.66s-.11-1.15-.34-1.66c-.23-.51-.54-.95-.93-1.32-.39-.37-.85-.66-1.36-.87-.51-.21-1.06-.31-1.63-.31s-1.12,.1-1.63,.31c-.51,.21-.96,.5-1.35,.87-.39,.37-.69,.81-.92,1.32s-.34,1.06-.34,1.66Z"/>
    <path d="M1361.01,668.25v-15.08h3.92l7.24,9.22v-9.22h3.9v15.08h-3.9l-7.24-9.22v9.22h-3.92Z"/>
  </g>
  <g>
    <path d="M727.34,504.16v4.72h2.52v-4.3h3.32v4.3h5.92v3.92h-15.08v-8.64h3.32Z"/>
    <path d="M724.02,497.9h15.08v3.92h-15.08v-3.92Z"/>
    <path d="M724.02,490.82h11.76v-4.7h3.32v8.62h-15.08v-3.92Z"/>
    <path d="M724.02,480.18h11.76v-4.7h3.32v8.62h-15.08v-3.92Z"/>
    <path d="M739.1,454.12v4.88l-5.8,3.74h5.8v3.92h-15.08v-6.1c0-.84,.12-1.57,.37-2.2,.25-.63,.58-1.14,1.01-1.55,.43-.41,.92-.71,1.48-.92,.56-.21,1.16-.31,1.8-.31,1.15,0,2.08,.28,2.79,.83,.71,.55,1.2,1.37,1.45,2.45l6.18-4.74Zm-8.34,8.62v-.74c0-.77-.16-1.37-.48-1.78-.32-.41-.78-.62-1.38-.62s-1.06,.21-1.38,.62c-.32,.41-.48,1.01-.48,1.78v.74h3.72Z"/>
    <path d="M727.34,443.9v4.66h2.52v-4.4h3.32v4.4h2.6v-4.66h3.32v8.58h-15.08v-8.58h3.32Z"/>
    <path d="M727.88,432.8c-.35,.43-.6,.85-.77,1.28-.17,.43-.25,.84-.25,1.24,0,.51,.12,.92,.36,1.24,.24,.32,.55,.48,.94,.48,.27,0,.49-.08,.66-.24,.17-.16,.32-.37,.45-.63,.13-.26,.24-.55,.33-.88,.09-.33,.19-.65,.3-.97,.43-1.28,1-2.22,1.71-2.81,.71-.59,1.64-.89,2.79-.89,.77,0,1.47,.13,2.1,.39,.63,.26,1.16,.64,1.61,1.14,.45,.5,.79,1.11,1.04,1.84,.25,.73,.37,1.55,.37,2.47,0,1.91-.57,3.67-1.7,5.3l-3.16-1.68c.52-.59,.91-1.17,1.16-1.74,.25-.57,.38-1.14,.38-1.7,0-.64-.15-1.12-.44-1.43-.29-.31-.63-.47-1-.47-.23,0-.42,.04-.59,.12-.17,.08-.32,.21-.46,.4-.14,.19-.27,.43-.39,.73-.12,.3-.25,.66-.4,1.09-.16,.51-.34,1-.53,1.49s-.45,.92-.77,1.3c-.32,.38-.72,.69-1.21,.92-.49,.23-1.1,.35-1.85,.35s-1.42-.12-2.03-.37c-.61-.25-1.13-.59-1.56-1.04-.43-.45-.77-.99-1.01-1.64-.24-.65-.36-1.37-.36-2.17,0-.75,.1-1.53,.31-2.34,.21-.81,.51-1.59,.91-2.34l3.06,1.56Z"/>
    <path d="M727.34,419.58v4.66h2.52v-4.4h3.32v4.4h2.6v-4.66h3.32v8.58h-15.08v-8.58h3.32Z"/>
    <path d="M739.1,404.22v4.88l-5.8,3.74h5.8v3.92h-15.08v-6.1c0-.84,.12-1.57,.37-2.2,.25-.63,.58-1.14,1.01-1.55,.43-.41,.92-.71,1.48-.92,.56-.21,1.16-.31,1.8-.31,1.15,0,2.08,.28,2.79,.83,.71,.55,1.2,1.37,1.45,2.45l6.18-4.74Zm-8.34,8.62v-.74c0-.77-.16-1.37-.48-1.78-.32-.41-.78-.62-1.38-.62s-1.06,.21-1.38,.62c-.32,.41-.48,1.01-.48,1.78v.74h3.72Z"/>
    <path d="M724.02,400.48l9.18-3.64-9.18-3.66v-4.26l15.08,6.36v3.12l-15.08,6.34v-4.26Z"/>
    <path d="M736.48,379.3v5.6l2.62,.9v4.18l-15.08-5.74v-4.28l15.08-5.74v4.18l-2.62,.9Zm-2.98,1.04l-5.02,1.76,5.02,1.76v-3.52Z"/>
    <path d="M727.34,367.44h11.76v3.92h-11.76v3.22h-3.32v-10.36h3.32v3.22Z"/>
    <path d="M724.02,358.56h15.08v3.92h-15.08v-3.92Z"/>
    <path d="M731.56,356.08c-1.12,0-2.16-.21-3.13-.62-.97-.41-1.81-.99-2.53-1.72-.72-.73-1.28-1.61-1.69-2.63-.41-1.02-.61-2.14-.61-3.37s.2-2.33,.61-3.36c.41-1.03,.97-1.91,1.69-2.65s1.56-1.32,2.53-1.73c.97-.41,2.01-.62,3.13-.62s2.16,.21,3.13,.62c.97,.41,1.81,.99,2.53,1.73s1.28,1.62,1.69,2.65c.41,1.03,.61,2.15,.61,3.36s-.2,2.35-.61,3.37c-.41,1.02-.97,1.9-1.69,2.63-.72,.73-1.56,1.31-2.53,1.72-.97,.41-2.01,.62-3.13,.62Zm0-4.1c.6,0,1.15-.11,1.66-.34s.95-.53,1.32-.92c.37-.39,.66-.84,.87-1.35,.21-.51,.31-1.06,.31-1.63s-.1-1.12-.31-1.63c-.21-.51-.5-.97-.87-1.36-.37-.39-.81-.7-1.32-.93-.51-.23-1.06-.34-1.66-.34s-1.15,.11-1.66,.34c-.51,.23-.95,.54-1.32,.93-.37,.39-.66,.85-.87,1.36-.21,.51-.31,1.06-.31,1.63s.1,1.12,.31,1.63c.21,.51,.5,.96,.87,1.35,.37,.39,.81,.69,1.32,.92s1.06,.34,1.66,.34Z"/>
    <path d="M739.1,336.9h-15.08v-3.92l9.22-7.24h-9.22v-3.9h15.08v3.9l-9.22,7.24h9.22v3.92Z"/>
    <path d="M727.34,303.24v4.72h2.52v-4.3h3.32v4.3h5.92v3.92h-15.08v-8.64h3.32Z"/>
    <path d="M731.56,301.6c-1.12,0-2.16-.21-3.13-.62-.97-.41-1.81-.99-2.53-1.72-.72-.73-1.28-1.61-1.69-2.63-.41-1.02-.61-2.14-.61-3.37s.2-2.33,.61-3.36c.41-1.03,.97-1.91,1.69-2.65s1.56-1.32,2.53-1.73c.97-.41,2.01-.62,3.13-.62s2.16,.21,3.13,.62c.97,.41,1.81,.99,2.53,1.73s1.28,1.62,1.69,2.65c.41,1.03,.61,2.15,.61,3.36s-.2,2.35-.61,3.37c-.41,1.02-.97,1.9-1.69,2.63-.72,.73-1.56,1.31-2.53,1.72-.97,.41-2.01,.62-3.13,.62Zm0-4.1c.6,0,1.15-.11,1.66-.34s.95-.53,1.32-.92c.37-.39,.66-.84,.87-1.35,.21-.51,.31-1.06,.31-1.63s-.1-1.12-.31-1.63c-.21-.51-.5-.97-.87-1.36-.37-.39-.81-.7-1.32-.93-.51-.23-1.06-.34-1.66-.34s-1.15,.11-1.66,.34c-.51,.23-.95,.54-1.32,.93-.37,.39-.66,.85-.87,1.36-.21,.51-.31,1.06-.31,1.63s.1,1.12,.31,1.63c.21,.51,.5,.96,.87,1.35,.37,.39,.81,.69,1.32,.92s1.06,.34,1.66,.34Z"/>
    <path d="M739.1,269.88v4.88l-5.8,3.74h5.8v3.92h-15.08v-6.1c0-.84,.12-1.57,.37-2.2,.25-.63,.58-1.14,1.01-1.55,.43-.41,.92-.71,1.48-.92,.56-.21,1.16-.31,1.8-.31,1.15,0,2.08,.28,2.79,.83,.71,.55,1.2,1.37,1.45,2.45l6.18-4.74Zm-8.34,8.62v-.74c0-.77-.16-1.37-.48-1.78-.32-.41-.78-.62-1.38-.62s-1.06,.21-1.38,.62c-.32,.41-.48,1.01-.48,1.78v.74h3.72Z"/>
    <path d="M739.1,268.92l-15.08-2.56v-3.88l8.04-3.02-8.04-3v-3.88l15.08-2.56v3.9l-8.68,1.3,8.68,3.56v1.56l-8.68,3.38,8.68,1.3v3.9Z"/>
  </g>
  <g>
    <path d="M326.26,737.36h-4.72v2.52h4.3v3.32h-4.3v5.92h-3.92v-15.08h8.64v3.32Z"/>
    <path d="M332.52,734.04v15.08h-3.92v-15.08h3.92Z"/>
    <path d="M339.6,734.04v11.76h4.7v3.32h-8.62v-15.08h3.92Z"/>
    <path d="M350.24,734.04v11.76h4.7v3.32h-8.62v-15.08h3.92Z"/>
    <path d="M374.62,739.08c-.91-1.11-2.03-1.66-3.36-1.66-.59,0-1.13,.11-1.63,.32s-.93,.5-1.29,.87c-.36,.37-.64,.8-.85,1.31-.21,.51-.31,1.05-.31,1.64s.1,1.15,.31,1.66c.21,.51,.49,.95,.86,1.32,.37,.37,.8,.67,1.29,.88,.49,.21,1.03,.32,1.6,.32,1.25,0,2.38-.53,3.38-1.6v4.64l-.4,.14c-.6,.21-1.16,.37-1.68,.47-.52,.1-1.03,.15-1.54,.15-1.04,0-2.04-.2-2.99-.59-.95-.39-1.79-.95-2.52-1.66-.73-.71-1.31-1.56-1.75-2.54-.44-.98-.66-2.05-.66-3.21s.22-2.22,.65-3.19c.43-.97,1.01-1.8,1.74-2.5,.73-.7,1.57-1.25,2.53-1.64,.96-.39,1.97-.59,3.02-.59,.6,0,1.19,.06,1.77,.19,.58,.13,1.19,.32,1.83,.59v4.68Z"/>
    <path d="M386.7,746.5h-5.6l-.9,2.62h-4.18l5.74-15.08h4.28l5.74,15.08h-4.18l-.9-2.62Zm-1.04-2.98l-1.76-5.02-1.76,5.02h3.52Z"/>
    <path d="M393.5,749.12v-15.08h3.92l7.24,9.22v-9.22h3.9v15.08h-3.9l-7.24-9.22v9.22h-3.92Z"/>
    <path d="M422.78,739.08c-.91-1.11-2.03-1.66-3.36-1.66-.59,0-1.13,.11-1.63,.32s-.93,.5-1.29,.87c-.36,.37-.64,.8-.85,1.31s-.31,1.05-.31,1.64,.1,1.15,.31,1.66c.21,.51,.49,.95,.86,1.32,.37,.37,.8,.67,1.29,.88,.49,.21,1.03,.32,1.6,.32,1.25,0,2.38-.53,3.38-1.6v4.64l-.4,.14c-.6,.21-1.16,.37-1.68,.47-.52,.1-1.03,.15-1.54,.15-1.04,0-2.04-.2-2.99-.59-.95-.39-1.79-.95-2.52-1.66-.73-.71-1.31-1.56-1.75-2.54-.44-.98-.66-2.05-.66-3.21s.22-2.22,.65-3.19c.43-.97,1.01-1.8,1.74-2.5,.73-.7,1.57-1.25,2.53-1.64,.96-.39,1.97-.59,3.02-.59,.6,0,1.19,.06,1.77,.19,.58,.13,1.19,.32,1.83,.59v4.68Z"/>
    <path d="M433.84,737.36h-4.66v2.52h4.4v3.32h-4.4v2.6h4.66v3.32h-8.58v-15.08h8.58v3.32Z"/>
    <path d="M440.58,734.04v11.76h4.7v3.32h-8.62v-15.08h3.92Z"/>
    <path d="M451.22,734.04v11.76h4.7v3.32h-8.62v-15.08h3.92Z"/>
    <path d="M467.8,746.5h-5.6l-.9,2.62h-4.18l5.74-15.08h4.28l5.74,15.08h-4.18l-.9-2.62Zm-1.04-2.98l-1.76-5.02-1.76,5.02h3.52Z"/>
    <path d="M479.66,737.36v11.76h-3.92v-11.76h-3.22v-3.32h10.36v3.32h-3.22Z"/>
    <path d="M488.54,734.04v15.08h-3.92v-15.08h3.92Z"/>
    <path d="M491.02,741.58c0-1.12,.21-2.16,.62-3.13s.99-1.81,1.72-2.53c.73-.72,1.61-1.28,2.63-1.69,1.02-.41,2.14-.61,3.37-.61s2.33,.2,3.36,.61c1.03,.41,1.91,.97,2.65,1.69s1.32,1.56,1.73,2.53,.62,2.01,.62,3.13-.21,2.16-.62,3.13-.99,1.81-1.73,2.53-1.62,1.28-2.65,1.69c-1.03,.41-2.15,.61-3.36,.61s-2.35-.2-3.37-.61c-1.02-.41-1.9-.97-2.63-1.69-.73-.72-1.31-1.56-1.72-2.53s-.62-2.01-.62-3.13Zm4.1,0c0,.6,.11,1.15,.34,1.66s.53,.95,.92,1.32c.39,.37,.84,.66,1.35,.87,.51,.21,1.06,.31,1.63,.31s1.12-.1,1.63-.31c.51-.21,.97-.5,1.36-.87,.39-.37,.7-.81,.93-1.32,.23-.51,.34-1.06,.34-1.66s-.11-1.15-.34-1.66c-.23-.51-.54-.95-.93-1.32-.39-.37-.85-.66-1.36-.87-.51-.21-1.06-.31-1.63-.31s-1.12,.1-1.63,.31c-.51,.21-.96,.5-1.35,.87-.39,.37-.69,.81-.92,1.32s-.34,1.06-.34,1.66Z"/>
    <path d="M510.2,749.12v-15.08h3.92l7.24,9.22v-9.22h3.9v15.08h-3.9l-7.24-9.22v9.22h-3.92Z"/>
    <path d="M543.86,737.36h-4.72v2.52h4.3v3.32h-4.3v5.92h-3.92v-15.08h8.64v3.32Z"/>
    <path d="M545.5,741.58c0-1.12,.21-2.16,.62-3.13,.41-.97,.99-1.81,1.72-2.53s1.61-1.28,2.63-1.69c1.02-.41,2.14-.61,3.37-.61s2.33,.2,3.36,.61c1.03,.41,1.91,.97,2.65,1.69s1.32,1.56,1.73,2.53c.41,.97,.62,2.01,.62,3.13s-.21,2.16-.62,3.13c-.41,.97-.99,1.81-1.73,2.53s-1.62,1.28-2.65,1.69c-1.03,.41-2.15,.61-3.36,.61s-2.35-.2-3.37-.61c-1.02-.41-1.9-.97-2.63-1.69s-1.31-1.56-1.72-2.53c-.41-.97-.62-2.01-.62-3.13Zm4.1,0c0,.6,.11,1.15,.34,1.66s.53,.95,.92,1.32c.39,.37,.84,.66,1.35,.87,.51,.21,1.06,.31,1.63,.31s1.12-.1,1.63-.31c.51-.21,.97-.5,1.36-.87,.39-.37,.7-.81,.93-1.32s.34-1.06,.34-1.66-.11-1.15-.34-1.66-.54-.95-.93-1.32c-.39-.37-.85-.66-1.36-.87-.51-.21-1.06-.31-1.63-.31s-1.12,.1-1.63,.31c-.51,.21-.96,.5-1.35,.87-.39,.37-.69,.81-.92,1.32s-.34,1.06-.34,1.66Z"/>
    <path d="M577.22,749.12h-4.88l-3.74-5.8v5.8h-3.92v-15.08h6.1c.84,0,1.57,.12,2.2,.37s1.14,.58,1.55,1.01c.41,.43,.71,.92,.92,1.48,.21,.56,.31,1.16,.31,1.8,0,1.15-.28,2.08-.83,2.79s-1.37,1.2-2.45,1.45l4.74,6.18Zm-8.62-8.34h.74c.77,0,1.37-.16,1.78-.48,.41-.32,.62-.78,.62-1.38s-.21-1.06-.62-1.38c-.41-.32-1.01-.48-1.78-.48h-.74v3.72Z"/>
    <path d="M578.18,749.12l2.56-15.08h3.88l3.02,8.04,3-8.04h3.88l2.56,15.08h-3.9l-1.3-8.68-3.56,8.68h-1.56l-3.38-8.68-1.3,8.68h-3.9Z"/>
  </g>
  <g>
    <path d="M895.51,512.5v4.72h2.52v-4.3h3.32v4.3h5.92v3.92h-15.08v-8.64h3.32Z"/>
    <path d="M892.18,506.24h15.08v3.92h-15.08v-3.92Z"/>
    <path d="M892.18,499.16h11.76v-4.7h3.32v8.62h-15.08v-3.92Z"/>
    <path d="M892.18,488.52h11.76v-4.7h3.32v8.62h-15.08v-3.92Z"/>
    <path d="M897.22,464.14c-1.11,.91-1.66,2.03-1.66,3.36,0,.59,.11,1.13,.32,1.63s.5,.93,.87,1.29c.37,.36,.8,.64,1.31,.85,.51,.21,1.05,.31,1.64,.31s1.15-.1,1.66-.31c.51-.21,.95-.49,1.32-.86s.67-.8,.88-1.29c.21-.49,.32-1.03,.32-1.6,0-1.25-.53-2.38-1.6-3.38h4.64l.14,.4c.21,.6,.37,1.16,.47,1.68,.1,.52,.15,1.03,.15,1.54,0,1.04-.2,2.04-.59,2.99-.39,.95-.95,1.79-1.66,2.52-.71,.73-1.56,1.31-2.54,1.75-.98,.44-2.05,.66-3.21,.66s-2.22-.22-3.19-.65-1.8-1.01-2.5-1.74c-.7-.73-1.25-1.57-1.64-2.53-.39-.96-.59-1.97-.59-3.02,0-.6,.06-1.19,.19-1.77,.13-.58,.32-1.19,.59-1.83h4.68Z"/>
    <path d="M904.64,452.06v5.6l2.62,.9v4.18l-15.08-5.74v-4.28l15.08-5.74v4.18l-2.62,.9Zm-2.98,1.04l-5.02,1.76,5.02,1.76v-3.52Z"/>
    <path d="M907.26,445.26h-15.08v-3.92l9.22-7.24h-9.22v-3.9h15.08v3.9l-9.22,7.24h9.22v3.92Z"/>
    <path d="M897.22,415.98c-1.11,.91-1.66,2.03-1.66,3.36,0,.59,.11,1.13,.32,1.63s.5,.93,.87,1.29c.37,.36,.8,.64,1.31,.85,.51,.21,1.05,.31,1.64,.31s1.15-.1,1.66-.31c.51-.21,.95-.49,1.32-.86s.67-.8,.88-1.29c.21-.49,.32-1.03,.32-1.6,0-1.25-.53-2.38-1.6-3.38h4.64l.14,.4c.21,.6,.37,1.16,.47,1.68,.1,.52,.15,1.03,.15,1.54,0,1.04-.2,2.04-.59,2.99-.39,.95-.95,1.79-1.66,2.52-.71,.73-1.56,1.31-2.54,1.75-.98,.44-2.05,.66-3.21,.66s-2.22-.22-3.19-.65-1.8-1.01-2.5-1.74c-.7-.73-1.25-1.57-1.64-2.53-.39-.96-.59-1.97-.59-3.02,0-.6,.06-1.19,.19-1.77,.13-.58,.32-1.19,.59-1.83h4.68Z"/>
    <path d="M895.51,404.92v4.66h2.52v-4.4h3.32v4.4h2.6v-4.66h3.32v8.58h-15.08v-8.58h3.32Z"/>
    <path d="M892.18,398.18h11.76v-4.7h3.32v8.62h-15.08v-3.92Z"/>
    <path d="M892.18,387.54h11.76v-4.7h3.32v8.62h-15.08v-3.92Z"/>
    <path d="M904.64,370.96v5.6l2.62,.9v4.18l-15.08-5.74v-4.28l15.08-5.74v4.18l-2.62,.9Zm-2.98,1.04l-5.02,1.76,5.02,1.76v-3.52Z"/>
    <path d="M895.51,359.1h11.76v3.92h-11.76v3.22h-3.32v-10.36h3.32v3.22Z"/>
    <path d="M892.18,350.22h15.08v3.92h-15.08v-3.92Z"/>
    <path d="M899.72,347.74c-1.12,0-2.16-.21-3.13-.62-.97-.41-1.81-.99-2.53-1.72-.72-.73-1.28-1.61-1.69-2.63-.41-1.02-.61-2.14-.61-3.37s.2-2.33,.61-3.36c.41-1.03,.97-1.91,1.69-2.65s1.56-1.32,2.53-1.73c.97-.41,2.01-.62,3.13-.62s2.16,.21,3.13,.62c.97,.41,1.81,.99,2.53,1.73s1.28,1.62,1.69,2.65c.41,1.03,.61,2.15,.61,3.36s-.2,2.35-.61,3.37c-.41,1.02-.97,1.9-1.69,2.63-.72,.73-1.56,1.31-2.53,1.72-.97,.41-2.01,.62-3.13,.62Zm0-4.1c.6,0,1.15-.11,1.66-.34s.95-.53,1.32-.92c.37-.39,.66-.84,.87-1.35,.21-.51,.31-1.06,.31-1.63s-.1-1.12-.31-1.63c-.21-.51-.5-.97-.87-1.36-.37-.39-.81-.7-1.32-.93-.51-.23-1.06-.34-1.66-.34s-1.15,.11-1.66,.34c-.51,.23-.95,.54-1.32,.93-.37,.39-.66,.85-.87,1.36-.21,.51-.31,1.06-.31,1.63s.1,1.12,.31,1.63c.21,.51,.5,.96,.87,1.35,.37,.39,.81,.69,1.32,.92s1.06,.34,1.66,.34Z"/>
    <path d="M907.26,328.56h-15.08v-3.92l9.22-7.24h-9.22v-3.9h15.08v3.9l-9.22,7.24h9.22v3.92Z"/>
    <path d="M895.51,294.9v4.72h2.52v-4.3h3.32v4.3h5.92v3.92h-15.08v-8.64h3.32Z"/>
    <path d="M899.72,293.26c-1.12,0-2.16-.21-3.13-.62-.97-.41-1.81-.99-2.53-1.72-.72-.73-1.28-1.61-1.69-2.63-.41-1.02-.61-2.14-.61-3.37s.2-2.33,.61-3.36c.41-1.03,.97-1.91,1.69-2.65s1.56-1.32,2.53-1.73c.97-.41,2.01-.62,3.13-.62s2.16,.21,3.13,.62c.97,.41,1.81,.99,2.53,1.73s1.28,1.62,1.69,2.65c.41,1.03,.61,2.15,.61,3.36s-.2,2.35-.61,3.37c-.41,1.02-.97,1.9-1.69,2.63-.72,.73-1.56,1.31-2.53,1.72-.97,.41-2.01,.62-3.13,.62Zm0-4.1c.6,0,1.15-.11,1.66-.34s.95-.53,1.32-.92c.37-.39,.66-.84,.87-1.35,.21-.51,.31-1.06,.31-1.63s-.1-1.12-.31-1.63c-.21-.51-.5-.97-.87-1.36-.37-.39-.81-.7-1.32-.93-.51-.23-1.06-.34-1.66-.34s-1.15,.11-1.66,.34c-.51,.23-.95,.54-1.32,.93-.37,.39-.66,.85-.87,1.36-.21,.51-.31,1.06-.31,1.63s.1,1.12,.31,1.63c.21,.51,.5,.96,.87,1.35,.37,.39,.81,.69,1.32,.92s1.06,.34,1.66,.34Z"/>
    <path d="M907.26,261.54v4.88l-5.8,3.74h5.8v3.92h-15.08v-6.1c0-.84,.12-1.57,.37-2.2,.25-.63,.58-1.14,1.01-1.55,.43-.41,.92-.71,1.48-.92,.56-.21,1.16-.31,1.8-.31,1.15,0,2.08,.28,2.79,.83,.71,.55,1.2,1.37,1.45,2.45l6.18-4.74Zm-8.34,8.62v-.74c0-.77-.16-1.37-.48-1.78-.32-.41-.78-.62-1.38-.62s-1.06,.21-1.38,.62c-.32,.41-.48,1.01-.48,1.78v.74h3.72Z"/>
    <path d="M907.26,260.58l-15.08-2.56v-3.88l8.04-3.02-8.04-3v-3.88l15.08-2.56v3.9l-8.68,1.3,8.68,3.56v1.56l-8.68,3.38,8.68,1.3v3.9Z"/>
  </g>
  <g>
    <path d="M368.13,659.62h8.49v-8.73h5.88v22.62h-5.88v-9.33h-8.49v9.33h-5.88v-22.62h5.88v8.73Z"/>
    <path d="M386.22,662.2c0-1.68,.31-3.25,.93-4.7s1.48-2.71,2.58-3.79c1.1-1.08,2.42-1.92,3.95-2.54,1.53-.61,3.21-.92,5.05-.92s3.5,.3,5.04,.92,2.87,1.46,3.97,2.54c1.11,1.08,1.97,2.34,2.6,3.79,.62,1.45,.93,3.01,.93,4.7s-.31,3.25-.93,4.69c-.62,1.45-1.49,2.71-2.6,3.79-1.11,1.08-2.43,1.93-3.97,2.54-1.54,.61-3.22,.92-5.04,.92s-3.53-.3-5.05-.92c-1.53-.61-2.85-1.46-3.95-2.54-1.1-1.08-1.96-2.34-2.58-3.79-.62-1.45-.93-3.01-.93-4.69Zm6.15,0c0,.9,.17,1.73,.51,2.49,.34,.76,.8,1.42,1.38,1.98,.58,.56,1.25,1,2.02,1.3,.77,.31,1.58,.46,2.45,.46s1.67-.15,2.45-.46c.77-.31,1.45-.75,2.04-1.3,.59-.56,1.05-1.22,1.39-1.98,.34-.76,.51-1.59,.51-2.49s-.17-1.73-.51-2.49-.81-1.42-1.39-1.98c-.59-.56-1.27-.99-2.04-1.3-.77-.31-1.59-.46-2.45-.46s-1.68,.16-2.45,.46c-.77,.31-1.45,.75-2.02,1.3-.58,.56-1.04,1.22-1.38,1.98s-.51,1.59-.51,2.49Z"/>
    <path d="M423.33,655.87v17.64h-5.88v-17.64h-4.83v-4.98h15.54v4.98h-4.83Z"/>
    <path d="M443.64,655.87h-6.99v3.78h6.6v4.98h-6.6v3.9h6.99v4.98h-12.87v-22.62h12.87v4.98Z"/>
    <path d="M453.75,650.89v17.64h7.05v4.98h-12.93v-22.62h5.88Z"/>
    <path d="M479.91,650.89v22.62h-5.88v-22.62h5.88Z"/>
    <path d="M484.65,673.51v-22.62h5.88l10.86,13.83v-13.83h5.85v22.62h-5.85l-10.86-13.83v13.83h-5.88Z"/>
    <path d="M524.94,655.87h-7.08v3.78h6.45v4.98h-6.45v8.88h-5.88v-22.62h12.96v4.98Z"/>
    <path d="M527.4,662.2c0-1.68,.31-3.25,.93-4.7,.62-1.45,1.48-2.71,2.58-3.79,1.1-1.08,2.42-1.92,3.94-2.54,1.53-.61,3.21-.92,5.06-.92s3.5,.3,5.04,.92c1.54,.61,2.86,1.46,3.97,2.54s1.97,2.34,2.59,3.79,.93,3.01,.93,4.7-.31,3.25-.93,4.69c-.62,1.45-1.48,2.71-2.59,3.79s-2.44,1.93-3.97,2.54c-1.54,.61-3.22,.92-5.04,.92s-3.53-.3-5.06-.92c-1.53-.61-2.84-1.46-3.94-2.54-1.1-1.08-1.96-2.34-2.58-3.79-.62-1.45-.93-3.01-.93-4.69Zm6.15,0c0,.9,.17,1.73,.51,2.49,.34,.76,.8,1.42,1.38,1.98s1.25,1,2.03,1.3c.77,.31,1.58,.46,2.45,.46s1.67-.15,2.44-.46c.77-.31,1.45-.75,2.04-1.3s1.05-1.22,1.4-1.98c.34-.76,.51-1.59,.51-2.49s-.17-1.73-.51-2.49c-.34-.76-.81-1.42-1.4-1.98-.59-.56-1.27-.99-2.04-1.3-.77-.31-1.58-.46-2.44-.46s-1.68,.16-2.45,.46c-.77,.31-1.45,.75-2.03,1.3-.58,.56-1.04,1.22-1.38,1.98s-.51,1.59-.51,2.49Z"/>
  </g>
  <g>
    <path class="cls-3" d="M835.09,230.21v291.55"/>
    <path class="cls-2" d="M835.09,215.45l4.63,14.26h-9.26l4.63-14.26Z"/>
  </g>
  <g>
    <g>
      <path class="cls-3" d="M917.47,210.28v317.78"/>
      <path class="cls-2" d="M917.47,542.81l-4.64-14.26h9.26l-4.62,14.26Z"/>
    </g>
    <g>
      <path class="cls-3" d="M755.61,210.28v316.08"/>
      <path class="cls-2" d="M755.61,541.12l-4.64-14.26h9.27l-4.63,14.26Z"/>
    </g>
  </g>
  <g>
    <path d="M807.65,467.13v7.01h4.02v-6.39h5.3v6.39h9.45v5.82h-24.08v-12.83h5.3Z"/>
    <path d="M802.35,457.83h18.78v-6.98h5.3v12.8h-24.08v-5.82Z"/>
    <path d="M802.35,442.03h24.08v5.82h-24.08v-5.82Z"/>
    <path d="M812.95,426.44v-11.55c1.28,0,2.44,.05,3.48,.15,1.04,.1,2.01,.3,2.91,.59,1.26,.42,2.37,.98,3.34,1.69,.97,.71,1.78,1.55,2.43,2.51,.65,.96,1.14,2.02,1.49,3.16,.34,1.15,.51,2.36,.51,3.62,0,1.74-.31,3.33-.93,4.77-.62,1.44-1.49,2.67-2.6,3.7-1.12,1.03-2.46,1.83-4.02,2.41-1.57,.57-3.29,.86-5.19,.86s-3.59-.28-5.16-.85c-1.57-.56-2.9-1.37-4.01-2.41-1.11-1.04-1.97-2.29-2.59-3.76-.62-1.47-.93-3.1-.93-4.9,0-2.34,.54-4.39,1.63-6.15,1.09-1.76,2.77-3.16,5.05-4.19l2.46,5.52c-1.32,.52-2.27,1.18-2.84,2-.57,.82-.86,1.76-.86,2.81,0,.87,.18,1.66,.53,2.38,.35,.71,.85,1.32,1.5,1.83,.65,.5,1.43,.9,2.35,1.19,.92,.29,1.94,.43,3.07,.43,1.02,0,1.97-.12,2.84-.37s1.63-.62,2.27-1.11c.64-.49,1.13-1.11,1.49-1.84,.35-.73,.53-1.58,.53-2.55,0-.57-.07-1.13-.21-1.66s-.36-1.01-.67-1.44c-.31-.43-.71-.78-1.2-1.05s-1.09-.47-1.79-.56v4.78h-4.86Z"/>
    <path d="M811.64,405.38v-8.41h-9.29v-5.82h24.08v5.82h-9.93v8.41h9.93v5.82h-24.08v-5.82h9.29Z"/>
    <path d="M807.65,377.96h18.78v5.82h-18.78v4.78h-5.3v-15.39h5.3v4.78Z"/>
    <path d="M802.35,354.67h24.08v5.82h-24.08v-5.82Z"/>
    <path d="M826.43,349.98h-24.08v-5.82l14.72-10.75h-14.72v-5.79h24.08v5.79l-14.72,10.75h14.72v5.82Z"/>
    <path d="M807.65,310.09v7.01h4.02v-6.39h5.3v6.39h9.45v5.82h-24.08v-12.83h5.3Z"/>
    <path d="M814.39,307.65c-1.79,0-3.45-.31-5-.92-1.54-.61-2.89-1.47-4.04-2.55-1.15-1.09-2.05-2.39-2.7-3.91-.65-1.52-.97-3.18-.97-5s.32-3.47,.97-4.99,1.55-2.84,2.7-3.94c1.15-1.1,2.5-1.96,4.04-2.57,1.54-.61,3.21-.92,5-.92s3.46,.31,5,.92c1.54,.61,2.89,1.47,4.04,2.57,1.15,1.1,2.05,2.41,2.7,3.94s.97,3.19,.97,4.99-.32,3.49-.97,5c-.65,1.51-1.55,2.82-2.7,3.91-1.15,1.09-2.5,1.94-4.04,2.55-1.54,.61-3.21,.92-5,.92Zm0-6.09c.96,0,1.84-.17,2.65-.5,.81-.34,1.51-.79,2.11-1.37,.6-.57,1.06-1.24,1.39-2.01,.33-.76,.49-1.57,.49-2.42s-.16-1.66-.49-2.42-.79-1.44-1.39-2.02c-.6-.58-1.3-1.04-2.11-1.38-.81-.34-1.69-.51-2.65-.51s-1.84,.17-2.65,.51c-.81,.34-1.51,.8-2.11,1.38-.6,.58-1.06,1.26-1.39,2.02s-.49,1.57-.49,2.42,.16,1.66,.49,2.42c.33,.76,.79,1.43,1.39,2.01,.6,.57,1.3,1.03,2.11,1.37,.81,.34,1.69,.5,2.65,.5Z"/>
  </g>
  <path class="cls-4" d="M986.35,34.89c4.42,0,8,3.58,8,8V206.89c0,4.42-3.58,8-8,8h-303.32c-4.42,0-8-3.58-8-8V42.89c0-4.42,3.58-8,8-8h303.32Z"/>
  <g>
    <path d="M768.84,118.15v18.78h-5.82v-18.78h-4.78v-5.3h15.39v5.3h-4.78Z"/>
    <path d="M794.83,136.93h-7.25l-5.55-9.26v9.26h-5.82v-24.08h9.06c1.25,0,2.34,.2,3.27,.59,.93,.39,1.7,.93,2.3,1.61,.6,.68,1.06,1.47,1.37,2.36,.31,.89,.46,1.85,.46,2.88,0,1.83-.41,3.32-1.23,4.46-.82,1.14-2.03,1.91-3.64,2.32l7.04,9.87Zm-12.8-13.32h1.1c1.15,0,2.03-.26,2.64-.77,.61-.51,.92-1.25,.92-2.2s-.31-1.69-.92-2.2c-.61-.51-1.5-.77-2.64-.77h-1.1v5.94Z"/>
    <path d="M810.99,132.75h-8.32l-1.34,4.18h-6.21l8.53-24.08h6.36l8.53,24.08h-6.21l-1.34-4.18Zm-1.54-4.76l-2.61-8.02-2.61,8.02h5.23Z"/>
    <path d="M823.35,112.85l5.41,14.66,5.44-14.66h6.33l-9.45,24.08h-4.63l-9.42-24.08h6.33Z"/>
    <path d="M855.61,118.15h-6.92v4.02h6.54v5.3h-6.54v4.15h6.92v5.3h-12.74v-24.08h12.74v5.3Z"/>
    <path d="M865.62,112.85v18.78h6.98v5.3h-12.8v-24.08h5.82Z"/>
    <path d="M888.34,118.15h-6.92v4.02h6.54v5.3h-6.54v4.15h6.92v5.3h-12.74v-24.08h12.74v5.3Z"/>
    <path d="M911.15,136.93h-7.25l-5.55-9.26v9.26h-5.82v-24.08h9.06c1.25,0,2.34,.2,3.27,.59,.93,.39,1.7,.93,2.3,1.61,.6,.68,1.06,1.47,1.37,2.36,.31,.89,.46,1.85,.46,2.88,0,1.83-.41,3.32-1.23,4.46-.82,1.14-2.04,1.91-3.64,2.32l7.04,9.87Zm-12.8-13.32h1.1c1.15,0,2.03-.26,2.64-.77,.61-.51,.92-1.25,.92-2.2s-.31-1.69-.92-2.2c-.61-.51-1.5-.77-2.64-.77h-1.1v5.94Z"/>
  </g>
  <g>
    <path d="M91.77,679.98h11.55c0,1.28-.05,2.44-.15,3.48-.1,1.04-.3,2.01-.59,2.91-.42,1.26-.98,2.37-1.69,3.34-.71,.97-1.55,1.78-2.51,2.43s-2.02,1.14-3.16,1.48c-1.15,.34-2.36,.51-3.62,.51-1.74,0-3.33-.31-4.77-.93-1.44-.62-2.67-1.49-3.7-2.6-1.03-1.12-1.83-2.46-2.41-4.02-.57-1.57-.86-3.29-.86-5.19s.28-3.59,.85-5.16c.56-1.57,1.37-2.9,2.41-4.01,1.04-1.11,2.29-1.97,3.76-2.59,1.47-.62,3.1-.93,4.9-.93,2.34,0,4.39,.54,6.15,1.63,1.76,1.09,3.16,2.77,4.19,5.05l-5.52,2.46c-.52-1.32-1.18-2.27-2-2.84-.82-.58-1.76-.86-2.81-.86-.87,0-1.66,.18-2.38,.53-.71,.35-1.32,.85-1.83,1.5-.5,.65-.9,1.43-1.19,2.35-.29,.92-.43,1.94-.43,3.07,0,1.02,.12,1.97,.37,2.84,.25,.87,.62,1.63,1.11,2.27,.49,.64,1.11,1.13,1.84,1.49,.73,.35,1.58,.53,2.55,.53,.57,0,1.13-.07,1.66-.21,.53-.14,1.01-.36,1.44-.67,.43-.31,.78-.71,1.05-1.2,.28-.49,.47-1.09,.56-1.79h-4.78v-4.85Z"/>
    <path d="M112.83,669.38v13.09c0,.7,.02,1.42,.07,2.16,.05,.73,.2,1.4,.45,2,.25,.6,.64,1.08,1.17,1.45,.53,.37,1.29,.56,2.26,.56s1.72-.19,2.24-.56c.52-.37,.92-.86,1.17-1.45,.26-.6,.41-1.26,.46-2,.05-.73,.07-1.45,.07-2.16v-13.09h5.79v13.96c0,3.75-.8,6.48-2.39,8.21-1.59,1.73-4.04,2.59-7.35,2.59s-5.76-.86-7.37-2.59c-1.6-1.72-2.41-4.46-2.41-8.21v-13.96h5.82Z"/>
    <path d="M143.96,674.68h-6.92v4.02h6.53v5.3h-6.53v4.15h6.92v5.3h-12.74v-24.08h12.74v5.3Z"/>
    <path d="M160.44,675.54c-.63-.55-1.27-.96-1.9-1.23-.63-.27-1.25-.4-1.84-.4-.75,0-1.37,.19-1.84,.57-.48,.38-.71,.88-.71,1.5,0,.43,.12,.78,.36,1.05,.24,.28,.55,.52,.94,.72s.82,.38,1.31,.53c.48,.15,.97,.31,1.44,.48,1.9,.68,3.29,1.59,4.17,2.73,.88,1.14,1.32,2.62,1.32,4.46,0,1.24-.19,2.35-.58,3.35-.39,1-.95,1.86-1.69,2.57-.74,.71-1.65,1.27-2.73,1.66-1.08,.39-2.3,.59-3.67,.59-2.83,0-5.46-.91-7.87-2.71l2.5-5.05c.87,.83,1.73,1.45,2.58,1.85,.85,.41,1.69,.61,2.52,.61,.95,0,1.66-.23,2.12-.7,.46-.47,.7-1,.7-1.6,0-.36-.06-.68-.18-.94-.12-.27-.32-.51-.59-.73-.28-.22-.64-.43-1.08-.62-.45-.19-.98-.4-1.62-.64-.75-.25-1.49-.54-2.21-.85-.72-.31-1.37-.72-1.93-1.23-.56-.51-1.02-1.15-1.37-1.93-.35-.78-.52-1.76-.52-2.95s.18-2.27,.55-3.24c.37-.97,.88-1.8,1.54-2.49,.66-.69,1.48-1.23,2.44-1.61,.96-.38,2.03-.58,3.22-.58,1.11,0,2.27,.17,3.48,.5,1.21,.33,2.37,.81,3.48,1.45l-2.32,4.89Z"/>
    <path d="M175.98,674.68v18.78h-5.82v-18.78h-4.78v-5.3h15.39v5.3h-4.78Z"/>
  </g>
  <g>
    <path d="M1510.45,689.28h-8.32l-1.34,4.18h-6.21l8.53-24.08h6.36l8.52,24.08h-6.21l-1.34-4.18Zm-1.54-4.76l-2.61-8.02-2.61,8.02h5.23Z"/>
    <path d="M1520.55,669.38h8.61c1.53,0,2.96,.33,4.29,.99,1.34,.66,2.5,1.54,3.5,2.63s1.79,2.37,2.36,3.83c.57,1.46,.86,2.99,.86,4.58s-.28,3.09-.85,4.55c-.56,1.46-1.35,2.74-2.35,3.85-1,1.11-2.17,1.99-3.5,2.65-1.34,.66-2.78,.99-4.32,.99h-8.61v-24.08Zm5.82,18.78h1.34c1.01,0,1.91-.17,2.7-.51,.79-.34,1.46-.81,2-1.41,.54-.6,.96-1.3,1.25-2.12s.43-1.72,.43-2.7-.15-1.85-.45-2.68c-.3-.83-.72-1.54-1.26-2.14-.54-.6-1.21-1.06-2-1.41-.79-.34-1.68-.51-2.67-.51h-1.34v13.48Z"/>
    <path d="M1542.89,693.46l3.8-24.08h5.76l4.49,12.84,4.46-12.84h5.76l3.8,24.08h-5.79l-1.93-13.86-5.29,13.86h-2.32l-5.02-13.86-1.93,13.86h-5.79Z"/>
    <path d="M1580.47,669.38v24.08h-5.82v-24.08h5.82Z"/>
    <path d="M1585.16,693.46v-24.08h5.82l10.75,14.72v-14.72h5.79v24.08h-5.79l-10.75-14.72v14.72h-5.82Z"/>
  </g>
</svg>