<?xml version="1.0" encoding="UTF-8"?>
<svg id="Layer_1" data-name="Layer 1" xmlns="http://www.w3.org/2000/svg" viewBox="0 0 826.77 551.41">
  <defs>
    <style>
      .cls-1, .cls-2, .cls-3 {
        fill: none;
      }

      .cls-4 {
        clip-path: url(#clippath);
      }

      .cls-5 {
        fill: #fff;
      }

      .cls-2 {
        stroke-width: 3px;
      }

      .cls-2, .cls-3 {
        stroke: #000;
        stroke-miterlimit: 1.45;
      }
    </style>
    <clipPath id="clippath">
      <rect class="cls-1" x="4.38" y="4.7" width="817.92" height="542"/>
    </clipPath>
  </defs>
  <polygon class="cls-5" points="4.38 4.7 822.38 4.7 822.38 546.7 4.38 546.7 4.38 4.7 4.38 4.7"/>
  <polygon class="cls-5" points="4.38 4.7 822.38 4.7 822.38 546.7 4.38 546.7 4.38 4.7 4.38 4.7"/>
  <g class="cls-4">
    <polygon class="cls-5" points="4.38 4.7 822.38 4.7 822.38 546.7 4.38 546.7 4.38 4.7 4.38 4.7"/>
  </g>
  <rect class="cls-2" x="557.38" y="20.27" width="191" height="120" rx="5" ry="5"/>
  <path d="M638.59,84.81v-8.67h1.23v3.66h4.12v-3.66h1.23v8.67h-1.23v-4.1h-4.12v4.1h-1.23Zm11.34,.15c-.91,0-1.64-.3-2.18-.9-.54-.6-.81-1.41-.81-2.42s.27-1.83,.82-2.43c.54-.6,1.28-.89,2.22-.89s1.67,.3,2.22,.89c.55,.6,.82,1.4,.82,2.42s-.27,1.86-.82,2.45c-.55,.59-1.3,.89-2.26,.89h0Zm.02-.87c1.22,0,1.83-.82,1.83-2.47s-.6-2.44-1.81-2.44-1.8,.82-1.8,2.46,.59,2.46,1.78,2.46h0Zm6.77,.87c-.59,0-1.04-.17-1.37-.5-.33-.34-.49-.8-.49-1.4v-3.74h-.8v-.87h.8v-1.15l1.15-.11v1.27h1.66v.87h-1.66v3.53c0,.83,.36,1.25,1.08,1.25,.15,0,.34-.03,.56-.08v.8c-.36,.1-.66,.15-.93,.15h0Zm7.24-.35c-.77,.23-1.43,.35-1.99,.35-.94,0-1.7-.31-2.29-.93-.59-.62-.89-1.43-.89-2.42s.26-1.76,.78-2.37c.52-.62,1.19-.93,2-.93,.77,0,1.36,.27,1.78,.82,.42,.55,.63,1.32,.63,2.33v.36h-4.02c.17,1.51,.91,2.27,2.22,2.27,.48,0,1.07-.13,1.77-.39v.91Zm-3.94-3.66h2.81c0-1.18-.44-1.77-1.32-1.77s-1.38,.59-1.48,1.77h0Zm5.96,3.87v-9.25h1.15v9.25h-1.15Z"/>
  <rect class="cls-2" x="288.38" y="211.7" width="191" height="120" rx="5" ry="5"/>
  <path d="M367.76,276.24v-8.67h1.23v7.75h3.9v.92h-5.13Zm10.79-3.32l-1.48-3.74-1.48,3.74h2.96Zm1.3,3.32l-.94-2.4h-3.67l-.95,2.4h-1.14l3.44-8.67h1.22l3.39,8.67h-1.33Zm2.58,0v-8.67h2.25c.87,0,1.53,.16,1.99,.49,.46,.33,.69,.8,.69,1.42,0,1.05-.59,1.8-1.78,2.24,1.42,.43,2.13,1.22,2.13,2.35,0,.7-.24,1.24-.7,1.61-.47,.37-1.14,.56-2.03,.56h-2.55Zm1.22-.92h.25c.9,0,1.49-.06,1.75-.17,.51-.21,.76-.61,.76-1.19,0-.52-.23-.94-.69-1.29-.46-.34-1.04-.51-1.73-.51h-.35v3.16Zm0-3.94h.39c.66,0,1.17-.14,1.53-.42,.36-.28,.54-.68,.54-1.19,0-.85-.66-1.28-1.98-1.28h-.48v2.89Zm5.68,4.86v-8.67h4.85v.92h-3.62v2.78h3.03v.91h-3.03v3.14h3.87v.92h-5.1Zm6.5,0v-8.67h1.23v7.75h3.9v.92h-5.13Z"/>
  <rect class="cls-2" x="615.93" y="215.99" width="191" height="120" rx="5" ry="5"/>
  <path d="M691.07,280.52v-7.75h-3.08v-.92h7.38v.92h-3.08v7.75h-1.23Zm5.56,0v-6.36h1.15v1.2c.46-.89,1.12-1.34,1.99-1.34,.12,0,.24,.01,.37,.03v1.08c-.2-.07-.38-.1-.53-.1-.73,0-1.34,.43-1.83,1.3v4.2h-1.15Zm8.19-.81c-.69,.64-1.36,.95-2,.95-.53,0-.96-.17-1.31-.49-.35-.33-.52-.75-.52-1.25,0-.7,.29-1.23,.88-1.6,.58-.37,1.42-.56,2.51-.56h.28v-.77c0-.74-.38-1.11-1.14-1.11-.61,0-1.27,.19-1.97,.56v-.96c.78-.32,1.51-.47,2.18-.47s1.24,.16,1.57,.48c.34,.32,.51,.82,.51,1.49v2.88c0,.66,.2,.99,.61,.99,.05,0,.12,0,.22-.02l.08,.64c-.26,.12-.55,.19-.87,.19-.54,0-.88-.32-1.03-.95h0Zm-.17-.63v-1.65h-.39c-.63-.01-1.14,.11-1.54,.35-.39,.24-.59,.56-.59,.95,0,.28,.1,.51,.29,.7,.2,.19,.43,.29,.71,.29,.48,0,.98-.21,1.5-.64h0Zm4.83,1.44l-2.37-6.36h1.15l1.85,4.95,1.95-4.95h1.08l-2.51,6.36h-1.15Zm9.56-.2c-.77,.23-1.44,.35-1.99,.35-.94,0-1.7-.31-2.29-.93-.59-.62-.89-1.43-.89-2.42s.26-1.76,.78-2.37c.52-.62,1.19-.92,2-.92,.77,0,1.36,.27,1.78,.82,.42,.55,.63,1.32,.63,2.33v.36h-4.02c.17,1.51,.91,2.27,2.22,2.27,.48,0,1.07-.13,1.77-.39v.91Zm-3.94-3.66h2.81c0-1.18-.44-1.77-1.32-1.77s-1.38,.59-1.48,1.77h0Zm5.96,3.87v-9.25h1.15v9.25h-1.15Zm8.13-.2c-.77,.23-1.44,.35-1.99,.35-.94,0-1.7-.31-2.29-.93-.59-.62-.89-1.43-.89-2.42s.26-1.76,.78-2.37c.52-.62,1.19-.92,2-.92,.77,0,1.36,.27,1.78,.82,.42,.55,.63,1.32,.63,2.33v.36h-4.02c.17,1.51,.91,2.27,2.22,2.27,.48,0,1.07-.13,1.77-.39v.91Zm-3.94-3.66h2.81c0-1.18-.44-1.77-1.32-1.77s-1.38,.59-1.48,1.77h0Zm5.96,3.87v-6.36h1.15v1.2c.46-.89,1.12-1.34,1.99-1.34,.12,0,.24,.01,.37,.03v1.08c-.2-.07-.38-.1-.53-.1-.73,0-1.34,.43-1.83,1.3v4.2h-1.15Z"/>
  <rect class="cls-2" x="19.38" y="20.27" width="191" height="120" rx="5" ry="5"/>
  <path d="M102.92,76.13h1.23v5.47c0,.87,.16,1.51,.48,1.9,.32,.4,.84,.6,1.54,.6s1.18-.19,1.46-.56c.29-.37,.43-1.01,.43-1.9v-5.51h1.08v5.5c0,1.18-.24,2.05-.73,2.58-.49,.54-1.26,.81-2.32,.81s-1.88-.28-2.4-.84c-.52-.56-.77-1.42-.77-2.59v-5.46Zm10.11,8.82c-.53,0-1.17-.12-1.92-.37v-1.06c.75,.38,1.41,.56,1.97,.56,.33,0,.61-.09,.83-.27,.22-.18,.33-.4,.33-.67,0-.4-.31-.72-.92-.98l-.67-.29c-1-.41-1.49-1.01-1.49-1.79,0-.56,.2-.99,.59-1.31,.39-.32,.93-.48,1.61-.48,.35,0,.8,.05,1.32,.15l.24,.05v.96c-.64-.19-1.16-.29-1.54-.29-.74,0-1.11,.27-1.11,.81,0,.35,.28,.64,.84,.88l.56,.23c.63,.27,1.07,.55,1.33,.84,.26,.29,.39,.66,.39,1.1,0,.56-.22,1.02-.66,1.38s-1.01,.54-1.69,.54h0Zm9.09-.35c-.77,.23-1.43,.35-1.99,.35-.94,0-1.7-.31-2.29-.93-.59-.62-.89-1.43-.89-2.42s.26-1.76,.78-2.37c.52-.62,1.19-.93,2-.93,.77,0,1.36,.27,1.78,.82,.42,.55,.63,1.32,.63,2.33v.36h-4.02c.17,1.51,.91,2.27,2.22,2.27,.48,0,1.07-.13,1.77-.39v.91Zm-3.94-3.66h2.81c0-1.18-.44-1.77-1.32-1.77s-1.38,.59-1.48,1.77h0Zm5.96,3.87v-6.36h1.15v1.2c.46-.89,1.12-1.34,1.99-1.34,.12,0,.24,.01,.37,.03v1.08c-.2-.07-.38-.1-.53-.1-.73,0-1.34,.43-1.83,1.3v4.2h-1.15Z"/>
  <rect class="cls-2" x="557.38" y="411.7" width="191" height="120" rx="5" ry="5"/>
  <path d="M637.61,476.24v-8.67h4.85v.92h-3.61v2.91h3.03v.91h-3.03v3.94h-1.23Zm6.47,0v-9.25h1.16v9.25h-1.16Zm3.47,0v-6.36h1.15v6.36h-1.15Zm0-7.52v-1.16h1.15v1.16h-1.15Zm3.49,9.63l.14-1c.67,.32,1.33,.48,1.97,.48,1.3,0,1.95-.69,1.95-2.07v-1c-.43,.89-1.12,1.34-2.1,1.34-.76,0-1.37-.28-1.82-.83-.45-.55-.67-1.3-.67-2.25s.26-1.76,.77-2.37c.51-.61,1.17-.91,1.99-.91,.71,0,1.32,.29,1.83,.87v-.73h1.16v4.63c0,1-.05,1.73-.16,2.21-.1,.48-.3,.87-.58,1.17-.5,.54-1.29,.8-2.35,.8-.74,0-1.45-.11-2.13-.34h0Zm4.06-4.32v-2.64c-.51-.53-1.06-.79-1.66-.79-.53,0-.95,.21-1.25,.64-.3,.43-.45,1.01-.45,1.75,0,1.4,.49,2.09,1.47,2.09,.67,0,1.3-.35,1.89-1.05h0Zm3.4,2.2v-9.25h1.16v4.08c.61-.89,1.35-1.34,2.24-1.34,.55,0,.99,.18,1.32,.53,.33,.35,.49,.82,.49,1.41v4.57h-1.15v-4.19c0-.47-.07-.81-.21-1.01-.14-.2-.37-.3-.69-.3-.71,0-1.37,.46-2,1.39v4.12h-1.16Zm9.36,.15c-.59,0-1.04-.17-1.37-.5-.33-.34-.49-.8-.49-1.4v-3.74h-.8v-.87h.8v-1.15l1.15-.11v1.27h1.66v.87h-1.66v3.53c0,.83,.36,1.25,1.08,1.25,.15,0,.34-.03,.56-.08v.8c-.35,.1-.66,.15-.93,.15h0Z"/>
  <path class="cls-5" d="M288.38,241.27h191v95.72c0,6.67-3.33,10-10,10h-171c-6.67,0-10-3.33-10-10v-95.72Z"/>
  <path class="cls-2" d="M288.38,241.27h191v95.72c0,6.67-3.33,10-10,10h-171c-6.67,0-10-3.33-10-10v-95.72Z"/>
  <path d="M369.32,284.54v-7.75h-3.08v-.92h7.38v.92h-3.08v7.75h-1.23Zm5.56,0v-6.36h1.15v1.19c.46-.89,1.12-1.34,1.99-1.34,.12,0,.24,.01,.37,.03v1.08c-.2-.07-.38-.1-.53-.1-.73,0-1.34,.43-1.83,1.3v4.2h-1.15Zm8.19-.81c-.69,.64-1.36,.96-2,.96-.53,0-.96-.17-1.31-.5-.35-.33-.52-.75-.52-1.25,0-.7,.29-1.23,.88-1.6,.58-.37,1.42-.56,2.51-.56h.28v-.77c0-.74-.38-1.11-1.14-1.11-.61,0-1.27,.19-1.97,.56v-.96c.78-.32,1.51-.48,2.19-.48s1.24,.16,1.57,.48c.34,.32,.51,.82,.51,1.49v2.88c0,.66,.2,.99,.61,.99,.05,0,.12,0,.22-.02l.08,.64c-.26,.12-.55,.19-.87,.19-.54,0-.88-.32-1.03-.96h0Zm-.17-.63v-1.65h-.39c-.63-.01-1.14,.11-1.53,.35-.39,.24-.59,.56-.59,.95,0,.28,.1,.51,.29,.7,.2,.19,.43,.29,.72,.29,.48,0,.98-.21,1.5-.64h0Zm4.83,1.44l-2.37-6.36h1.16l1.85,4.95,1.95-4.95h1.08l-2.51,6.36h-1.15Zm9.56-.21c-.77,.23-1.43,.35-1.99,.35-.94,0-1.7-.31-2.29-.93s-.89-1.43-.89-2.42,.26-1.76,.78-2.37c.52-.62,1.19-.93,2-.93,.77,0,1.37,.27,1.79,.82,.42,.55,.63,1.32,.63,2.33v.36h-4.02c.17,1.51,.91,2.27,2.22,2.27,.48,0,1.07-.13,1.77-.39v.91Zm-3.94-3.66h2.81c0-1.18-.44-1.78-1.32-1.78s-1.38,.59-1.48,1.78h0Zm5.96,3.87v-9.25h1.15v9.25h-1.15Z"/>
  <path d="M347.49,298.67v-8.67h1.71l2.4,6.71,2.47-6.71h1.52v8.67h-1.15v-7.06l-2.39,6.48h-1.19l-2.32-6.49v7.07h-1.05Zm13.65-.81c-.69,.64-1.36,.96-2,.96-.53,0-.96-.16-1.31-.49-.35-.33-.52-.75-.52-1.25,0-.7,.29-1.23,.88-1.6,.58-.37,1.42-.56,2.51-.56h.27v-.77c0-.74-.38-1.11-1.14-1.11-.61,0-1.27,.19-1.97,.56v-.95c.78-.32,1.5-.47,2.18-.47s1.23,.16,1.57,.48c.34,.32,.51,.82,.51,1.49v2.88c0,.66,.2,.99,.61,.99,.05,0,.12,0,.22-.02l.08,.64c-.26,.12-.55,.19-.87,.19-.54,0-.88-.32-1.03-.96h0Zm-.17-.63v-1.65h-.39c-.63-.01-1.14,.11-1.54,.35-.39,.24-.59,.56-.59,.95,0,.28,.1,.51,.29,.7,.19,.19,.43,.29,.71,.29,.48,0,.98-.21,1.5-.64h0Zm3.52,1.44v-6.36h1.15v1.2c.61-.89,1.36-1.34,2.24-1.34,.55,0,.99,.17,1.32,.52,.33,.35,.49,.82,.49,1.41v4.57h-1.15v-4.2c0-.47-.07-.81-.21-1.01-.14-.2-.37-.3-.69-.3-.71,0-1.37,.46-2,1.39v4.12h-1.15Zm10.73-.81c-.69,.64-1.36,.96-2,.96-.53,0-.96-.16-1.31-.49-.35-.33-.52-.75-.52-1.25,0-.7,.29-1.23,.88-1.6,.58-.37,1.42-.56,2.51-.56h.28v-.77c0-.74-.38-1.11-1.14-1.11-.61,0-1.27,.19-1.97,.56v-.95c.78-.32,1.51-.47,2.18-.47s1.24,.16,1.57,.48c.34,.32,.51,.82,.51,1.49v2.88c0,.66,.2,.99,.61,.99,.05,0,.12,0,.22-.02l.08,.64c-.26,.12-.55,.19-.87,.19-.54,0-.88-.32-1.03-.96h0Zm-.17-.63v-1.65h-.39c-.63-.01-1.14,.11-1.53,.35-.39,.24-.59,.56-.59,.95,0,.28,.1,.51,.29,.7,.2,.19,.43,.29,.71,.29,.48,0,.98-.21,1.5-.64h0Zm3.54,3.55l.13-1c.67,.32,1.33,.48,1.98,.48,1.3,0,1.95-.69,1.95-2.07v-1c-.43,.89-1.12,1.34-2.1,1.34-.76,0-1.37-.28-1.82-.83-.45-.55-.67-1.3-.67-2.24s.26-1.76,.77-2.37c.51-.61,1.17-.91,1.99-.91,.71,0,1.32,.29,1.83,.87v-.73h1.16v4.63c0,1-.05,1.73-.15,2.21-.1,.48-.3,.87-.58,1.17-.5,.54-1.29,.8-2.35,.8-.74,0-1.45-.11-2.13-.34h0Zm4.06-4.32v-2.64c-.51-.53-1.06-.79-1.66-.79-.53,0-.95,.21-1.25,.64-.3,.43-.45,1.01-.45,1.75,0,1.39,.49,2.09,1.47,2.09,.67,0,1.3-.35,1.89-1.05h0Zm8.06,2c-.77,.23-1.43,.35-1.99,.35-.94,0-1.7-.31-2.29-.93-.59-.62-.89-1.43-.89-2.42s.26-1.76,.78-2.37c.52-.62,1.19-.93,2-.93,.77,0,1.37,.27,1.79,.82,.42,.55,.63,1.32,.63,2.33v.36h-4.02c.17,1.51,.91,2.27,2.22,2.27,.48,0,1.07-.13,1.77-.39v.91Zm-3.94-3.66h2.81c0-1.18-.44-1.78-1.32-1.78s-1.38,.59-1.48,1.78h0Zm5.96,3.87v-6.36h1.15v1.2c.56-.89,1.29-1.34,2.17-1.34s1.43,.44,1.74,1.34c.55-.9,1.26-1.34,2.13-1.34,.56,0,1,.17,1.31,.5,.31,.33,.46,.79,.46,1.39v4.63h-1.16v-4.45c0-.73-.29-1.09-.86-1.09s-1.23,.42-1.88,1.27v4.27h-1.16v-4.45c0-.73-.29-1.1-.88-1.1s-1.21,.42-1.87,1.28v4.27h-1.15Zm15.87-.21c-.77,.23-1.44,.35-1.99,.35-.94,0-1.7-.31-2.29-.93-.59-.62-.89-1.43-.89-2.42s.26-1.76,.78-2.37c.52-.62,1.19-.93,2-.93,.77,0,1.36,.27,1.78,.82,.42,.55,.63,1.32,.63,2.33v.36h-4.02c.17,1.51,.91,2.27,2.22,2.27,.48,0,1.07-.13,1.77-.39v.91Zm-3.94-3.66h2.81c0-1.18-.44-1.78-1.32-1.78s-1.38,.59-1.48,1.78h0Zm5.96,3.87v-6.36h1.15v1.2c.61-.89,1.36-1.34,2.24-1.34,.55,0,.99,.17,1.32,.52,.33,.35,.49,.82,.49,1.41v4.57h-1.15v-4.2c0-.47-.07-.81-.21-1.01-.14-.2-.37-.3-.69-.3-.71,0-1.37,.46-2,1.39v4.12h-1.15Zm9.36,.15c-.59,0-1.04-.17-1.37-.5-.33-.34-.49-.8-.49-1.4v-3.74h-.8v-.87h.8v-1.15l1.15-.11v1.26h1.66v.87h-1.66v3.53c0,.83,.36,1.25,1.08,1.25,.15,0,.34-.02,.56-.08v.8c-.36,.1-.66,.15-.93,.15h0Z"/>
  <path d="M366.09,313.02c-.58,0-1.33-.13-2.23-.38v-1.22c.98,.45,1.78,.68,2.41,.68,.48,0,.87-.13,1.17-.38,.3-.25,.44-.59,.44-1,0-.34-.1-.63-.29-.87-.19-.24-.55-.5-1.07-.8l-.6-.35c-.74-.42-1.26-.82-1.56-1.19-.3-.37-.45-.81-.45-1.3,0-.67,.24-1.22,.73-1.65,.48-.43,1.1-.65,1.85-.65,.67,0,1.37,.11,2.12,.33v1.12c-.91-.36-1.6-.54-2.05-.54s-.78,.11-1.05,.34c-.28,.23-.42,.51-.42,.85,0,.29,.1,.55,.31,.77,.2,.22,.57,.49,1.11,.8l.62,.35c.75,.43,1.27,.83,1.57,1.21,.3,.38,.45,.83,.45,1.37,0,.75-.28,1.36-.84,1.82s-1.29,.68-2.21,.68h0Zm5.17,2.1l1.03-2.31-2.46-6.36h1.25l1.82,4.79,1.95-4.79h1.09l-3.48,8.68h-1.2Zm7.59-2.17c-.53,0-1.17-.12-1.92-.37v-1.06c.75,.38,1.41,.56,1.97,.56,.33,0,.61-.09,.83-.27,.22-.18,.33-.4,.33-.67,0-.39-.31-.72-.92-.98l-.67-.29c-1-.41-1.49-1.01-1.49-1.79,0-.56,.2-.99,.59-1.31,.39-.32,.93-.48,1.61-.48,.36,0,.79,.05,1.32,.15l.24,.05v.96c-.64-.19-1.16-.29-1.54-.29-.74,0-1.11,.27-1.11,.81,0,.35,.28,.64,.84,.88l.56,.24c.63,.26,1.07,.55,1.34,.84,.26,.29,.39,.66,.39,1.1,0,.56-.22,1.02-.66,1.38-.44,.36-1.01,.54-1.69,.54h0Zm6.34,0c-.59,0-1.04-.17-1.37-.5-.33-.34-.49-.8-.49-1.4v-3.74h-.8v-.87h.8v-1.15l1.15-.11v1.26h1.66v.87h-1.66v3.53c0,.83,.36,1.25,1.08,1.25,.15,0,.34-.03,.56-.08v.8c-.36,.1-.66,.15-.93,.15h0Zm7.24-.35c-.77,.23-1.44,.35-1.99,.35-.94,0-1.7-.31-2.29-.93-.59-.62-.89-1.43-.89-2.42s.26-1.76,.78-2.37c.52-.62,1.19-.93,2-.93,.77,0,1.36,.27,1.78,.82,.42,.55,.63,1.32,.63,2.33v.36h-4.02c.17,1.51,.91,2.27,2.22,2.27,.48,0,1.07-.13,1.77-.39v.91Zm-3.94-3.66h2.81c0-1.18-.44-1.78-1.32-1.78s-1.38,.59-1.48,1.78h0Zm5.96,3.87v-6.36h1.15v1.2c.56-.89,1.29-1.33,2.17-1.33s1.43,.44,1.74,1.33c.55-.89,1.26-1.34,2.13-1.34,.56,0,1,.16,1.31,.49,.31,.33,.46,.79,.46,1.39v4.63h-1.16v-4.45c0-.73-.29-1.09-.86-1.09s-1.23,.42-1.88,1.27v4.26h-1.16v-4.45c0-.73-.29-1.1-.88-1.1s-1.21,.43-1.87,1.28v4.26h-1.15Z"/>
  <rect class="cls-2" x="19.38" y="411.7" width="191" height="120" rx="5" ry="5"/>
  <path d="M101.42,472.92l-1.48-3.74-1.48,3.74h2.96Zm1.3,3.32l-.94-2.4h-3.67l-.96,2.4h-1.14l3.44-8.67h1.22l3.39,8.67h-1.33Zm6.7,0v-1.19c-.47,.89-1.18,1.34-2.12,1.34-.77,0-1.37-.28-1.81-.84-.44-.56-.66-1.32-.66-2.29,0-1.06,.25-1.91,.75-2.55,.5-.64,1.15-.97,1.97-.97,.75,0,1.38,.29,1.88,.87v-3.61h1.16v9.25h-1.16Zm0-4.85c-.6-.53-1.16-.79-1.7-.79-1.11,0-1.66,.85-1.66,2.54,0,1.49,.49,2.23,1.48,2.23,.64,0,1.27-.35,1.88-1.05v-2.93Zm3.47,4.85v-6.36h1.15v1.2c.56-.89,1.28-1.34,2.17-1.34s1.43,.45,1.74,1.34c.55-.89,1.26-1.34,2.13-1.34,.56,0,1,.17,1.31,.5,.31,.33,.46,.79,.46,1.38v4.63h-1.16v-4.45c0-.73-.29-1.09-.86-1.09s-1.22,.42-1.88,1.27v4.26h-1.16v-4.45c0-.73-.29-1.1-.88-1.1s-1.2,.43-1.87,1.28v4.26h-1.15Zm11.2,0v-6.36h1.15v6.36h-1.15Zm0-7.52v-1.16h1.15v1.16h-1.15Zm3.47,7.52v-6.36h1.15v1.2c.61-.89,1.35-1.34,2.24-1.34,.55,0,.99,.18,1.32,.53,.33,.35,.49,.82,.49,1.41v4.57h-1.15v-4.19c0-.47-.07-.81-.21-1.01-.14-.2-.37-.3-.69-.3-.71,0-1.37,.46-2,1.39v4.12h-1.15Z"/>
  <polyline class="cls-3" points="557.39 102.76 451.09 102.76 451.09 203.69"/>
  <polygon points="451.09 211.69 456.09 199.69 451.09 202.69 446.09 199.69 451.09 211.69"/>
  <polyline class="cls-3" points="402.54 211.7 402.54 45.92 549.38 45.92"/>
  <polygon points="557.38 45.92 545.38 40.92 548.38 45.92 545.38 50.92 557.38 45.92"/>
  <polyline class="cls-3" points="359.61 211.67 359.61 111.33 218.36 111.33"/>
  <polygon points="210.36 111.33 222.36 116.33 219.36 111.33 222.36 106.33 210.36 111.33"/>
  <polyline class="cls-3" points="114.88 148.29 114.88 259.85 288.39 259.85"/>
  <polygon points="114.88 140.29 109.88 152.29 114.88 149.29 119.88 152.29 114.88 140.29"/>
  <path class="cls-3" d="M711.43,215.96v-46.09h-184.65v78.54h-47.4m232.06,87.59v39.51h-187.51v-81.39h-44.57m70.02,177.57h-114v-124.69"/>
  <polygon points="557.38 471.7 545.38 466.7 548.38 471.7 545.38 476.7 557.38 471.7"/>
  <polyline class="cls-3" points="403.88 354.96 403.88 511.19 557.39 511.19"/>
  <polygon points="403.88 346.96 398.88 358.96 403.88 355.96 408.88 358.96 403.88 346.96"/>
  <polyline class="cls-3" points="353.98 355 353.98 509.76 210.41 509.76"/>
  <polygon points="353.98 347 348.98 359 353.98 356 358.98 359 353.98 347"/>
  <polyline class="cls-3" points="114.88 403.7 114.88 335.53 114.88 294.13 288.36 294.13"/>
  <polygon points="114.88 411.7 119.88 399.7 114.88 402.7 109.88 399.7 114.88 411.7"/>
</svg>