<svg xmlns="http://www.w3.org/2000/svg" viewBox="0 0 292.38 79.91">
    <defs>
        <style>.cls-1{fill:#fff;}</style>
    </defs>
    <g id="Layer_2" data-name="Layer 2">
        <g id="Layer_1-2" data-name="Layer 1">
            <g id="gypsy">
                <g id="text-gypsy">
                    <path id="Path_4" data-name="Path 4" class="cls-1"
                          d="M134.54,11.81h-5.93a8.56,8.56,0,0,1,3.14,6.7,9.54,9.54,0,0,1-.89,4A10.24,10.24,0,0,1,128.27,26,14,14,0,0,1,124,28.42a19.84,19.84,0,0,1-5.75,1.14c-2.78.12-4.17.86-4.17,2.24a1.29,1.29,0,0,0,.53,1.16,4.16,4.16,0,0,0,1.68.55c.76.12,2.06.26,3.88.42a36.22,36.22,0,0,1,5.76.94,11.19,11.19,0,0,1,5,2.79,7.89,7.89,0,0,1,2.3,6.1,9.37,9.37,0,0,1-1.71,5.59,11.07,11.07,0,0,1-5.55,3.8,31,31,0,0,1-10.13,1.37q-9,0-13.3-2.43t-4.25-6.5a7.31,7.31,0,0,1,.55-2.53,6.6,6.6,0,0,1,2.33-2.77,11.16,11.16,0,0,1,5.18-1.79,4.27,4.27,0,0,1-2.06-1.69,4.47,4.47,0,0,1-.87-2.61,6.08,6.08,0,0,1,1.22-3.5,5.84,5.84,0,0,1,3.94-2.23A14.3,14.3,0,0,1,102,24.71a9.67,9.67,0,0,1-2.76-7.16,12.51,12.51,0,0,1,1.28-5.83,10.88,10.88,0,0,1,3.55-4.07,16.09,16.09,0,0,1,5.26-2.31,26.85,26.85,0,0,1,6.56-.75h18.62Zm-10.86,33a2.81,2.81,0,0,0-2.38-2.88,18.63,18.63,0,0,0-4.92-.65,15,15,0,0,0-6,.88A3,3,0,0,0,108.52,45c0,2.53,2.56,3.79,7.66,3.79a12.68,12.68,0,0,0,5.47-1A3.16,3.16,0,0,0,123.68,44.82Zm-2.4-27.28a5.23,5.23,0,0,0-1.75-4.11,5.74,5.74,0,0,0-3.91-1.55,5.43,5.43,0,0,0-4.35,1.86,6,6,0,0,0-1.58,3.93,5.41,5.41,0,0,0,.68,2.67,5.31,5.31,0,0,0,1.93,2,5.68,5.68,0,0,0,3,.75,6,6,0,0,0,4.3-1.63,5.25,5.25,0,0,0,1.7-3.9Z"/>
                    <path id="Path_5" data-name="Path 5" class="cls-1"
                          d="M176.14,4.58l-23,49.33H141l9.32-19.85L136.87,4.58h12.89l6.9,16.86,7.82-16.86Z"/>
                    <path id="Path_6" data-name="Path 6" class="cls-1"
                          d="M216.81,21.3a22.48,22.48,0,0,1-1,6.57,17.61,17.61,0,0,1-2.94,5.71,13.92,13.92,0,0,1-5.1,4,16.62,16.62,0,0,1-7.25,1.48,15.56,15.56,0,0,1-5.25-.7,21.66,21.66,0,0,1-3.81-1.86V53.91h-12V4.58h12V7.65a17.57,17.57,0,0,1,4-2.62A13.89,13.89,0,0,1,201.39,4a15.74,15.74,0,0,1,7.26,1.84,14.51,14.51,0,0,1,5.86,5.71A18.92,18.92,0,0,1,216.81,21.3Zm-12.62.27a11.25,11.25,0,0,0-1-5,6.19,6.19,0,0,0-2.5-2.76,6.37,6.37,0,0,0-3.16-.85,7.79,7.79,0,0,0-3.5.68,12.21,12.21,0,0,0-2.56,1.72V28.33l1.34.75a12.89,12.89,0,0,0,1.44.72,10.13,10.13,0,0,0,1.53.5,7.89,7.89,0,0,0,1.75.2,5.82,5.82,0,0,0,4.73-2.4,10.35,10.35,0,0,0,1.9-6.53Z"/>
                    <path id="Path_7" data-name="Path 7" class="cls-1"
                          d="M249.55,28.6a9.53,9.53,0,0,1-3.42,7.58q-3.4,2.91-10.14,2.91a29.51,29.51,0,0,1-6.69-.68,56.9,56.9,0,0,1-6.4-1.95V27.93a44.63,44.63,0,0,0,5.27,2.63,13,13,0,0,0,4.89.9q4.5,0,4.5-2.47a2.09,2.09,0,0,0-.65-1.48,9.17,9.17,0,0,0-2.27-1.46q-1.6-.82-4.31-1.95a17.23,17.23,0,0,1-5.66-3.92,8.44,8.44,0,0,1-2.33-6,8.66,8.66,0,0,1,1.55-4.87,11.23,11.23,0,0,1,4.68-3.81A17.55,17.55,0,0,1,236.13,4c.71,0,1.62.05,2.72.15a28.24,28.24,0,0,1,4.16.79,22.06,22.06,0,0,1,4.78,1.8V15L246,13.94a16.23,16.23,0,0,0-1.91-1,18.33,18.33,0,0,0-2.82-1,13.17,13.17,0,0,0-3.31-.42,3.93,3.93,0,0,0-2.84.8,2.34,2.34,0,0,0-.76,1.6,2.05,2.05,0,0,0,.8,1.55,13.2,13.2,0,0,0,3.56,1.78,32.55,32.55,0,0,1,6.4,3.16A10.14,10.14,0,0,1,248.53,24,9.76,9.76,0,0,1,249.55,28.6Z"/>
                    <path id="Path_8" data-name="Path 8" class="cls-1"
                          d="M292.38,4.58l-23,49.33H257.22l9.32-19.85L253.12,4.58H266l6.89,16.86,7.83-16.86Z"/>
                </g>
                <path class="cls-1"
                      d="M104.23,73.66a2.27,2.27,0,0,1-.83.44,3.43,3.43,0,0,1-1,.15,2.71,2.71,0,0,1-2-.68,2.61,2.61,0,0,1-.7-2V67H98.29V65.74h1.43V63.9h1.52v1.84h2.42V67h-2.42v4.56a1.5,1.5,0,0,0,.35,1,1.26,1.26,0,0,0,1,.36,1.85,1.85,0,0,0,1.19-.39Z"/>
                <path class="cls-1"
                      d="M110.29,66a4.33,4.33,0,0,1,1.89-.38v1.48l-.35,0a2.57,2.57,0,0,0-1.94.74,2.87,2.87,0,0,0-.71,2.1v4.19h-1.52V65.74h1.46v1.41A2.62,2.62,0,0,1,110.29,66Z"/>
                <path class="cls-1"
                      d="M121.36,66.52a3.29,3.29,0,0,1,.93,2.55v5.08h-1.44V73a2.49,2.49,0,0,1-1.09.9,4.27,4.27,0,0,1-1.68.31,3.54,3.54,0,0,1-2.26-.68,2.23,2.23,0,0,1-.85-1.8,2.2,2.2,0,0,1,.81-1.78,4,4,0,0,1,2.57-.68h2.42V69a1.92,1.92,0,0,0-.58-1.51,2.4,2.4,0,0,0-1.68-.52,4.6,4.6,0,0,0-1.46.24,3.93,3.93,0,0,0-1.2.66l-.64-1.14a4.52,4.52,0,0,1,1.56-.8,6.32,6.32,0,0,1,1.92-.28A3.81,3.81,0,0,1,121.36,66.52Zm-1.51,6.16a2.18,2.18,0,0,0,.92-1.1V70.41h-2.35c-1.29,0-1.94.43-1.94,1.3a1.17,1.17,0,0,0,.49,1,2.3,2.3,0,0,0,1.37.36A2.85,2.85,0,0,0,119.85,72.68Z"/>
                <path class="cls-1" d="M134,65.74l-3.68,8.41h-1.56l-3.68-8.41h1.58l2.89,6.75,3-6.75Z"/>
                <path class="cls-1"
                      d="M144.34,70.45h-6.83a2.64,2.64,0,0,0,1,1.79,3.16,3.16,0,0,0,2.07.67,3.13,3.13,0,0,0,2.43-1l.84,1a3.64,3.64,0,0,1-1.42,1,5,5,0,0,1-1.9.35,4.87,4.87,0,0,1-2.36-.55,3.87,3.87,0,0,1-1.6-1.53A4.46,4.46,0,0,1,136,70a4.52,4.52,0,0,1,.54-2.21A3.9,3.9,0,0,1,138,66.21a4.24,4.24,0,0,1,2.17-.55,4.17,4.17,0,0,1,2.15.55,3.83,3.83,0,0,1,1.48,1.53,4.73,4.73,0,0,1,.53,2.25A4.54,4.54,0,0,1,144.34,70.45Zm-6-2.84a2.7,2.7,0,0,0-.87,1.75h5.4a2.75,2.75,0,0,0-.87-1.74,2.6,2.6,0,0,0-1.83-.67A2.64,2.64,0,0,0,138.38,67.61Z"/>
                <path class="cls-1" d="M148.07,62.38h1.52V74.15h-1.52Z"/>
                <path class="cls-1"
                      d="M173,66.58a3.7,3.7,0,0,1,.93,2.73v4.84h-1.53V69.49a2.66,2.66,0,0,0-.56-1.84,2,2,0,0,0-1.61-.62,2.4,2.4,0,0,0-1.84.72,2.88,2.88,0,0,0-.69,2.07v4.33h-1.52V69.49a2.66,2.66,0,0,0-.56-1.84A2.06,2.06,0,0,0,164,67a2.43,2.43,0,0,0-1.85.72,2.92,2.92,0,0,0-.68,2.07v4.33h-1.52V65.74h1.46V67a3.05,3.05,0,0,1,1.2-1,4.19,4.19,0,0,1,1.7-.34,3.67,3.67,0,0,1,1.75.4,2.68,2.68,0,0,1,1.17,1.16,3.26,3.26,0,0,1,1.33-1.15,4.36,4.36,0,0,1,1.91-.41A3.44,3.44,0,0,1,173,66.58Z"/>
                <path class="cls-1"
                      d="M184,66.52a3.29,3.29,0,0,1,.93,2.55v5.08h-1.45V73a2.41,2.41,0,0,1-1.08.9,4.27,4.27,0,0,1-1.68.31,3.54,3.54,0,0,1-2.26-.68,2.35,2.35,0,0,1,0-3.58,4,4,0,0,1,2.57-.68h2.41V69a2,2,0,0,0-.57-1.51,2.4,2.4,0,0,0-1.68-.52,4.56,4.56,0,0,0-1.46.24,4,4,0,0,0-1.21.66l-.63-1.14a4.43,4.43,0,0,1,1.56-.8,6.32,6.32,0,0,1,1.92-.28A3.81,3.81,0,0,1,184,66.52Zm-1.52,6.16a2.13,2.13,0,0,0,.92-1.1V70.41H181.1c-1.3,0-1.94.43-1.94,1.3a1.17,1.17,0,0,0,.49,1,2.28,2.28,0,0,0,1.37.36A2.79,2.79,0,0,0,182.52,72.68Z"/>
                <path class="cls-1"
                      d="M197.36,62.38V74.15H195.9V72.82a3.14,3.14,0,0,1-1.28,1.06,3.9,3.9,0,0,1-1.72.37,4.44,4.44,0,0,1-2.19-.54,3.87,3.87,0,0,1-1.51-1.52,4.45,4.45,0,0,1-.55-2.24,4.4,4.4,0,0,1,.55-2.24,3.85,3.85,0,0,1,1.51-1.51,4.44,4.44,0,0,1,2.19-.54,4.15,4.15,0,0,1,1.67.34,3.3,3.3,0,0,1,1.27,1V62.38Zm-2.88,10.16a2.62,2.62,0,0,0,1-1.05,3.22,3.22,0,0,0,.37-1.54,3.26,3.26,0,0,0-.37-1.55,2.53,2.53,0,0,0-1-1A3,3,0,0,0,193,67a2.92,2.92,0,0,0-1.45.37,2.62,2.62,0,0,0-1,1,3.14,3.14,0,0,0-.37,1.55,3.11,3.11,0,0,0,.37,1.54,2.71,2.71,0,0,0,1,1.05,2.82,2.82,0,0,0,1.45.37A2.87,2.87,0,0,0,194.48,72.54Z"/>
                <path class="cls-1"
                      d="M209.41,70.45h-6.82a2.63,2.63,0,0,0,1,1.79,3.2,3.2,0,0,0,2.07.67,3.1,3.1,0,0,0,2.43-1l.84,1a3.57,3.57,0,0,1-1.42,1,5.34,5.34,0,0,1-4.26-.2,3.79,3.79,0,0,1-1.59-1.53,4.37,4.37,0,0,1-.57-2.22,4.42,4.42,0,0,1,.55-2.21,3.9,3.9,0,0,1,1.51-1.53,4.23,4.23,0,0,1,2.16-.55,4.18,4.18,0,0,1,2.16.55,3.8,3.8,0,0,1,1.47,1.53,4.62,4.62,0,0,1,.53,2.25A4.54,4.54,0,0,1,209.41,70.45Zm-6-2.84a2.69,2.69,0,0,0-.86,1.75H208a2.69,2.69,0,0,0-.86-1.74,2.86,2.86,0,0,0-3.67,0Z"/>
                <path class="cls-1"
                      d="M226.57,70.45h-6.83a2.64,2.64,0,0,0,1,1.79,3.2,3.2,0,0,0,2.07.67,3.1,3.1,0,0,0,2.43-1l.84,1a3.57,3.57,0,0,1-1.42,1,5,5,0,0,1-1.9.35,4.89,4.89,0,0,1-2.36-.55,3.87,3.87,0,0,1-1.6-1.53,4.7,4.7,0,0,1,0-4.43,3.83,3.83,0,0,1,1.51-1.53,4.23,4.23,0,0,1,2.16-.55,4.15,4.15,0,0,1,2.15.55,3.83,3.83,0,0,1,1.48,1.53A4.73,4.73,0,0,1,226.6,70,4.54,4.54,0,0,1,226.57,70.45Zm-6-2.84a2.75,2.75,0,0,0-.87,1.75h5.4a2.69,2.69,0,0,0-.86-1.74,2.86,2.86,0,0,0-3.67,0Z"/>
                <path class="cls-1"
                      d="M235.8,66.52a3.29,3.29,0,0,1,.93,2.55v5.08h-1.45V73a2.41,2.41,0,0,1-1.08.9,4.3,4.3,0,0,1-1.68.31,3.52,3.52,0,0,1-2.26-.68,2.35,2.35,0,0,1,0-3.58,4,4,0,0,1,2.57-.68h2.41V69a2,2,0,0,0-.57-1.51A2.4,2.4,0,0,0,233,67a4.56,4.56,0,0,0-1.46.24,4,4,0,0,0-1.21.66l-.63-1.14a4.47,4.47,0,0,1,1.55-.8,6.42,6.42,0,0,1,1.92-.28A3.82,3.82,0,0,1,235.8,66.52Zm-1.52,6.16a2.13,2.13,0,0,0,.92-1.1V70.41h-2.35c-1.29,0-1.93.43-1.93,1.3a1.17,1.17,0,0,0,.49,1,2.26,2.26,0,0,0,1.36.36A2.8,2.8,0,0,0,234.28,72.68Z"/>
                <path class="cls-1"
                      d="M241.57,74a4.14,4.14,0,0,1-1.49-.71l.63-1.2a4.69,4.69,0,0,0,1.35.63,5.49,5.49,0,0,0,1.6.24c1.34,0,2-.38,2-1.14a.72.72,0,0,0-.27-.6,1.68,1.68,0,0,0-.67-.33c-.27-.07-.66-.15-1.15-.23a11.41,11.41,0,0,1-1.66-.37,2.49,2.49,0,0,1-1.1-.69,1.93,1.93,0,0,1-.46-1.38,2.14,2.14,0,0,1,1-1.84,4.24,4.24,0,0,1,2.55-.69,7,7,0,0,1,1.69.21,4.67,4.67,0,0,1,1.38.55l-.65,1.21a4.43,4.43,0,0,0-2.43-.67,2.83,2.83,0,0,0-1.48.32,1,1,0,0,0-.51.84.8.8,0,0,0,.29.65,1.69,1.69,0,0,0,.71.35c.28.08.67.16,1.18.26a12.51,12.51,0,0,1,1.64.37,2.44,2.44,0,0,1,1.07.67,1.89,1.89,0,0,1,.45,1.34,2.1,2.1,0,0,1-1,1.81,4.61,4.61,0,0,1-2.66.68A6.82,6.82,0,0,1,241.57,74Z"/>
                <path class="cls-1"
                      d="M258,65.74,253.88,75a4.17,4.17,0,0,1-1.26,1.81,2.88,2.88,0,0,1-1.74.53,3.67,3.67,0,0,1-1.19-.2,2.42,2.42,0,0,1-1-.58l.65-1.14a2.11,2.11,0,0,0,1.5.62,1.42,1.42,0,0,0,.93-.3,2.43,2.43,0,0,0,.68-1l.27-.58L249,65.74h1.59l2.94,6.73,2.9-6.73Z"/>
            </g>
            <path class="cls-1" d="M32,29a4.27,4.27,0,1,0-4.43-4.28A4.31,4.31,0,0,0,32,29Z"/>
            <path class="cls-1"
                  d="M72.33,0H7.58A7.58,7.58,0,0,0,0,7.58V72.33a7.58,7.58,0,0,0,7.58,7.58H72.33a7.58,7.58,0,0,0,7.58-7.58V7.58A7.58,7.58,0,0,0,72.33,0ZM19.16,22.4a11.34,11.34,0,0,1,2.67-.06,1.63,1.63,0,0,0,1.84-1.19c.43-.93,0-1.4-.54-1.95a16.85,16.85,0,0,1-1.88-1.9A2.22,2.22,0,0,1,21.46,14a2.2,2.2,0,0,1,3.12,0,15.42,15.42,0,0,1,1.91,1.88,1.46,1.46,0,0,0,2,.48,1.56,1.56,0,0,0,1.16-1.7,19.44,19.44,0,0,1,0-2.29A2.17,2.17,0,0,1,32.05,10a2.21,2.21,0,0,1,2.27,2.34,19.44,19.44,0,0,1,0,2.29,1.52,1.52,0,0,0,1.1,1.72,1.48,1.48,0,0,0,2-.47,20.8,20.8,0,0,1,1.48-1.49c1.29-1.21,2.79-1.35,3.7-.26a2.37,2.37,0,0,1-.28,3.56c-.5.49-1,1-1.5,1.48a1.49,1.49,0,0,0-.54,2,1.6,1.6,0,0,0,1.84,1.19,24,24,0,0,1,2.68,0,2.2,2.2,0,0,1,2.38,2.41A2.16,2.16,0,0,1,44.85,27c-.89,0-1.78.05-2.68,0a1.8,1.8,0,0,0-1.29,3.23A17.18,17.18,0,0,1,42.63,32a2.25,2.25,0,0,1-.12,3.27,2.21,2.21,0,0,1-3.13.1,19.82,19.82,0,0,1-1.92-1.86c-.55-.58-1-1-2-.57a1.64,1.64,0,0,0-1.18,1.87,18.33,18.33,0,0,1,0,2.87,2.19,2.19,0,0,1-2.41,2.18,2.15,2.15,0,0,1-2.25-2.15,21.13,21.13,0,0,1,0-2.87A1.68,1.68,0,0,0,28.43,33a1.46,1.46,0,0,0-2,.52,25.93,25.93,0,0,1-1.9,1.88,2.3,2.3,0,0,1-2.68.28,2.26,2.26,0,0,1-1.21-2c0-1.52,1.23-2.18,2.05-3.12.58-.67,1.45-1.06,1-2.36S22.21,27.07,21.24,27a13.24,13.24,0,0,1-2.1-.07,2.17,2.17,0,0,1-1.89-2.3A2.14,2.14,0,0,1,19.16,22.4ZM30.47,50.8c.49.39,1,.8,1.45,1.2.27.22.4.49.16.79s-.53.2-.8,0-.63-.52-1-.84c0,.8,0,1.51,0,2.22,0,.35-.09.63-.48.64s-.51-.28-.52-.62V52.11a5.34,5.34,0,0,0-.89.68c-.26.21-.53.28-.77,0a.5.5,0,0,1,.13-.76c.43-.36.86-.73,1.3-1.08a.49.49,0,0,0,.18-.64l-.85.71c-.26.2-.54.26-.77,0s-.11-.54.14-.75c.4-.34.79-.69,1.21-1a.71.71,0,0,0,.27-.88L28.5,49c-.25.23-.52.29-.76,0s-.15-.53.1-.76l1.57-1.46a.55.55,0,0,1,.85,0l1.6,1.49a.49.49,0,0,1,.08.77c-.24.26-.52.18-.76-.05l-.86-.78a.7.7,0,0,0,.27.89c.47.35.9.74,1.34,1.11.26.21.38.47.17.75s-.53.24-.8,0l-1-.8A.42.42,0,0,0,30.47,50.8ZM8,58.62a7.58,7.58,0,0,0-1.27,1c-.37.3-.75.39-1.08,0s-.19-.77.17-1.08C6.43,58,7,57.48,7.67,57a.68.68,0,0,0,.25-.9l-1.2,1c-.37.29-.77.38-1.09,0s-.16-.77.2-1.07c.57-.47,1.11-1,1.7-1.4a1,1,0,0,0,.4-1.25l-1,.93a.69.69,0,0,1-1.08,0c-.36-.38-.21-.75.13-1.07.75-.69,1.5-1.38,2.23-2.08a.77.77,0,0,1,1.2,0l2.28,2.12a.69.69,0,0,1,.11,1.08c-.35.37-.73.26-1.08-.06s-.79-.72-1.22-1.11a1,1,0,0,0,.39,1.26c.66.49,1.26,1,1.9,1.57.37.3.53.67.23,1.07s-.75.34-1.13,0L9.51,55.92a.6.6,0,0,0,.19.85c.7.55,1.36,1.13,2.05,1.7.38.31.57.69.23,1.11s-.76.29-1.14,0-.88-.73-1.43-1.18c0,1.14,0,2.14,0,3.15,0,.5-.13.89-.68.9S8,62,8,61.54Zm17.88.46c-.54-.66-1.08-1.34-1.62-2l-.17.08c.16,1,.3,1.94.5,2.9A1.58,1.58,0,0,1,24,61.74c-.92.82-1.79,1.71-2.72,2.52a1.07,1.07,0,0,0-.39,1.33,10.73,10.73,0,0,1,.43,1.57,1.13,1.13,0,0,1-.81,1.42A1.12,1.12,0,0,1,19,67.86c-.34-1-.61-2.08-.86-3.13a1.32,1.32,0,0,1,.48-1.37c1-.89,1.93-1.82,2.92-2.71a1.12,1.12,0,0,0,.4-1.18c-.21-1.06-.38-2.13-.57-3.2-.34,0-.41.26-.56.43L10.9,68.46c-.17.21-.35.42-.53.61a1.25,1.25,0,1,1-1.91-1.6c1.1-1.35,2.24-2.68,3.37-4l9.33-11.07c1-1.17,1.65-1.16,2.61,0,1.36,1.7,2.72,3.39,4.07,5.09.63.81.63,1.59,0,2.06S26.5,59.84,25.88,59.08Zm27,6.47a1.23,1.23,0,0,1-1.59-.46l-4-5-.92-1.14c-.68,1.16-1.27,2.21-1.9,3.24a1.27,1.27,0,0,1-2.27.2q-1.29-1.47-2.52-3c-.27-.32-.48-.42-.78-.07l-.07.06c-2.29,2-2,1.77-4.39.16-.69-.47-1-.38-1.47.25-1.3,1.74-2.68,3.42-4,5.12-.67.84-1.36,1-2,.5s-.6-1.26.05-2.08Q32.77,56,38.58,48.63c1.11-1.41,1.72-1.42,2.81,0L53,63.28a1.82,1.82,0,0,1,.54,1A1.18,1.18,0,0,1,52.83,65.55Zm18.53,3.79c-.6.49-1.3.34-2-.42q-5-6-10.09-12c-.19-.22-.3-.53-.71-.59-.2,1.13-.39,2.24-.6,3.36a.87.87,0,0,0,.37.85c1,.87,1.88,1.79,2.86,2.64a1.7,1.7,0,0,1,.54,1.95c-.25.83-.45,1.69-.7,2.52a1.21,1.21,0,0,1-1.61.9A1.17,1.17,0,0,1,58.68,67a.32.32,0,0,1,0-.09c.86-1.61.1-2.62-1.12-3.7C54.7,60.63,55.2,61.69,55.78,58a1.94,1.94,0,0,0-.06-1L54,59.08c-.61.76-1.35.94-1.95.5s-.63-1.26,0-2.07q2.07-2.62,4.18-5.23c.82-1,1.52-1,2.37,0Q65,59.81,71.37,67.35A1.3,1.3,0,0,1,71.36,69.34ZM69.28,44.63c1.24,1,2.42,2,3.65,3,.69.56,1,1.24.4,2s-1.34.53-2,0-1.58-1.3-2.56-2.11c0,2,0,3.83,0,5.62,0,.89-.24,1.59-1.22,1.61s-1.29-.7-1.29-1.57c0-1.69,0-3.38,0-5.21A14.28,14.28,0,0,0,64,49.67c-.65.53-1.34.7-1.93,0a1.25,1.25,0,0,1,.31-1.91c1.09-.92,2.18-1.85,3.29-2.74a1.21,1.21,0,0,0,.45-1.6c-.73.61-1.43,1.2-2.14,1.77s-1.37.67-1.93-.06-.3-1.37.35-1.91c1-.84,2-1.73,3-2.5a1.78,1.78,0,0,0,.69-2.22L64.3,40.14c-.63.58-1.31.73-1.93,0s-.37-1.34.24-1.91c1.33-1.24,2.66-2.46,4-3.71a1.37,1.37,0,0,1,2.13,0c1.36,1.27,2.72,2.52,4.07,3.79.62.58.83,1.26.2,1.92s-1.31.47-1.93-.11-1.41-1.28-2.18-2a1.79,1.79,0,0,0,.7,2.26c1.17.88,2.25,1.87,3.39,2.8.65.53,1,1.19.41,1.9s-1.34.6-2,0l-2.43-2A1.06,1.06,0,0,0,69.28,44.63Z"/>
            <path class="cls-1"
                  d="M40.58,51.58c-.43-.57-.66-.67-1.14,0-1.15,1.55-2.38,3-3.57,4.55-.78,1-.76,1,.26,1.61a.6.6,0,0,0,.86-.09c.38-.35.78-.67,1.17-1,1.15-1,1.61-.94,2.61.23.75.86,1.49,1.73,2.29,2.67.44-.75.79-1.44,1.23-2.08a.89.89,0,0,0-.06-1.25Q42.36,53.93,40.58,51.58Z"/>
        </g>
    </g>
</svg>