<svg xmlns="http://www.w3.org/2000/svg" viewBox="0 0 34.8 27.91">
    <defs>
        <style>.cls-1{fill:#fff;}</style>
    </defs>
    <g id="Layer_2" data-name="Layer 2">
        <g id="Layer_1-2" data-name="Layer 1">
            <path id="car-icon" class="cls-1"
                  d="M34.8,16.11v8.6a3.28,3.28,0,0,1-.15,1l-.06.22a2.53,2.53,0,0,1-2.74,2,2.57,2.57,0,0,1-2.41-2.38,3.39,3.39,0,0,1,0-.9c.13-.87-.25-1.07-1.06-1-1.63.12-3.27.16-4.9.21-5.61.17-11.22.09-16.83-.18-1.61-.07-1.31-.12-1.34,1.29,0,1.83-1.06,3-2.65,3A2.64,2.64,0,0,1,0,25.29c0-.1,0-.2,0-.3,0-3,0-6,0-9A5.22,5.22,0,0,1,2,11.7a2.11,2.11,0,0,0,.67-1.08C3.48,8.36,4.26,6.1,5.07,3.84A5.21,5.21,0,0,1,10.42,0H24.35a5.17,5.17,0,0,1,5.24,3.7C30.41,6,31.18,8.23,32,10.49c.11.32.18.72.41.9a6.29,6.29,0,0,1,2.37,4.16A3.52,3.52,0,0,1,34.8,16.11ZM17.45,2.59h-7A2.73,2.73,0,0,0,7.51,4.67c-.41,1.12-.8,2.25-1.2,3.39C5.75,9.67,6.16,10.22,7.76,10q3.33-.47,6.69-.6A69,69,0,0,1,27,10c1.49.23,2-.34,1.47-1.75-.4-1.17-.81-2.33-1.23-3.49a2.76,2.76,0,0,0-3.05-2.18Zm-.07,12c-1.3,0-2.6,0-3.9,0A1.36,1.36,0,0,0,12,15.84.76.76,0,0,0,12,16a1.32,1.32,0,0,0,1.32,1.33h.13c2.6,0,5.2,0,7.8,0a1.39,1.39,0,0,0,1.51-1.25.57.57,0,0,0,0-.13,1.43,1.43,0,0,0-1.51-1.34h-.05C19.91,14.59,18.64,14.6,17.38,14.6ZM8,16.65a2,2,0,0,0-1.95-2H6a2,2,0,0,0-.12,4.06H6a2,2,0,0,0,2-2v-.05Zm20.72-2a2,2,0,1,0,.09,0Z"/>
        </g>
    </g>
</svg>