<!--
  - Copyright (c) 2024. All rights reserved by Woliul Hasan. Fork me on https://github.com/woliul
  -->

<svg xmlns="http://www.w3.org/2000/svg" viewBox="0 0 27.89 27.91">
    <defs>
        <style>.cls-1{fill:#fff;}</style>
    </defs>
    <g id="Layer_2" data-name="Layer 2">
        <g id="Layer_1-2" data-name="Layer 1">
            <g id="bus-icon">
                <path id="Path_23" data-name="Path 23" class="cls-1"
                      d="M26.06,2.59A3.16,3.16,0,0,0,22.85,0C17.14,0,11.43,0,5.73,0,3,.05,1.67,1.48,1.67,4.18c0,6.21,0,12.43,0,18.65A2.73,2.73,0,0,0,2,24.36a2.11,2.11,0,0,1,.19,1.35,2.19,2.19,0,0,0,1,2.2H6.87a2.07,2.07,0,0,0,1-1.7c0-.52.41-.48.76-.48h7.49c1,0,2.08,0,3.13,0,.5,0,.78.12.78.69s.51,1.1,1,1.49h3.62a2.14,2.14,0,0,0,1-2.13A2.66,2.66,0,0,1,26.06,24a2.06,2.06,0,0,0,.21-1.15V4.24A6.55,6.55,0,0,0,26.06,2.59ZM8.94,2.34H19.59c.83,0,1,.2,1,1s-.17,1.08-1.05,1.08H9c-.9,0-1.07-.18-1.07-1S8.06,2.35,8.94,2.34ZM6.5,22.8a1.86,1.86,0,1,1,1.8-1.91V21A1.88,1.88,0,0,1,6.5,22.8Zm15,0A1.86,1.86,0,1,1,23.34,21,1.88,1.88,0,0,1,21.45,22.8Zm0-6.74c-2.46,0-4.92,0-7.32,0s-4.92.08-7.36.1A4.52,4.52,0,0,1,5.63,16a1.17,1.17,0,0,1-1-1,5.53,5.53,0,0,1-.11-.9q0-3,0-5.91c0-1.53.48-2,2-2H21.39c1.52,0,2,.49,2,2,0,2,0,3.9,0,5.84C23.37,15.46,22.77,16.05,21.41,16.06Z"/>
                <path id="Path_24" data-name="Path 24" class="cls-1"
                      d="M27.74,7.16c-.24-.22-.49-.53-.82-.38s-.19.53-.19.81c0,1.62,0,3.23,0,4.85,0,.32-.19.78.18.94s.66-.22.93-.47l.05,0V7.3Z"/>
                <path id="Path_25" data-name="Path 25" class="cls-1"
                      d="M1,6.77c-.32-.1-.57.13-.76.37A1,1,0,0,0,0,7.78v4.65a1,1,0,0,0,.4.77c.18.15.39.3.63.2s.17-.36.17-.56c0-.92,0-1.85,0-2.77s0-1.76,0-2.64C1.2,7.2,1.32,6.86,1,6.77Z"/>
            </g>
        </g>
    </g>
</svg>