<svg xmlns="http://www.w3.org/2000/svg" viewBox="0 0 27.91 28.7">
    <defs>
        <style>.cls-1{fill:#fff;}</style>
    </defs>
    <g id="Layer_2" data-name="Layer 2">
        <g id="Layer_1-2" data-name="Layer 1">
            <g id="train-icon">
                <path id="Path_41" data-name="Path 41" class="cls-1"
                      d="M26.18,5.42c-.7,0-1.39,0-2.09,0-.33,0-.47-.07-.49-.44,0,0,0-.09,0-.13A2.62,2.62,0,0,0,21,2.19h-.24c-.55,0-1.09,0-1.64,0a.72.72,0,0,1-.81-.49A2.91,2.91,0,0,0,16.05,0H11.86a3,3,0,0,0-2.4,2c-.09.23-.28.25-.49.25H7.27A2.65,2.65,0,0,0,4.33,4.54a2.16,2.16,0,0,0,0,.44c0,.37-.16.44-.49.44-.7,0-1.39,0-2.09,0A1.59,1.59,0,0,0,0,6.9a.76.76,0,0,0,0,.15c0,1,0,2.1,0,3.14a1.58,1.58,0,0,0,3.16,0v-.1c0-1.05,0-2.1,0-3.14,0-.37.09-.55.5-.54.61,0,.62,0,.62.66V20.69a2.68,2.68,0,0,0,1.61,2.69,2.15,2.15,0,0,0,.5.12L2.08,27.83a.51.51,0,0,0,.72.72h0l4.92-4.92H20.1L25,28.5a.52.52,0,0,0,.88-.36.49.49,0,0,0-.15-.36l-4.24-4.23a2.18,2.18,0,0,0,.44-.11,2.79,2.79,0,0,0,1.72-2.88c0-4.41,0-8.82,0-13.23V7.12c0-.65,0-.64.62-.66.41,0,.51.17.5.54,0,1,0,2.09,0,3.14a1.58,1.58,0,0,0,3.16.16v-.1c0-1,0-2.09,0-3.14a1.59,1.59,0,0,0-1.55-1.64ZM1.6,10.77c-.41,0-.55-.31-.54-.73s.31-.34.59-.37.57,0,.53.43S2,10.78,1.6,10.77Zm0-2.13c-.46,0-.59-.13-.59-.59s0-.67,0-1a.67.67,0,0,1,.71-.63A.86.86,0,0,1,2,6.48c.16.07.17.19.17.33s0,1.11,0,1.29c0,.42-.14.53-.54.54Zm9.16-6.9a1.61,1.61,0,0,1,1.3-.63h3.7a1.64,1.64,0,0,1,1.27.58c.1.11.24.24.19.39s-.26.1-.4.1H11c-.12,0-.29.06-.36-.09s.06-.25.14-.35ZM8.55,20.39a2.11,2.11,0,1,1,2.17-2.08,2.11,2.11,0,0,1-2.17,2.08Zm7.3-.52H12.1a.51.51,0,0,1,0-1h3.75a.51.51,0,0,1,0,1ZM11.68,17.2a.51.51,0,0,1,.51-.51h3.57a.51.51,0,1,1,0,1H12.19a.51.51,0,0,1-.51-.51Zm5.09-4.64a1.09,1.09,0,0,0-1.12-.68H12.26a1.07,1.07,0,0,0-1.11.68.58.58,0,0,1-.63.37c-.76,0-1.53,0-2.29,0-.54,0-.74-.18-.75-.71,0-1.69,0-3.37,0-5.05,0-.53.21-.7.8-.7H19.57c.69,0,.86.17.86.85,0,1.58,0,3.16,0,4.74,0,.7-.17.87-.85.87s-1.47,0-2.2,0a.56.56,0,0,1-.62-.37Zm2.51,7.83a2.11,2.11,0,0,1,.07-4.21h0a2.11,2.11,0,1,1-.07,4.21Zm7.57-10.34c0,.42-.13.72-.54.73s-.54-.29-.58-.67.22-.45.53-.43S26.92,9.57,26.85,10.05Zm-.58-1.4c-.4,0-.54-.11-.54-.54,0-.18,0-1,0-1.29s0-.26.17-.33a.66.66,0,0,1,.88.34.65.65,0,0,1,.06.23c0,.33,0,.66,0,1s-.13.6-.59.59Z"/>
                <path id="Rectangle_9" data-name="Rectangle 9" class="cls-1"
                      d="M8,24.75H19.91a.51.51,0,0,1,.51.52h0a.51.51,0,0,1-.51.51H8a.51.51,0,0,1-.51-.51h0A.51.51,0,0,1,8,24.75Z"/>
                <path id="Rectangle_10" data-name="Rectangle 10" class="cls-1"
                      d="M5.86,26.9H22a.51.51,0,0,1,.51.51h0a.51.51,0,0,1-.51.51H5.86a.51.51,0,0,1-.52-.51h0A.51.51,0,0,1,5.86,26.9Z"/>
            </g>
        </g>
    </g>
</svg>