<!--
  - Copyright (c) 2024. All rights reserved by Woliul Hasan. Fork me on https://github.com/woliul
  -->

<svg xmlns="http://www.w3.org/2000/svg" viewBox="0 0 25.08 27.9">
    <defs>
        <style>.cls-1{fill:#fff;}</style>
    </defs>
    <g id="Layer_2" data-name="Layer 2">
        <g id="Layer_1-2" data-name="Layer 1">
            <path id="flight-icon" class="cls-1"
                  d="M24.73,5.77l-.06-.09a2.13,2.13,0,0,0-3-.62h0L16.92,8.21,12.46,5.29l.89-.58L11.48,1.86,9.17,3.38,4.28,0,2.5,1.17,7.12,5.5l-.4.26A1.11,1.11,0,0,0,7.94,7.62h0l.76-.5,3.56,4.16L5.07,16.89,1.68,15.28a.59.59,0,0,0-.6.05l-.84.61a.6.6,0,0,0-.12.84.44.44,0,0,0,.14.13L3.9,19.38l.82,4.33a.59.59,0,0,0,.69.47.68.68,0,0,0,.2-.07l.89-.53a.6.6,0,0,0,.29-.53L6.65,19.3l8-4.37,2.4,4.92-.76.5a1.11,1.11,0,1,0,1.23,1.86l.4-.27,2.13,6,1.78-1.16L20.68,20.9,23,19.39l-1.87-2.85-.89.59-.9-5.26,4.79-3.15A2.13,2.13,0,0,0,24.73,5.77Z"/>
        </g>
    </g>
</svg>