<svg xmlns="http://www.w3.org/2000/svg" viewBox="0 0 40 39.99">
    <defs>
        <style>.cls-1{fill:#fff;}</style>
    </defs>
    <g id="Layer_2" data-name="Layer 2">
        <g id="Layer_1-2" data-name="Layer 1">
            <path class="cls-1"
                  d="M19.29,10.71c.42.18.85.35,1.35.58a4.93,4.93,0,0,0-1.78-2.86,12.42,12.42,0,0,1,.3,2.08A.2.2,0,0,0,19.29,10.71Z"/>
            <path class="cls-1"
                  d="M16.4,16.91a12.26,12.26,0,0,1-2.07,1.35,5.31,5.31,0,0,0,3.8-.76l-1.42-.62A.29.29,0,0,0,16.4,16.91Z"/>
            <path class="cls-1"
                  d="M18.81,16.74a.3.3,0,0,0,.39-.09,5.74,5.74,0,0,0,.85-1.11c.09-.15.11-.23-.08-.31l-1.48-.62a.19.19,0,0,0-.29.09,7.85,7.85,0,0,1-.95,1.37Z"/>
            <path class="cls-1"
                  d="M39.59,33.64c-.56-3.67-1.13-7.33-1.69-11s-1.15-7.4-1.71-11.09l-.6-3.94c0-.16,0-.38-.32-.32-2.33.37-4.64.72-7,1.06-.25.05-.35.13-.35.4a3.57,3.57,0,0,1-.35,1.39c-1.37,3.14-2.72,6.28-4.09,9.42-.13.31-.1.44.25.53,1.43.34,2.84.7,4.27,1.06a.56.56,0,0,0,.61-.17c.86-.88,1.73-1.74,2.6-2.61a2.11,2.11,0,0,1,1.44-.66,1.83,1.83,0,0,1,1.55.82,1.91,1.91,0,0,1-.36,2.54c-.83.85-1.67,1.69-2.53,2.52a.62.62,0,0,0-.19.72c.55,2.1,1.1,4.22,1.62,6.33.42,1.66.53,1.21-.66,2.42-.54.55-.8.53-1.23-.12-1.1-1.66-2.22-3.33-3.31-5-.16-.24-.25-.33-.5-.07-.61.66-1.26,1.28-1.91,1.91a.52.52,0,0,0-.17.51c.08.49.14,1,.21,1.47a.79.79,0,0,1-.17.71,12.17,12.17,0,0,1-.88.88.55.55,0,0,1-.9-.16c-.14-.2-.24-.44-.37-.65a8.65,8.65,0,0,0-1.18-2,10.36,10.36,0,0,0-2-1.2c-.27-.16-.37-.08-.46.17a3.5,3.5,0,0,1-3,2.58c-.22,0-.19.15-.16.29.37,2.44.76,4.9,1.13,7.34,0,.22.1.31.34.26l1.19-.19,11.09-1.7c3.29-.51,6.57-1,9.86-1.51.3,0,.35-.15.3-.44C39.83,35.31,39.72,34.48,39.59,33.64Z"/>
            <path class="cls-1"
                  d="M20.36,14.36c.15.07.2.05.26-.12a7.18,7.18,0,0,0,.23-1.4c-.06-.16.11-.4-.19-.51s-.89-.37-1.33-.57c-.16-.06-.22,0-.24.14a7.8,7.8,0,0,1-.35,1.52c-.06.17,0,.25.14.32Z"/>
            <path class="cls-1"
                  d="M18.17,10.23A7.11,7.11,0,0,0,17.63,8c-.23.56-.44,1-.66,1.54-.07.16,0,.24.13.29C17.44,9.93,17.78,10.08,18.17,10.23Z"/>
            <path class="cls-1" d="M12.27,15a6.54,6.54,0,0,0,.49,2c.2-.49.38-.92.57-1.35.06-.12,0-.17-.09-.22Z"/>
            <path class="cls-1"
                  d="M13.89,14.36c.14-.41.32-.81.5-1.22.07-.15.09-.24-.1-.32l-1.55-.65c-.16-.07-.23,0-.28.12a8,8,0,0,0-.24,1.44c-.09.17,0,.24.23.32.35.13.71.28,1.06.44C13.68,14.58,13.8,14.59,13.89,14.36Z"/>
            <path class="cls-1" d="M14.46,15.94c-.13-.06-.2,0-.26.09-.18.46-.37.9-.59,1.42a7.5,7.5,0,0,0,1.89-1.07Z"/>
            <path class="cls-1"
                  d="M15,14.09c-.38.89-.38.89.51,1.26s.86.37,1.39-.41c.16-.24.29-.47.43-.69s-.12-.16-.19-.2l-1-.42C15.37,13.28,15.37,13.28,15,14.09Z"/>
            <path class="cls-1"
                  d="M15.53,10.16l-1.41-.61c-.09,0-.14.08-.19.13A10.12,10.12,0,0,0,13,11c-.1.19,0,.23.13.3l1.52.64c.16.08.24.05.31-.12.19-.47.39-.94.59-1.41C15.58,10.33,15.66,10.22,15.53,10.16Z"/>
            <path class="cls-1"
                  d="M11.8,17.24a9.77,9.77,0,0,1-.53-2.41c0-.08,0-.23-.08-.25-.5-.24-1-.45-1.55-.69A5.35,5.35,0,0,0,11.8,17.24Z"/>
            <path class="cls-1"
                  d="M33.21,20.2A.81.81,0,1,0,32.09,19a3.71,3.71,0,0,0-.29.27c-.84.85-1.7,1.67-2.52,2.54a1.22,1.22,0,0,1-1.33.38c-1.37-.38-2.75-.7-4.13-1-.89-.22-.88-.22-1.26.61-.12.26-.12.41.16.58,1,.63,1.94,1.27,2.91,1.92.49.33.53.66.1,1.08-.89.91-1.79,1.8-2.68,2.7a1,1,0,0,1-1,.29c-.56-.15-1.13-.28-1.7-.42-.16,0-.34-.17-.46.08s.13.29.27.37c.63.37,1.26.73,1.91,1.07a1.76,1.76,0,0,1,.77.78c.33.62.68,1.23,1,1.85a.4.4,0,0,0,.26-.49c-.09-.48-.13-1-.21-1.44a1,1,0,0,1,.34-1l2.59-2.58c.54-.55.79-.52,1.23.13,1.11,1.68,2.22,3.37,3.34,5.05.06.08.1.29.25.2s.35-.19.26-.45a.93.93,0,0,1-.05-.24c-.59-2.32-1.18-4.63-1.79-6.93A1.28,1.28,0,0,1,30.46,23C31.39,22.06,32.31,21.14,33.21,20.2Z"/>
            <path class="cls-1"
                  d="M15.86,31.05a2.35,2.35,0,0,0,2.22-1.57q4.29-9.91,8.57-19.84a2.34,2.34,0,0,0-1.34-3.32L10.87.07c-.29-.12-.4-.1-.54.2Q5.22,12.17.07,24c-.11.27-.11.38.18.51,4.86,2.08,9.69,4.18,14.53,6.26A2.41,2.41,0,0,0,15.86,31.05ZM15.12,6a6.65,6.65,0,1,1,.08,13.29,6.57,6.57,0,0,1-6.68-6.59A6.65,6.65,0,0,1,15.12,6ZM5.29,18.82a.44.44,0,0,1,.5-.28,2.19,2.19,0,0,1,.43.15L17,23.33a2.06,2.06,0,0,1,.33.17.45.45,0,0,1,.18.54c-.08.22-.25.29-.51.31l-.38-.14L5.77,19.54a1.39,1.39,0,0,1-.36-.2A.41.41,0,0,1,5.29,18.82ZM3.84,22.44a.43.43,0,0,1-.16-.58.42.42,0,0,1,.54-.26,1.17,1.17,0,0,1,.31.12L15.37,26.4c.24.1.49.2.51.55a.44.44,0,0,1-.52.44,1.3,1.3,0,0,1-.42-.14L4.21,22.62A3.14,3.14,0,0,1,3.84,22.44Z"/>
            <path class="cls-1"
                  d="M16.42,10.81l-.59,1.4c-.07.15,0,.22.12.29q.81.33,1.62.69c.17.07.24,0,.3-.15a7.39,7.39,0,0,0,.28-1.48c.05-.19,0-.29-.12-.35-.44-.17-.87-.36-1.3-.54C16.56,10.58,16.49,10.65,16.42,10.81Z"/>
            <path class="cls-1"
                  d="M22.17,27.29a.23.23,0,0,0,.21-.07l2.16-2.16c.13-.13.07-.18,0-.25l-2.34-1.56c-.14-.09-.21-.06-.27.1-.47,1.08-.94,2.16-1.41,3.26,0,.09-.13.22,0,.26Z"/>
            <path class="cls-1"
                  d="M11,13.44c.17.07.25.05.28-.15A5.69,5.69,0,0,1,11.58,12c.05-.18,0-.26-.15-.34-.47-.19-.94-.38-1.41-.59-.22-.11-.28,0-.33.17a6.26,6.26,0,0,0-.2,1.26c0,.13-.07.32.17.42C10.13,13.05,10.57,13.25,11,13.44Z"/>
            <path class="cls-1"
                  d="M14.36,8a6.8,6.8,0,0,1,1-.7c.1-.06.24-.07.26-.26a5.8,5.8,0,0,0-3.3.76,6.28,6.28,0,0,1,.81.36A.84.84,0,0,0,14.36,8Z"/>
            <path class="cls-1"
                  d="M15.86,9.26c.13.05.18,0,.22-.1l.63-1.49a6.58,6.58,0,0,0-1.87,1.15C15.21,9,15.54,9.11,15.86,9.26Z"/>
            <path class="cls-1"
                  d="M10.75,10.29l1.18.5c.15,0,.17-.11.22-.21.2-.29.37-.61.58-.9.38-.55.39-.54-.24-.8-1.23-.54-1.23-.54-2,.55C10.1,10,10.1,10,10.75,10.29Z"/>
        </g>
    </g>
</svg>